M48
; DRILL file {KiCad 9.0.7} date 2026-03-11T09:03:49+0300
; FORMAT={-:-/ absolute / metric / decimal}
; #@! TF.CreationDate,2026-03-11T09:03:49+03:00
; #@! TF.GenerationSoftware,Kicad,Pcbnew,9.0.7
; #@! TF.FileFunction,MixedPlating,1,2
FMAT,2
METRIC
; #@! TA.AperFunction,Plated,PTH,ViaDrill
T1C0.300
; #@! TA.AperFunction,Plated,PTH,ComponentDrill
T2C0.550
; #@! TA.AperFunction,Plated,PTH,ComponentDrill
T3C0.850
; #@! TA.AperFunction,Plated,PTH,ComponentDrill
T4C1.000
; #@! TA.AperFunction,NonPlated,NPTH,ComponentDrill
T5C0.800
; #@! TA.AperFunction,NonPlated,NPTH,ComponentDrill
T6C0.900
; #@! TA.AperFunction,NonPlated,NPTH,ComponentDrill
T7C2.200
%
G90
G05
T1
X127.0Y-109.5
X129.5Y-104.0
X131.0Y-100.5
X139.0Y-101.5
X140.5Y-108.5
X141.0Y-113.5
X146.0Y-112.0
X149.0Y-105.953
X149.5Y-116.0
X152.468Y-112.341
X154.0Y-105.5
X156.5Y-99.0
T4
X133.19Y-92.0
X135.73Y-92.0
X138.27Y-92.0
X140.0Y-118.5
X140.81Y-92.0
X142.54Y-118.5
X145.08Y-118.5
X146.96Y-92.0
X147.62Y-118.5
X149.5Y-92.0
X152.04Y-92.0
X154.58Y-92.0
T5
X162.445Y-98.328
X162.445Y-103.328
T6
X125.0Y-99.328
X125.0Y-102.328
T7
X126.828Y-92.828
X126.828Y-117.828
X163.328Y-92.828
X163.328Y-117.828
T2
G00X164.87Y-96.953
M15
G01X165.52Y-96.953
M16
G05
G00X164.87Y-104.703
M15
G01X165.52Y-104.703
M16
G05
T3
G00X161.12Y-97.103
M15
G01X161.67Y-97.103
M16
G05
G00X161.12Y-104.553
M15
G01X161.67Y-104.553
M16
G05
M30
