%TF.GenerationSoftware,KiCad,Pcbnew,9.0.7*%
%TF.CreationDate,2026-03-11T09:04:36+03:00*%
%TF.ProjectId,STM 32 DESIGN,53544d20-3332-4204-9445-5349474e2e6b,rev?*%
%TF.SameCoordinates,Original*%
%TF.FileFunction,Legend,Top*%
%TF.FilePolarity,Positive*%
%FSLAX46Y46*%
G04 Gerber Fmt 4.6, Leading zero omitted, Abs format (unit mm)*
G04 Created by KiCad (PCBNEW 9.0.7) date 2026-03-11 09:04:36*
%MOMM*%
%LPD*%
G01*
G04 APERTURE LIST*
%ADD10C,0.082500*%
%ADD11C,0.200000*%
%ADD12C,0.150000*%
%ADD13C,0.120000*%
%ADD14C,0.010000*%
G04 APERTURE END LIST*
D10*
X147706656Y-89859710D02*
X147820942Y-89897805D01*
X147820942Y-89897805D02*
X148011418Y-89897805D01*
X148011418Y-89897805D02*
X148087609Y-89859710D01*
X148087609Y-89859710D02*
X148125704Y-89821614D01*
X148125704Y-89821614D02*
X148163799Y-89745424D01*
X148163799Y-89745424D02*
X148163799Y-89669233D01*
X148163799Y-89669233D02*
X148125704Y-89593043D01*
X148125704Y-89593043D02*
X148087609Y-89554948D01*
X148087609Y-89554948D02*
X148011418Y-89516852D01*
X148011418Y-89516852D02*
X147859037Y-89478757D01*
X147859037Y-89478757D02*
X147782847Y-89440662D01*
X147782847Y-89440662D02*
X147744752Y-89402567D01*
X147744752Y-89402567D02*
X147706656Y-89326376D01*
X147706656Y-89326376D02*
X147706656Y-89250186D01*
X147706656Y-89250186D02*
X147744752Y-89173995D01*
X147744752Y-89173995D02*
X147782847Y-89135900D01*
X147782847Y-89135900D02*
X147859037Y-89097805D01*
X147859037Y-89097805D02*
X148049514Y-89097805D01*
X148049514Y-89097805D02*
X148163799Y-89135900D01*
X148430466Y-89097805D02*
X148620942Y-89897805D01*
X148620942Y-89897805D02*
X148773323Y-89326376D01*
X148773323Y-89326376D02*
X148925704Y-89897805D01*
X148925704Y-89897805D02*
X149116181Y-89097805D01*
X149878086Y-89821614D02*
X149839990Y-89859710D01*
X149839990Y-89859710D02*
X149725705Y-89897805D01*
X149725705Y-89897805D02*
X149649514Y-89897805D01*
X149649514Y-89897805D02*
X149535228Y-89859710D01*
X149535228Y-89859710D02*
X149459038Y-89783519D01*
X149459038Y-89783519D02*
X149420943Y-89707329D01*
X149420943Y-89707329D02*
X149382847Y-89554948D01*
X149382847Y-89554948D02*
X149382847Y-89440662D01*
X149382847Y-89440662D02*
X149420943Y-89288281D01*
X149420943Y-89288281D02*
X149459038Y-89212090D01*
X149459038Y-89212090D02*
X149535228Y-89135900D01*
X149535228Y-89135900D02*
X149649514Y-89097805D01*
X149649514Y-89097805D02*
X149725705Y-89097805D01*
X149725705Y-89097805D02*
X149839990Y-89135900D01*
X149839990Y-89135900D02*
X149878086Y-89173995D01*
X150601895Y-89897805D02*
X150220943Y-89897805D01*
X150220943Y-89897805D02*
X150220943Y-89097805D01*
D11*
X139098482Y-121367219D02*
X138527054Y-121367219D01*
X138812768Y-121367219D02*
X138812768Y-120367219D01*
X138812768Y-120367219D02*
X138717530Y-120510076D01*
X138717530Y-120510076D02*
X138622292Y-120605314D01*
X138622292Y-120605314D02*
X138527054Y-120652933D01*
X139479435Y-120462457D02*
X139527054Y-120414838D01*
X139527054Y-120414838D02*
X139622292Y-120367219D01*
X139622292Y-120367219D02*
X139860387Y-120367219D01*
X139860387Y-120367219D02*
X139955625Y-120414838D01*
X139955625Y-120414838D02*
X140003244Y-120462457D01*
X140003244Y-120462457D02*
X140050863Y-120557695D01*
X140050863Y-120557695D02*
X140050863Y-120652933D01*
X140050863Y-120652933D02*
X140003244Y-120795790D01*
X140003244Y-120795790D02*
X139431816Y-121367219D01*
X139431816Y-121367219D02*
X140050863Y-121367219D01*
X141050863Y-121271980D02*
X141003244Y-121319600D01*
X141003244Y-121319600D02*
X140860387Y-121367219D01*
X140860387Y-121367219D02*
X140765149Y-121367219D01*
X140765149Y-121367219D02*
X140622292Y-121319600D01*
X140622292Y-121319600D02*
X140527054Y-121224361D01*
X140527054Y-121224361D02*
X140479435Y-121129123D01*
X140479435Y-121129123D02*
X140431816Y-120938647D01*
X140431816Y-120938647D02*
X140431816Y-120795790D01*
X140431816Y-120795790D02*
X140479435Y-120605314D01*
X140479435Y-120605314D02*
X140527054Y-120510076D01*
X140527054Y-120510076D02*
X140622292Y-120414838D01*
X140622292Y-120414838D02*
X140765149Y-120367219D01*
X140765149Y-120367219D02*
X140860387Y-120367219D01*
X140860387Y-120367219D02*
X141003244Y-120414838D01*
X141003244Y-120414838D02*
X141050863Y-120462457D01*
X158367219Y-105130326D02*
X159176742Y-105130326D01*
X159176742Y-105130326D02*
X159271980Y-105082707D01*
X159271980Y-105082707D02*
X159319600Y-105035088D01*
X159319600Y-105035088D02*
X159367219Y-104939850D01*
X159367219Y-104939850D02*
X159367219Y-104749374D01*
X159367219Y-104749374D02*
X159319600Y-104654136D01*
X159319600Y-104654136D02*
X159271980Y-104606517D01*
X159271980Y-104606517D02*
X159176742Y-104558898D01*
X159176742Y-104558898D02*
X158367219Y-104558898D01*
X159319600Y-104130326D02*
X159367219Y-103987469D01*
X159367219Y-103987469D02*
X159367219Y-103749374D01*
X159367219Y-103749374D02*
X159319600Y-103654136D01*
X159319600Y-103654136D02*
X159271980Y-103606517D01*
X159271980Y-103606517D02*
X159176742Y-103558898D01*
X159176742Y-103558898D02*
X159081504Y-103558898D01*
X159081504Y-103558898D02*
X158986266Y-103606517D01*
X158986266Y-103606517D02*
X158938647Y-103654136D01*
X158938647Y-103654136D02*
X158891028Y-103749374D01*
X158891028Y-103749374D02*
X158843409Y-103939850D01*
X158843409Y-103939850D02*
X158795790Y-104035088D01*
X158795790Y-104035088D02*
X158748171Y-104082707D01*
X158748171Y-104082707D02*
X158652933Y-104130326D01*
X158652933Y-104130326D02*
X158557695Y-104130326D01*
X158557695Y-104130326D02*
X158462457Y-104082707D01*
X158462457Y-104082707D02*
X158414838Y-104035088D01*
X158414838Y-104035088D02*
X158367219Y-103939850D01*
X158367219Y-103939850D02*
X158367219Y-103701755D01*
X158367219Y-103701755D02*
X158414838Y-103558898D01*
X158843409Y-102796993D02*
X158891028Y-102654136D01*
X158891028Y-102654136D02*
X158938647Y-102606517D01*
X158938647Y-102606517D02*
X159033885Y-102558898D01*
X159033885Y-102558898D02*
X159176742Y-102558898D01*
X159176742Y-102558898D02*
X159271980Y-102606517D01*
X159271980Y-102606517D02*
X159319600Y-102654136D01*
X159319600Y-102654136D02*
X159367219Y-102749374D01*
X159367219Y-102749374D02*
X159367219Y-103130326D01*
X159367219Y-103130326D02*
X158367219Y-103130326D01*
X158367219Y-103130326D02*
X158367219Y-102796993D01*
X158367219Y-102796993D02*
X158414838Y-102701755D01*
X158414838Y-102701755D02*
X158462457Y-102654136D01*
X158462457Y-102654136D02*
X158557695Y-102606517D01*
X158557695Y-102606517D02*
X158652933Y-102606517D01*
X158652933Y-102606517D02*
X158748171Y-102654136D01*
X158748171Y-102654136D02*
X158795790Y-102701755D01*
X158795790Y-102701755D02*
X158843409Y-102796993D01*
X158843409Y-102796993D02*
X158843409Y-103130326D01*
X158843409Y-101035088D02*
X158891028Y-100892231D01*
X158891028Y-100892231D02*
X158938647Y-100844612D01*
X158938647Y-100844612D02*
X159033885Y-100796993D01*
X159033885Y-100796993D02*
X159176742Y-100796993D01*
X159176742Y-100796993D02*
X159271980Y-100844612D01*
X159271980Y-100844612D02*
X159319600Y-100892231D01*
X159319600Y-100892231D02*
X159367219Y-100987469D01*
X159367219Y-100987469D02*
X159367219Y-101368421D01*
X159367219Y-101368421D02*
X158367219Y-101368421D01*
X158367219Y-101368421D02*
X158367219Y-101035088D01*
X158367219Y-101035088D02*
X158414838Y-100939850D01*
X158414838Y-100939850D02*
X158462457Y-100892231D01*
X158462457Y-100892231D02*
X158557695Y-100844612D01*
X158557695Y-100844612D02*
X158652933Y-100844612D01*
X158652933Y-100844612D02*
X158748171Y-100892231D01*
X158748171Y-100892231D02*
X158795790Y-100939850D01*
X158795790Y-100939850D02*
X158843409Y-101035088D01*
X158843409Y-101035088D02*
X158843409Y-101368421D01*
X159367219Y-99606516D02*
X158367219Y-99606516D01*
X158367219Y-99606516D02*
X159081504Y-99273183D01*
X159081504Y-99273183D02*
X158367219Y-98939850D01*
X158367219Y-98939850D02*
X159367219Y-98939850D01*
X159367219Y-98463659D02*
X158700552Y-98463659D01*
X158367219Y-98463659D02*
X158414838Y-98511278D01*
X158414838Y-98511278D02*
X158462457Y-98463659D01*
X158462457Y-98463659D02*
X158414838Y-98416040D01*
X158414838Y-98416040D02*
X158367219Y-98463659D01*
X158367219Y-98463659D02*
X158462457Y-98463659D01*
X159319600Y-97558898D02*
X159367219Y-97654136D01*
X159367219Y-97654136D02*
X159367219Y-97844612D01*
X159367219Y-97844612D02*
X159319600Y-97939850D01*
X159319600Y-97939850D02*
X159271980Y-97987469D01*
X159271980Y-97987469D02*
X159176742Y-98035088D01*
X159176742Y-98035088D02*
X158891028Y-98035088D01*
X158891028Y-98035088D02*
X158795790Y-97987469D01*
X158795790Y-97987469D02*
X158748171Y-97939850D01*
X158748171Y-97939850D02*
X158700552Y-97844612D01*
X158700552Y-97844612D02*
X158700552Y-97654136D01*
X158700552Y-97654136D02*
X158748171Y-97558898D01*
X159367219Y-97130326D02*
X158700552Y-97130326D01*
X158891028Y-97130326D02*
X158795790Y-97082707D01*
X158795790Y-97082707D02*
X158748171Y-97035088D01*
X158748171Y-97035088D02*
X158700552Y-96939850D01*
X158700552Y-96939850D02*
X158700552Y-96844612D01*
X159367219Y-96368421D02*
X159319600Y-96463659D01*
X159319600Y-96463659D02*
X159271980Y-96511278D01*
X159271980Y-96511278D02*
X159176742Y-96558897D01*
X159176742Y-96558897D02*
X158891028Y-96558897D01*
X158891028Y-96558897D02*
X158795790Y-96511278D01*
X158795790Y-96511278D02*
X158748171Y-96463659D01*
X158748171Y-96463659D02*
X158700552Y-96368421D01*
X158700552Y-96368421D02*
X158700552Y-96225564D01*
X158700552Y-96225564D02*
X158748171Y-96130326D01*
X158748171Y-96130326D02*
X158795790Y-96082707D01*
X158795790Y-96082707D02*
X158891028Y-96035088D01*
X158891028Y-96035088D02*
X159176742Y-96035088D01*
X159176742Y-96035088D02*
X159271980Y-96082707D01*
X159271980Y-96082707D02*
X159319600Y-96130326D01*
X159319600Y-96130326D02*
X159367219Y-96225564D01*
X159367219Y-96225564D02*
X159367219Y-96368421D01*
D10*
X145163799Y-89135900D02*
X145087609Y-89097805D01*
X145087609Y-89097805D02*
X144973323Y-89097805D01*
X144973323Y-89097805D02*
X144859037Y-89135900D01*
X144859037Y-89135900D02*
X144782847Y-89212090D01*
X144782847Y-89212090D02*
X144744752Y-89288281D01*
X144744752Y-89288281D02*
X144706656Y-89440662D01*
X144706656Y-89440662D02*
X144706656Y-89554948D01*
X144706656Y-89554948D02*
X144744752Y-89707329D01*
X144744752Y-89707329D02*
X144782847Y-89783519D01*
X144782847Y-89783519D02*
X144859037Y-89859710D01*
X144859037Y-89859710D02*
X144973323Y-89897805D01*
X144973323Y-89897805D02*
X145049514Y-89897805D01*
X145049514Y-89897805D02*
X145163799Y-89859710D01*
X145163799Y-89859710D02*
X145201895Y-89821614D01*
X145201895Y-89821614D02*
X145201895Y-89554948D01*
X145201895Y-89554948D02*
X145049514Y-89554948D01*
X145544752Y-89897805D02*
X145544752Y-89097805D01*
X145544752Y-89097805D02*
X146001895Y-89897805D01*
X146001895Y-89897805D02*
X146001895Y-89097805D01*
X146382847Y-89897805D02*
X146382847Y-89097805D01*
X146382847Y-89097805D02*
X146573323Y-89097805D01*
X146573323Y-89097805D02*
X146687609Y-89135900D01*
X146687609Y-89135900D02*
X146763799Y-89212090D01*
X146763799Y-89212090D02*
X146801894Y-89288281D01*
X146801894Y-89288281D02*
X146839990Y-89440662D01*
X146839990Y-89440662D02*
X146839990Y-89554948D01*
X146839990Y-89554948D02*
X146801894Y-89707329D01*
X146801894Y-89707329D02*
X146763799Y-89783519D01*
X146763799Y-89783519D02*
X146687609Y-89859710D01*
X146687609Y-89859710D02*
X146573323Y-89897805D01*
X146573323Y-89897805D02*
X146382847Y-89897805D01*
X151206656Y-89859710D02*
X151320942Y-89897805D01*
X151320942Y-89897805D02*
X151511418Y-89897805D01*
X151511418Y-89897805D02*
X151587609Y-89859710D01*
X151587609Y-89859710D02*
X151625704Y-89821614D01*
X151625704Y-89821614D02*
X151663799Y-89745424D01*
X151663799Y-89745424D02*
X151663799Y-89669233D01*
X151663799Y-89669233D02*
X151625704Y-89593043D01*
X151625704Y-89593043D02*
X151587609Y-89554948D01*
X151587609Y-89554948D02*
X151511418Y-89516852D01*
X151511418Y-89516852D02*
X151359037Y-89478757D01*
X151359037Y-89478757D02*
X151282847Y-89440662D01*
X151282847Y-89440662D02*
X151244752Y-89402567D01*
X151244752Y-89402567D02*
X151206656Y-89326376D01*
X151206656Y-89326376D02*
X151206656Y-89250186D01*
X151206656Y-89250186D02*
X151244752Y-89173995D01*
X151244752Y-89173995D02*
X151282847Y-89135900D01*
X151282847Y-89135900D02*
X151359037Y-89097805D01*
X151359037Y-89097805D02*
X151549514Y-89097805D01*
X151549514Y-89097805D02*
X151663799Y-89135900D01*
X151930466Y-89097805D02*
X152120942Y-89897805D01*
X152120942Y-89897805D02*
X152273323Y-89326376D01*
X152273323Y-89326376D02*
X152425704Y-89897805D01*
X152425704Y-89897805D02*
X152616181Y-89097805D01*
X152920943Y-89897805D02*
X152920943Y-89097805D01*
X152920943Y-89097805D02*
X153111419Y-89097805D01*
X153111419Y-89097805D02*
X153225705Y-89135900D01*
X153225705Y-89135900D02*
X153301895Y-89212090D01*
X153301895Y-89212090D02*
X153339990Y-89288281D01*
X153339990Y-89288281D02*
X153378086Y-89440662D01*
X153378086Y-89440662D02*
X153378086Y-89554948D01*
X153378086Y-89554948D02*
X153339990Y-89707329D01*
X153339990Y-89707329D02*
X153301895Y-89783519D01*
X153301895Y-89783519D02*
X153225705Y-89859710D01*
X153225705Y-89859710D02*
X153111419Y-89897805D01*
X153111419Y-89897805D02*
X152920943Y-89897805D01*
X153720943Y-89897805D02*
X153720943Y-89097805D01*
D11*
X131764673Y-94367219D02*
X131764673Y-95176742D01*
X131764673Y-95176742D02*
X131812292Y-95271980D01*
X131812292Y-95271980D02*
X131859911Y-95319600D01*
X131859911Y-95319600D02*
X131955149Y-95367219D01*
X131955149Y-95367219D02*
X132145625Y-95367219D01*
X132145625Y-95367219D02*
X132240863Y-95319600D01*
X132240863Y-95319600D02*
X132288482Y-95271980D01*
X132288482Y-95271980D02*
X132336101Y-95176742D01*
X132336101Y-95176742D02*
X132336101Y-94367219D01*
X132764673Y-95081504D02*
X133240863Y-95081504D01*
X132669435Y-95367219D02*
X133002768Y-94367219D01*
X133002768Y-94367219D02*
X133336101Y-95367219D01*
X134240863Y-95367219D02*
X133907530Y-94891028D01*
X133669435Y-95367219D02*
X133669435Y-94367219D01*
X133669435Y-94367219D02*
X134050387Y-94367219D01*
X134050387Y-94367219D02*
X134145625Y-94414838D01*
X134145625Y-94414838D02*
X134193244Y-94462457D01*
X134193244Y-94462457D02*
X134240863Y-94557695D01*
X134240863Y-94557695D02*
X134240863Y-94700552D01*
X134240863Y-94700552D02*
X134193244Y-94795790D01*
X134193244Y-94795790D02*
X134145625Y-94843409D01*
X134145625Y-94843409D02*
X134050387Y-94891028D01*
X134050387Y-94891028D02*
X133669435Y-94891028D01*
X134526578Y-94367219D02*
X135098006Y-94367219D01*
X134812292Y-95367219D02*
X134812292Y-94367219D01*
D10*
X147163799Y-116135900D02*
X147087609Y-116097805D01*
X147087609Y-116097805D02*
X146973323Y-116097805D01*
X146973323Y-116097805D02*
X146859037Y-116135900D01*
X146859037Y-116135900D02*
X146782847Y-116212090D01*
X146782847Y-116212090D02*
X146744752Y-116288281D01*
X146744752Y-116288281D02*
X146706656Y-116440662D01*
X146706656Y-116440662D02*
X146706656Y-116554948D01*
X146706656Y-116554948D02*
X146744752Y-116707329D01*
X146744752Y-116707329D02*
X146782847Y-116783519D01*
X146782847Y-116783519D02*
X146859037Y-116859710D01*
X146859037Y-116859710D02*
X146973323Y-116897805D01*
X146973323Y-116897805D02*
X147049514Y-116897805D01*
X147049514Y-116897805D02*
X147163799Y-116859710D01*
X147163799Y-116859710D02*
X147201895Y-116821614D01*
X147201895Y-116821614D02*
X147201895Y-116554948D01*
X147201895Y-116554948D02*
X147049514Y-116554948D01*
X147544752Y-116897805D02*
X147544752Y-116097805D01*
X147544752Y-116097805D02*
X148001895Y-116897805D01*
X148001895Y-116897805D02*
X148001895Y-116097805D01*
X148382847Y-116897805D02*
X148382847Y-116097805D01*
X148382847Y-116097805D02*
X148573323Y-116097805D01*
X148573323Y-116097805D02*
X148687609Y-116135900D01*
X148687609Y-116135900D02*
X148763799Y-116212090D01*
X148763799Y-116212090D02*
X148801894Y-116288281D01*
X148801894Y-116288281D02*
X148839990Y-116440662D01*
X148839990Y-116440662D02*
X148839990Y-116554948D01*
X148839990Y-116554948D02*
X148801894Y-116707329D01*
X148801894Y-116707329D02*
X148763799Y-116783519D01*
X148763799Y-116783519D02*
X148687609Y-116859710D01*
X148687609Y-116859710D02*
X148573323Y-116897805D01*
X148573323Y-116897805D02*
X148382847Y-116897805D01*
D11*
X124203006Y-106343409D02*
X124345863Y-106391028D01*
X124345863Y-106391028D02*
X124393482Y-106438647D01*
X124393482Y-106438647D02*
X124441101Y-106533885D01*
X124441101Y-106533885D02*
X124441101Y-106676742D01*
X124441101Y-106676742D02*
X124393482Y-106771980D01*
X124393482Y-106771980D02*
X124345863Y-106819600D01*
X124345863Y-106819600D02*
X124250625Y-106867219D01*
X124250625Y-106867219D02*
X123869673Y-106867219D01*
X123869673Y-106867219D02*
X123869673Y-105867219D01*
X123869673Y-105867219D02*
X124203006Y-105867219D01*
X124203006Y-105867219D02*
X124298244Y-105914838D01*
X124298244Y-105914838D02*
X124345863Y-105962457D01*
X124345863Y-105962457D02*
X124393482Y-106057695D01*
X124393482Y-106057695D02*
X124393482Y-106152933D01*
X124393482Y-106152933D02*
X124345863Y-106248171D01*
X124345863Y-106248171D02*
X124298244Y-106295790D01*
X124298244Y-106295790D02*
X124203006Y-106343409D01*
X124203006Y-106343409D02*
X123869673Y-106343409D01*
X125060149Y-105867219D02*
X125250625Y-105867219D01*
X125250625Y-105867219D02*
X125345863Y-105914838D01*
X125345863Y-105914838D02*
X125441101Y-106010076D01*
X125441101Y-106010076D02*
X125488720Y-106200552D01*
X125488720Y-106200552D02*
X125488720Y-106533885D01*
X125488720Y-106533885D02*
X125441101Y-106724361D01*
X125441101Y-106724361D02*
X125345863Y-106819600D01*
X125345863Y-106819600D02*
X125250625Y-106867219D01*
X125250625Y-106867219D02*
X125060149Y-106867219D01*
X125060149Y-106867219D02*
X124964911Y-106819600D01*
X124964911Y-106819600D02*
X124869673Y-106724361D01*
X124869673Y-106724361D02*
X124822054Y-106533885D01*
X124822054Y-106533885D02*
X124822054Y-106200552D01*
X124822054Y-106200552D02*
X124869673Y-106010076D01*
X124869673Y-106010076D02*
X124964911Y-105914838D01*
X124964911Y-105914838D02*
X125060149Y-105867219D01*
X126107768Y-105867219D02*
X126298244Y-105867219D01*
X126298244Y-105867219D02*
X126393482Y-105914838D01*
X126393482Y-105914838D02*
X126488720Y-106010076D01*
X126488720Y-106010076D02*
X126536339Y-106200552D01*
X126536339Y-106200552D02*
X126536339Y-106533885D01*
X126536339Y-106533885D02*
X126488720Y-106724361D01*
X126488720Y-106724361D02*
X126393482Y-106819600D01*
X126393482Y-106819600D02*
X126298244Y-106867219D01*
X126298244Y-106867219D02*
X126107768Y-106867219D01*
X126107768Y-106867219D02*
X126012530Y-106819600D01*
X126012530Y-106819600D02*
X125917292Y-106724361D01*
X125917292Y-106724361D02*
X125869673Y-106533885D01*
X125869673Y-106533885D02*
X125869673Y-106200552D01*
X125869673Y-106200552D02*
X125917292Y-106010076D01*
X125917292Y-106010076D02*
X126012530Y-105914838D01*
X126012530Y-105914838D02*
X126107768Y-105867219D01*
X126822054Y-105867219D02*
X127393482Y-105867219D01*
X127107768Y-106867219D02*
X127107768Y-105867219D01*
D10*
X128663799Y-102635900D02*
X128587609Y-102597805D01*
X128587609Y-102597805D02*
X128473323Y-102597805D01*
X128473323Y-102597805D02*
X128359037Y-102635900D01*
X128359037Y-102635900D02*
X128282847Y-102712090D01*
X128282847Y-102712090D02*
X128244752Y-102788281D01*
X128244752Y-102788281D02*
X128206656Y-102940662D01*
X128206656Y-102940662D02*
X128206656Y-103054948D01*
X128206656Y-103054948D02*
X128244752Y-103207329D01*
X128244752Y-103207329D02*
X128282847Y-103283519D01*
X128282847Y-103283519D02*
X128359037Y-103359710D01*
X128359037Y-103359710D02*
X128473323Y-103397805D01*
X128473323Y-103397805D02*
X128549514Y-103397805D01*
X128549514Y-103397805D02*
X128663799Y-103359710D01*
X128663799Y-103359710D02*
X128701895Y-103321614D01*
X128701895Y-103321614D02*
X128701895Y-103054948D01*
X128701895Y-103054948D02*
X128549514Y-103054948D01*
X129044752Y-103397805D02*
X129044752Y-102597805D01*
X129044752Y-102597805D02*
X129501895Y-103397805D01*
X129501895Y-103397805D02*
X129501895Y-102597805D01*
X129882847Y-103397805D02*
X129882847Y-102597805D01*
X129882847Y-102597805D02*
X130073323Y-102597805D01*
X130073323Y-102597805D02*
X130187609Y-102635900D01*
X130187609Y-102635900D02*
X130263799Y-102712090D01*
X130263799Y-102712090D02*
X130301894Y-102788281D01*
X130301894Y-102788281D02*
X130339990Y-102940662D01*
X130339990Y-102940662D02*
X130339990Y-103054948D01*
X130339990Y-103054948D02*
X130301894Y-103207329D01*
X130301894Y-103207329D02*
X130263799Y-103283519D01*
X130263799Y-103283519D02*
X130187609Y-103359710D01*
X130187609Y-103359710D02*
X130073323Y-103397805D01*
X130073323Y-103397805D02*
X129882847Y-103397805D01*
X133163799Y-89135900D02*
X133087609Y-89097805D01*
X133087609Y-89097805D02*
X132973323Y-89097805D01*
X132973323Y-89097805D02*
X132859037Y-89135900D01*
X132859037Y-89135900D02*
X132782847Y-89212090D01*
X132782847Y-89212090D02*
X132744752Y-89288281D01*
X132744752Y-89288281D02*
X132706656Y-89440662D01*
X132706656Y-89440662D02*
X132706656Y-89554948D01*
X132706656Y-89554948D02*
X132744752Y-89707329D01*
X132744752Y-89707329D02*
X132782847Y-89783519D01*
X132782847Y-89783519D02*
X132859037Y-89859710D01*
X132859037Y-89859710D02*
X132973323Y-89897805D01*
X132973323Y-89897805D02*
X133049514Y-89897805D01*
X133049514Y-89897805D02*
X133163799Y-89859710D01*
X133163799Y-89859710D02*
X133201895Y-89821614D01*
X133201895Y-89821614D02*
X133201895Y-89554948D01*
X133201895Y-89554948D02*
X133049514Y-89554948D01*
X133544752Y-89897805D02*
X133544752Y-89097805D01*
X133544752Y-89097805D02*
X134001895Y-89897805D01*
X134001895Y-89897805D02*
X134001895Y-89097805D01*
X134382847Y-89897805D02*
X134382847Y-89097805D01*
X134382847Y-89097805D02*
X134573323Y-89097805D01*
X134573323Y-89097805D02*
X134687609Y-89135900D01*
X134687609Y-89135900D02*
X134763799Y-89212090D01*
X134763799Y-89212090D02*
X134801894Y-89288281D01*
X134801894Y-89288281D02*
X134839990Y-89440662D01*
X134839990Y-89440662D02*
X134839990Y-89554948D01*
X134839990Y-89554948D02*
X134801894Y-89707329D01*
X134801894Y-89707329D02*
X134763799Y-89783519D01*
X134763799Y-89783519D02*
X134687609Y-89859710D01*
X134687609Y-89859710D02*
X134573323Y-89897805D01*
X134573323Y-89897805D02*
X134382847Y-89897805D01*
D11*
X145487054Y-95319600D02*
X145629911Y-95367219D01*
X145629911Y-95367219D02*
X145868006Y-95367219D01*
X145868006Y-95367219D02*
X145963244Y-95319600D01*
X145963244Y-95319600D02*
X146010863Y-95271980D01*
X146010863Y-95271980D02*
X146058482Y-95176742D01*
X146058482Y-95176742D02*
X146058482Y-95081504D01*
X146058482Y-95081504D02*
X146010863Y-94986266D01*
X146010863Y-94986266D02*
X145963244Y-94938647D01*
X145963244Y-94938647D02*
X145868006Y-94891028D01*
X145868006Y-94891028D02*
X145677530Y-94843409D01*
X145677530Y-94843409D02*
X145582292Y-94795790D01*
X145582292Y-94795790D02*
X145534673Y-94748171D01*
X145534673Y-94748171D02*
X145487054Y-94652933D01*
X145487054Y-94652933D02*
X145487054Y-94557695D01*
X145487054Y-94557695D02*
X145534673Y-94462457D01*
X145534673Y-94462457D02*
X145582292Y-94414838D01*
X145582292Y-94414838D02*
X145677530Y-94367219D01*
X145677530Y-94367219D02*
X145915625Y-94367219D01*
X145915625Y-94367219D02*
X146058482Y-94414838D01*
X146391816Y-94367219D02*
X146629911Y-95367219D01*
X146629911Y-95367219D02*
X146820387Y-94652933D01*
X146820387Y-94652933D02*
X147010863Y-95367219D01*
X147010863Y-95367219D02*
X147248959Y-94367219D01*
X147629911Y-95367219D02*
X147629911Y-94367219D01*
X147629911Y-94367219D02*
X147868006Y-94367219D01*
X147868006Y-94367219D02*
X148010863Y-94414838D01*
X148010863Y-94414838D02*
X148106101Y-94510076D01*
X148106101Y-94510076D02*
X148153720Y-94605314D01*
X148153720Y-94605314D02*
X148201339Y-94795790D01*
X148201339Y-94795790D02*
X148201339Y-94938647D01*
X148201339Y-94938647D02*
X148153720Y-95129123D01*
X148153720Y-95129123D02*
X148106101Y-95224361D01*
X148106101Y-95224361D02*
X148010863Y-95319600D01*
X148010863Y-95319600D02*
X147868006Y-95367219D01*
X147868006Y-95367219D02*
X147629911Y-95367219D01*
D12*
X137161760Y-100188007D02*
X137114141Y-100235627D01*
X137114141Y-100235627D02*
X136971284Y-100283246D01*
X136971284Y-100283246D02*
X136876046Y-100283246D01*
X136876046Y-100283246D02*
X136733189Y-100235627D01*
X136733189Y-100235627D02*
X136637951Y-100140388D01*
X136637951Y-100140388D02*
X136590332Y-100045150D01*
X136590332Y-100045150D02*
X136542713Y-99854674D01*
X136542713Y-99854674D02*
X136542713Y-99711817D01*
X136542713Y-99711817D02*
X136590332Y-99521341D01*
X136590332Y-99521341D02*
X136637951Y-99426103D01*
X136637951Y-99426103D02*
X136733189Y-99330865D01*
X136733189Y-99330865D02*
X136876046Y-99283246D01*
X136876046Y-99283246D02*
X136971284Y-99283246D01*
X136971284Y-99283246D02*
X137114141Y-99330865D01*
X137114141Y-99330865D02*
X137161760Y-99378484D01*
X138066522Y-99283246D02*
X137590332Y-99283246D01*
X137590332Y-99283246D02*
X137542713Y-99759436D01*
X137542713Y-99759436D02*
X137590332Y-99711817D01*
X137590332Y-99711817D02*
X137685570Y-99664198D01*
X137685570Y-99664198D02*
X137923665Y-99664198D01*
X137923665Y-99664198D02*
X138018903Y-99711817D01*
X138018903Y-99711817D02*
X138066522Y-99759436D01*
X138066522Y-99759436D02*
X138114141Y-99854674D01*
X138114141Y-99854674D02*
X138114141Y-100092769D01*
X138114141Y-100092769D02*
X138066522Y-100188007D01*
X138066522Y-100188007D02*
X138018903Y-100235627D01*
X138018903Y-100235627D02*
X137923665Y-100283246D01*
X137923665Y-100283246D02*
X137685570Y-100283246D01*
X137685570Y-100283246D02*
X137590332Y-100235627D01*
X137590332Y-100235627D02*
X137542713Y-100188007D01*
X134833333Y-107339580D02*
X134785714Y-107387200D01*
X134785714Y-107387200D02*
X134642857Y-107434819D01*
X134642857Y-107434819D02*
X134547619Y-107434819D01*
X134547619Y-107434819D02*
X134404762Y-107387200D01*
X134404762Y-107387200D02*
X134309524Y-107291961D01*
X134309524Y-107291961D02*
X134261905Y-107196723D01*
X134261905Y-107196723D02*
X134214286Y-107006247D01*
X134214286Y-107006247D02*
X134214286Y-106863390D01*
X134214286Y-106863390D02*
X134261905Y-106672914D01*
X134261905Y-106672914D02*
X134309524Y-106577676D01*
X134309524Y-106577676D02*
X134404762Y-106482438D01*
X134404762Y-106482438D02*
X134547619Y-106434819D01*
X134547619Y-106434819D02*
X134642857Y-106434819D01*
X134642857Y-106434819D02*
X134785714Y-106482438D01*
X134785714Y-106482438D02*
X134833333Y-106530057D01*
X135309524Y-107434819D02*
X135500000Y-107434819D01*
X135500000Y-107434819D02*
X135595238Y-107387200D01*
X135595238Y-107387200D02*
X135642857Y-107339580D01*
X135642857Y-107339580D02*
X135738095Y-107196723D01*
X135738095Y-107196723D02*
X135785714Y-107006247D01*
X135785714Y-107006247D02*
X135785714Y-106625295D01*
X135785714Y-106625295D02*
X135738095Y-106530057D01*
X135738095Y-106530057D02*
X135690476Y-106482438D01*
X135690476Y-106482438D02*
X135595238Y-106434819D01*
X135595238Y-106434819D02*
X135404762Y-106434819D01*
X135404762Y-106434819D02*
X135309524Y-106482438D01*
X135309524Y-106482438D02*
X135261905Y-106530057D01*
X135261905Y-106530057D02*
X135214286Y-106625295D01*
X135214286Y-106625295D02*
X135214286Y-106863390D01*
X135214286Y-106863390D02*
X135261905Y-106958628D01*
X135261905Y-106958628D02*
X135309524Y-107006247D01*
X135309524Y-107006247D02*
X135404762Y-107053866D01*
X135404762Y-107053866D02*
X135595238Y-107053866D01*
X135595238Y-107053866D02*
X135690476Y-107006247D01*
X135690476Y-107006247D02*
X135738095Y-106958628D01*
X135738095Y-106958628D02*
X135785714Y-106863390D01*
X151833333Y-104954819D02*
X151500000Y-104478628D01*
X151261905Y-104954819D02*
X151261905Y-103954819D01*
X151261905Y-103954819D02*
X151642857Y-103954819D01*
X151642857Y-103954819D02*
X151738095Y-104002438D01*
X151738095Y-104002438D02*
X151785714Y-104050057D01*
X151785714Y-104050057D02*
X151833333Y-104145295D01*
X151833333Y-104145295D02*
X151833333Y-104288152D01*
X151833333Y-104288152D02*
X151785714Y-104383390D01*
X151785714Y-104383390D02*
X151738095Y-104431009D01*
X151738095Y-104431009D02*
X151642857Y-104478628D01*
X151642857Y-104478628D02*
X151261905Y-104478628D01*
X152214286Y-104050057D02*
X152261905Y-104002438D01*
X152261905Y-104002438D02*
X152357143Y-103954819D01*
X152357143Y-103954819D02*
X152595238Y-103954819D01*
X152595238Y-103954819D02*
X152690476Y-104002438D01*
X152690476Y-104002438D02*
X152738095Y-104050057D01*
X152738095Y-104050057D02*
X152785714Y-104145295D01*
X152785714Y-104145295D02*
X152785714Y-104240533D01*
X152785714Y-104240533D02*
X152738095Y-104383390D01*
X152738095Y-104383390D02*
X152166667Y-104954819D01*
X152166667Y-104954819D02*
X152785714Y-104954819D01*
X128661760Y-115188007D02*
X128614141Y-115235627D01*
X128614141Y-115235627D02*
X128471284Y-115283246D01*
X128471284Y-115283246D02*
X128376046Y-115283246D01*
X128376046Y-115283246D02*
X128233189Y-115235627D01*
X128233189Y-115235627D02*
X128137951Y-115140388D01*
X128137951Y-115140388D02*
X128090332Y-115045150D01*
X128090332Y-115045150D02*
X128042713Y-114854674D01*
X128042713Y-114854674D02*
X128042713Y-114711817D01*
X128042713Y-114711817D02*
X128090332Y-114521341D01*
X128090332Y-114521341D02*
X128137951Y-114426103D01*
X128137951Y-114426103D02*
X128233189Y-114330865D01*
X128233189Y-114330865D02*
X128376046Y-114283246D01*
X128376046Y-114283246D02*
X128471284Y-114283246D01*
X128471284Y-114283246D02*
X128614141Y-114330865D01*
X128614141Y-114330865D02*
X128661760Y-114378484D01*
X128995094Y-114283246D02*
X129661760Y-114283246D01*
X129661760Y-114283246D02*
X129233189Y-115283246D01*
X133181760Y-101188007D02*
X133134141Y-101235627D01*
X133134141Y-101235627D02*
X132991284Y-101283246D01*
X132991284Y-101283246D02*
X132896046Y-101283246D01*
X132896046Y-101283246D02*
X132753189Y-101235627D01*
X132753189Y-101235627D02*
X132657951Y-101140388D01*
X132657951Y-101140388D02*
X132610332Y-101045150D01*
X132610332Y-101045150D02*
X132562713Y-100854674D01*
X132562713Y-100854674D02*
X132562713Y-100711817D01*
X132562713Y-100711817D02*
X132610332Y-100521341D01*
X132610332Y-100521341D02*
X132657951Y-100426103D01*
X132657951Y-100426103D02*
X132753189Y-100330865D01*
X132753189Y-100330865D02*
X132896046Y-100283246D01*
X132896046Y-100283246D02*
X132991284Y-100283246D01*
X132991284Y-100283246D02*
X133134141Y-100330865D01*
X133134141Y-100330865D02*
X133181760Y-100378484D01*
X133562713Y-100378484D02*
X133610332Y-100330865D01*
X133610332Y-100330865D02*
X133705570Y-100283246D01*
X133705570Y-100283246D02*
X133943665Y-100283246D01*
X133943665Y-100283246D02*
X134038903Y-100330865D01*
X134038903Y-100330865D02*
X134086522Y-100378484D01*
X134086522Y-100378484D02*
X134134141Y-100473722D01*
X134134141Y-100473722D02*
X134134141Y-100568960D01*
X134134141Y-100568960D02*
X134086522Y-100711817D01*
X134086522Y-100711817D02*
X133515094Y-101283246D01*
X133515094Y-101283246D02*
X134134141Y-101283246D01*
X156066522Y-110283246D02*
X156066522Y-111092769D01*
X156066522Y-111092769D02*
X156114141Y-111188007D01*
X156114141Y-111188007D02*
X156161760Y-111235627D01*
X156161760Y-111235627D02*
X156256998Y-111283246D01*
X156256998Y-111283246D02*
X156447474Y-111283246D01*
X156447474Y-111283246D02*
X156542712Y-111235627D01*
X156542712Y-111235627D02*
X156590331Y-111188007D01*
X156590331Y-111188007D02*
X156637950Y-111092769D01*
X156637950Y-111092769D02*
X156637950Y-110283246D01*
X157066522Y-110378484D02*
X157114141Y-110330865D01*
X157114141Y-110330865D02*
X157209379Y-110283246D01*
X157209379Y-110283246D02*
X157447474Y-110283246D01*
X157447474Y-110283246D02*
X157542712Y-110330865D01*
X157542712Y-110330865D02*
X157590331Y-110378484D01*
X157590331Y-110378484D02*
X157637950Y-110473722D01*
X157637950Y-110473722D02*
X157637950Y-110568960D01*
X157637950Y-110568960D02*
X157590331Y-110711817D01*
X157590331Y-110711817D02*
X157018903Y-111283246D01*
X157018903Y-111283246D02*
X157637950Y-111283246D01*
X135161760Y-110688007D02*
X135114141Y-110735627D01*
X135114141Y-110735627D02*
X134971284Y-110783246D01*
X134971284Y-110783246D02*
X134876046Y-110783246D01*
X134876046Y-110783246D02*
X134733189Y-110735627D01*
X134733189Y-110735627D02*
X134637951Y-110640388D01*
X134637951Y-110640388D02*
X134590332Y-110545150D01*
X134590332Y-110545150D02*
X134542713Y-110354674D01*
X134542713Y-110354674D02*
X134542713Y-110211817D01*
X134542713Y-110211817D02*
X134590332Y-110021341D01*
X134590332Y-110021341D02*
X134637951Y-109926103D01*
X134637951Y-109926103D02*
X134733189Y-109830865D01*
X134733189Y-109830865D02*
X134876046Y-109783246D01*
X134876046Y-109783246D02*
X134971284Y-109783246D01*
X134971284Y-109783246D02*
X135114141Y-109830865D01*
X135114141Y-109830865D02*
X135161760Y-109878484D01*
X136018903Y-109783246D02*
X135828427Y-109783246D01*
X135828427Y-109783246D02*
X135733189Y-109830865D01*
X135733189Y-109830865D02*
X135685570Y-109878484D01*
X135685570Y-109878484D02*
X135590332Y-110021341D01*
X135590332Y-110021341D02*
X135542713Y-110211817D01*
X135542713Y-110211817D02*
X135542713Y-110592769D01*
X135542713Y-110592769D02*
X135590332Y-110688007D01*
X135590332Y-110688007D02*
X135637951Y-110735627D01*
X135637951Y-110735627D02*
X135733189Y-110783246D01*
X135733189Y-110783246D02*
X135923665Y-110783246D01*
X135923665Y-110783246D02*
X136018903Y-110735627D01*
X136018903Y-110735627D02*
X136066522Y-110688007D01*
X136066522Y-110688007D02*
X136114141Y-110592769D01*
X136114141Y-110592769D02*
X136114141Y-110354674D01*
X136114141Y-110354674D02*
X136066522Y-110259436D01*
X136066522Y-110259436D02*
X136018903Y-110211817D01*
X136018903Y-110211817D02*
X135923665Y-110164198D01*
X135923665Y-110164198D02*
X135733189Y-110164198D01*
X135733189Y-110164198D02*
X135637951Y-110211817D01*
X135637951Y-110211817D02*
X135590332Y-110259436D01*
X135590332Y-110259436D02*
X135542713Y-110354674D01*
X128123809Y-108057055D02*
X128123809Y-108533246D01*
X127790476Y-107533246D02*
X128123809Y-108057055D01*
X128123809Y-108057055D02*
X128457142Y-107533246D01*
X129314285Y-108533246D02*
X128742857Y-108533246D01*
X129028571Y-108533246D02*
X129028571Y-107533246D01*
X129028571Y-107533246D02*
X128933333Y-107676103D01*
X128933333Y-107676103D02*
X128838095Y-107771341D01*
X128838095Y-107771341D02*
X128742857Y-107818960D01*
X147090332Y-112783246D02*
X147090332Y-111783246D01*
X147090332Y-111783246D02*
X147328427Y-111783246D01*
X147328427Y-111783246D02*
X147471284Y-111830865D01*
X147471284Y-111830865D02*
X147566522Y-111926103D01*
X147566522Y-111926103D02*
X147614141Y-112021341D01*
X147614141Y-112021341D02*
X147661760Y-112211817D01*
X147661760Y-112211817D02*
X147661760Y-112354674D01*
X147661760Y-112354674D02*
X147614141Y-112545150D01*
X147614141Y-112545150D02*
X147566522Y-112640388D01*
X147566522Y-112640388D02*
X147471284Y-112735627D01*
X147471284Y-112735627D02*
X147328427Y-112783246D01*
X147328427Y-112783246D02*
X147090332Y-112783246D01*
X148614141Y-112783246D02*
X148042713Y-112783246D01*
X148328427Y-112783246D02*
X148328427Y-111783246D01*
X148328427Y-111783246D02*
X148233189Y-111926103D01*
X148233189Y-111926103D02*
X148137951Y-112021341D01*
X148137951Y-112021341D02*
X148042713Y-112068960D01*
X153661760Y-110613246D02*
X153328427Y-110137055D01*
X153090332Y-110613246D02*
X153090332Y-109613246D01*
X153090332Y-109613246D02*
X153471284Y-109613246D01*
X153471284Y-109613246D02*
X153566522Y-109660865D01*
X153566522Y-109660865D02*
X153614141Y-109708484D01*
X153614141Y-109708484D02*
X153661760Y-109803722D01*
X153661760Y-109803722D02*
X153661760Y-109946579D01*
X153661760Y-109946579D02*
X153614141Y-110041817D01*
X153614141Y-110041817D02*
X153566522Y-110089436D01*
X153566522Y-110089436D02*
X153471284Y-110137055D01*
X153471284Y-110137055D02*
X153090332Y-110137055D01*
X153995094Y-109613246D02*
X154614141Y-109613246D01*
X154614141Y-109613246D02*
X154280808Y-109994198D01*
X154280808Y-109994198D02*
X154423665Y-109994198D01*
X154423665Y-109994198D02*
X154518903Y-110041817D01*
X154518903Y-110041817D02*
X154566522Y-110089436D01*
X154566522Y-110089436D02*
X154614141Y-110184674D01*
X154614141Y-110184674D02*
X154614141Y-110422769D01*
X154614141Y-110422769D02*
X154566522Y-110518007D01*
X154566522Y-110518007D02*
X154518903Y-110565627D01*
X154518903Y-110565627D02*
X154423665Y-110613246D01*
X154423665Y-110613246D02*
X154137951Y-110613246D01*
X154137951Y-110613246D02*
X154042713Y-110565627D01*
X154042713Y-110565627D02*
X153995094Y-110518007D01*
X145833333Y-114859580D02*
X145785714Y-114907200D01*
X145785714Y-114907200D02*
X145642857Y-114954819D01*
X145642857Y-114954819D02*
X145547619Y-114954819D01*
X145547619Y-114954819D02*
X145404762Y-114907200D01*
X145404762Y-114907200D02*
X145309524Y-114811961D01*
X145309524Y-114811961D02*
X145261905Y-114716723D01*
X145261905Y-114716723D02*
X145214286Y-114526247D01*
X145214286Y-114526247D02*
X145214286Y-114383390D01*
X145214286Y-114383390D02*
X145261905Y-114192914D01*
X145261905Y-114192914D02*
X145309524Y-114097676D01*
X145309524Y-114097676D02*
X145404762Y-114002438D01*
X145404762Y-114002438D02*
X145547619Y-113954819D01*
X145547619Y-113954819D02*
X145642857Y-113954819D01*
X145642857Y-113954819D02*
X145785714Y-114002438D01*
X145785714Y-114002438D02*
X145833333Y-114050057D01*
X146404762Y-114383390D02*
X146309524Y-114335771D01*
X146309524Y-114335771D02*
X146261905Y-114288152D01*
X146261905Y-114288152D02*
X146214286Y-114192914D01*
X146214286Y-114192914D02*
X146214286Y-114145295D01*
X146214286Y-114145295D02*
X146261905Y-114050057D01*
X146261905Y-114050057D02*
X146309524Y-114002438D01*
X146309524Y-114002438D02*
X146404762Y-113954819D01*
X146404762Y-113954819D02*
X146595238Y-113954819D01*
X146595238Y-113954819D02*
X146690476Y-114002438D01*
X146690476Y-114002438D02*
X146738095Y-114050057D01*
X146738095Y-114050057D02*
X146785714Y-114145295D01*
X146785714Y-114145295D02*
X146785714Y-114192914D01*
X146785714Y-114192914D02*
X146738095Y-114288152D01*
X146738095Y-114288152D02*
X146690476Y-114335771D01*
X146690476Y-114335771D02*
X146595238Y-114383390D01*
X146595238Y-114383390D02*
X146404762Y-114383390D01*
X146404762Y-114383390D02*
X146309524Y-114431009D01*
X146309524Y-114431009D02*
X146261905Y-114478628D01*
X146261905Y-114478628D02*
X146214286Y-114573866D01*
X146214286Y-114573866D02*
X146214286Y-114764342D01*
X146214286Y-114764342D02*
X146261905Y-114859580D01*
X146261905Y-114859580D02*
X146309524Y-114907200D01*
X146309524Y-114907200D02*
X146404762Y-114954819D01*
X146404762Y-114954819D02*
X146595238Y-114954819D01*
X146595238Y-114954819D02*
X146690476Y-114907200D01*
X146690476Y-114907200D02*
X146738095Y-114859580D01*
X146738095Y-114859580D02*
X146785714Y-114764342D01*
X146785714Y-114764342D02*
X146785714Y-114573866D01*
X146785714Y-114573866D02*
X146738095Y-114478628D01*
X146738095Y-114478628D02*
X146690476Y-114431009D01*
X146690476Y-114431009D02*
X146595238Y-114383390D01*
X129185569Y-113188007D02*
X129137950Y-113235627D01*
X129137950Y-113235627D02*
X128995093Y-113283246D01*
X128995093Y-113283246D02*
X128899855Y-113283246D01*
X128899855Y-113283246D02*
X128756998Y-113235627D01*
X128756998Y-113235627D02*
X128661760Y-113140388D01*
X128661760Y-113140388D02*
X128614141Y-113045150D01*
X128614141Y-113045150D02*
X128566522Y-112854674D01*
X128566522Y-112854674D02*
X128566522Y-112711817D01*
X128566522Y-112711817D02*
X128614141Y-112521341D01*
X128614141Y-112521341D02*
X128661760Y-112426103D01*
X128661760Y-112426103D02*
X128756998Y-112330865D01*
X128756998Y-112330865D02*
X128899855Y-112283246D01*
X128899855Y-112283246D02*
X128995093Y-112283246D01*
X128995093Y-112283246D02*
X129137950Y-112330865D01*
X129137950Y-112330865D02*
X129185569Y-112378484D01*
X130137950Y-113283246D02*
X129566522Y-113283246D01*
X129852236Y-113283246D02*
X129852236Y-112283246D01*
X129852236Y-112283246D02*
X129756998Y-112426103D01*
X129756998Y-112426103D02*
X129661760Y-112521341D01*
X129661760Y-112521341D02*
X129566522Y-112568960D01*
X130756998Y-112283246D02*
X130852236Y-112283246D01*
X130852236Y-112283246D02*
X130947474Y-112330865D01*
X130947474Y-112330865D02*
X130995093Y-112378484D01*
X130995093Y-112378484D02*
X131042712Y-112473722D01*
X131042712Y-112473722D02*
X131090331Y-112664198D01*
X131090331Y-112664198D02*
X131090331Y-112902293D01*
X131090331Y-112902293D02*
X131042712Y-113092769D01*
X131042712Y-113092769D02*
X130995093Y-113188007D01*
X130995093Y-113188007D02*
X130947474Y-113235627D01*
X130947474Y-113235627D02*
X130852236Y-113283246D01*
X130852236Y-113283246D02*
X130756998Y-113283246D01*
X130756998Y-113283246D02*
X130661760Y-113235627D01*
X130661760Y-113235627D02*
X130614141Y-113188007D01*
X130614141Y-113188007D02*
X130566522Y-113092769D01*
X130566522Y-113092769D02*
X130518903Y-112902293D01*
X130518903Y-112902293D02*
X130518903Y-112664198D01*
X130518903Y-112664198D02*
X130566522Y-112473722D01*
X130566522Y-112473722D02*
X130614141Y-112378484D01*
X130614141Y-112378484D02*
X130661760Y-112330865D01*
X130661760Y-112330865D02*
X130756998Y-112283246D01*
X133161760Y-105688007D02*
X133114141Y-105735627D01*
X133114141Y-105735627D02*
X132971284Y-105783246D01*
X132971284Y-105783246D02*
X132876046Y-105783246D01*
X132876046Y-105783246D02*
X132733189Y-105735627D01*
X132733189Y-105735627D02*
X132637951Y-105640388D01*
X132637951Y-105640388D02*
X132590332Y-105545150D01*
X132590332Y-105545150D02*
X132542713Y-105354674D01*
X132542713Y-105354674D02*
X132542713Y-105211817D01*
X132542713Y-105211817D02*
X132590332Y-105021341D01*
X132590332Y-105021341D02*
X132637951Y-104926103D01*
X132637951Y-104926103D02*
X132733189Y-104830865D01*
X132733189Y-104830865D02*
X132876046Y-104783246D01*
X132876046Y-104783246D02*
X132971284Y-104783246D01*
X132971284Y-104783246D02*
X133114141Y-104830865D01*
X133114141Y-104830865D02*
X133161760Y-104878484D01*
X134018903Y-105116579D02*
X134018903Y-105783246D01*
X133780808Y-104735627D02*
X133542713Y-105449912D01*
X133542713Y-105449912D02*
X134161760Y-105449912D01*
X136166666Y-112931009D02*
X135833333Y-112931009D01*
X135833333Y-113454819D02*
X135833333Y-112454819D01*
X135833333Y-112454819D02*
X136309523Y-112454819D01*
X137023809Y-112931009D02*
X137166666Y-112978628D01*
X137166666Y-112978628D02*
X137214285Y-113026247D01*
X137214285Y-113026247D02*
X137261904Y-113121485D01*
X137261904Y-113121485D02*
X137261904Y-113264342D01*
X137261904Y-113264342D02*
X137214285Y-113359580D01*
X137214285Y-113359580D02*
X137166666Y-113407200D01*
X137166666Y-113407200D02*
X137071428Y-113454819D01*
X137071428Y-113454819D02*
X136690476Y-113454819D01*
X136690476Y-113454819D02*
X136690476Y-112454819D01*
X136690476Y-112454819D02*
X137023809Y-112454819D01*
X137023809Y-112454819D02*
X137119047Y-112502438D01*
X137119047Y-112502438D02*
X137166666Y-112550057D01*
X137166666Y-112550057D02*
X137214285Y-112645295D01*
X137214285Y-112645295D02*
X137214285Y-112740533D01*
X137214285Y-112740533D02*
X137166666Y-112835771D01*
X137166666Y-112835771D02*
X137119047Y-112883390D01*
X137119047Y-112883390D02*
X137023809Y-112931009D01*
X137023809Y-112931009D02*
X136690476Y-112931009D01*
X138214285Y-113454819D02*
X137642857Y-113454819D01*
X137928571Y-113454819D02*
X137928571Y-112454819D01*
X137928571Y-112454819D02*
X137833333Y-112597676D01*
X137833333Y-112597676D02*
X137738095Y-112692914D01*
X137738095Y-112692914D02*
X137642857Y-112740533D01*
X132651760Y-98783246D02*
X132318427Y-98307055D01*
X132080332Y-98783246D02*
X132080332Y-97783246D01*
X132080332Y-97783246D02*
X132461284Y-97783246D01*
X132461284Y-97783246D02*
X132556522Y-97830865D01*
X132556522Y-97830865D02*
X132604141Y-97878484D01*
X132604141Y-97878484D02*
X132651760Y-97973722D01*
X132651760Y-97973722D02*
X132651760Y-98116579D01*
X132651760Y-98116579D02*
X132604141Y-98211817D01*
X132604141Y-98211817D02*
X132556522Y-98259436D01*
X132556522Y-98259436D02*
X132461284Y-98307055D01*
X132461284Y-98307055D02*
X132080332Y-98307055D01*
X133604141Y-98783246D02*
X133032713Y-98783246D01*
X133318427Y-98783246D02*
X133318427Y-97783246D01*
X133318427Y-97783246D02*
X133223189Y-97926103D01*
X133223189Y-97926103D02*
X133127951Y-98021341D01*
X133127951Y-98021341D02*
X133032713Y-98068960D01*
X156185569Y-118868007D02*
X156137950Y-118915627D01*
X156137950Y-118915627D02*
X155995093Y-118963246D01*
X155995093Y-118963246D02*
X155899855Y-118963246D01*
X155899855Y-118963246D02*
X155756998Y-118915627D01*
X155756998Y-118915627D02*
X155661760Y-118820388D01*
X155661760Y-118820388D02*
X155614141Y-118725150D01*
X155614141Y-118725150D02*
X155566522Y-118534674D01*
X155566522Y-118534674D02*
X155566522Y-118391817D01*
X155566522Y-118391817D02*
X155614141Y-118201341D01*
X155614141Y-118201341D02*
X155661760Y-118106103D01*
X155661760Y-118106103D02*
X155756998Y-118010865D01*
X155756998Y-118010865D02*
X155899855Y-117963246D01*
X155899855Y-117963246D02*
X155995093Y-117963246D01*
X155995093Y-117963246D02*
X156137950Y-118010865D01*
X156137950Y-118010865D02*
X156185569Y-118058484D01*
X157137950Y-118963246D02*
X156566522Y-118963246D01*
X156852236Y-118963246D02*
X156852236Y-117963246D01*
X156852236Y-117963246D02*
X156756998Y-118106103D01*
X156756998Y-118106103D02*
X156661760Y-118201341D01*
X156661760Y-118201341D02*
X156566522Y-118248960D01*
X157518903Y-118058484D02*
X157566522Y-118010865D01*
X157566522Y-118010865D02*
X157661760Y-117963246D01*
X157661760Y-117963246D02*
X157899855Y-117963246D01*
X157899855Y-117963246D02*
X157995093Y-118010865D01*
X157995093Y-118010865D02*
X158042712Y-118058484D01*
X158042712Y-118058484D02*
X158090331Y-118153722D01*
X158090331Y-118153722D02*
X158090331Y-118248960D01*
X158090331Y-118248960D02*
X158042712Y-118391817D01*
X158042712Y-118391817D02*
X157471284Y-118963246D01*
X157471284Y-118963246D02*
X158090331Y-118963246D01*
X154185569Y-113188007D02*
X154137950Y-113235627D01*
X154137950Y-113235627D02*
X153995093Y-113283246D01*
X153995093Y-113283246D02*
X153899855Y-113283246D01*
X153899855Y-113283246D02*
X153756998Y-113235627D01*
X153756998Y-113235627D02*
X153661760Y-113140388D01*
X153661760Y-113140388D02*
X153614141Y-113045150D01*
X153614141Y-113045150D02*
X153566522Y-112854674D01*
X153566522Y-112854674D02*
X153566522Y-112711817D01*
X153566522Y-112711817D02*
X153614141Y-112521341D01*
X153614141Y-112521341D02*
X153661760Y-112426103D01*
X153661760Y-112426103D02*
X153756998Y-112330865D01*
X153756998Y-112330865D02*
X153899855Y-112283246D01*
X153899855Y-112283246D02*
X153995093Y-112283246D01*
X153995093Y-112283246D02*
X154137950Y-112330865D01*
X154137950Y-112330865D02*
X154185569Y-112378484D01*
X155137950Y-113283246D02*
X154566522Y-113283246D01*
X154852236Y-113283246D02*
X154852236Y-112283246D01*
X154852236Y-112283246D02*
X154756998Y-112426103D01*
X154756998Y-112426103D02*
X154661760Y-112521341D01*
X154661760Y-112521341D02*
X154566522Y-112568960D01*
X155471284Y-112283246D02*
X156090331Y-112283246D01*
X156090331Y-112283246D02*
X155756998Y-112664198D01*
X155756998Y-112664198D02*
X155899855Y-112664198D01*
X155899855Y-112664198D02*
X155995093Y-112711817D01*
X155995093Y-112711817D02*
X156042712Y-112759436D01*
X156042712Y-112759436D02*
X156090331Y-112854674D01*
X156090331Y-112854674D02*
X156090331Y-113092769D01*
X156090331Y-113092769D02*
X156042712Y-113188007D01*
X156042712Y-113188007D02*
X155995093Y-113235627D01*
X155995093Y-113235627D02*
X155899855Y-113283246D01*
X155899855Y-113283246D02*
X155614141Y-113283246D01*
X155614141Y-113283246D02*
X155518903Y-113235627D01*
X155518903Y-113235627D02*
X155471284Y-113188007D01*
X141066522Y-101433246D02*
X141066522Y-102242769D01*
X141066522Y-102242769D02*
X141114141Y-102338007D01*
X141114141Y-102338007D02*
X141161760Y-102385627D01*
X141161760Y-102385627D02*
X141256998Y-102433246D01*
X141256998Y-102433246D02*
X141447474Y-102433246D01*
X141447474Y-102433246D02*
X141542712Y-102385627D01*
X141542712Y-102385627D02*
X141590331Y-102338007D01*
X141590331Y-102338007D02*
X141637950Y-102242769D01*
X141637950Y-102242769D02*
X141637950Y-101433246D01*
X142637950Y-102433246D02*
X142066522Y-102433246D01*
X142352236Y-102433246D02*
X142352236Y-101433246D01*
X142352236Y-101433246D02*
X142256998Y-101576103D01*
X142256998Y-101576103D02*
X142161760Y-101671341D01*
X142161760Y-101671341D02*
X142066522Y-101718960D01*
X132185569Y-113188007D02*
X132137950Y-113235627D01*
X132137950Y-113235627D02*
X131995093Y-113283246D01*
X131995093Y-113283246D02*
X131899855Y-113283246D01*
X131899855Y-113283246D02*
X131756998Y-113235627D01*
X131756998Y-113235627D02*
X131661760Y-113140388D01*
X131661760Y-113140388D02*
X131614141Y-113045150D01*
X131614141Y-113045150D02*
X131566522Y-112854674D01*
X131566522Y-112854674D02*
X131566522Y-112711817D01*
X131566522Y-112711817D02*
X131614141Y-112521341D01*
X131614141Y-112521341D02*
X131661760Y-112426103D01*
X131661760Y-112426103D02*
X131756998Y-112330865D01*
X131756998Y-112330865D02*
X131899855Y-112283246D01*
X131899855Y-112283246D02*
X131995093Y-112283246D01*
X131995093Y-112283246D02*
X132137950Y-112330865D01*
X132137950Y-112330865D02*
X132185569Y-112378484D01*
X133137950Y-113283246D02*
X132566522Y-113283246D01*
X132852236Y-113283246D02*
X132852236Y-112283246D01*
X132852236Y-112283246D02*
X132756998Y-112426103D01*
X132756998Y-112426103D02*
X132661760Y-112521341D01*
X132661760Y-112521341D02*
X132566522Y-112568960D01*
X134090331Y-113283246D02*
X133518903Y-113283246D01*
X133804617Y-113283246D02*
X133804617Y-112283246D01*
X133804617Y-112283246D02*
X133709379Y-112426103D01*
X133709379Y-112426103D02*
X133614141Y-112521341D01*
X133614141Y-112521341D02*
X133518903Y-112568960D01*
X151333333Y-115454819D02*
X151000000Y-114978628D01*
X150761905Y-115454819D02*
X150761905Y-114454819D01*
X150761905Y-114454819D02*
X151142857Y-114454819D01*
X151142857Y-114454819D02*
X151238095Y-114502438D01*
X151238095Y-114502438D02*
X151285714Y-114550057D01*
X151285714Y-114550057D02*
X151333333Y-114645295D01*
X151333333Y-114645295D02*
X151333333Y-114788152D01*
X151333333Y-114788152D02*
X151285714Y-114883390D01*
X151285714Y-114883390D02*
X151238095Y-114931009D01*
X151238095Y-114931009D02*
X151142857Y-114978628D01*
X151142857Y-114978628D02*
X150761905Y-114978628D01*
X152190476Y-114788152D02*
X152190476Y-115454819D01*
X151952381Y-114407200D02*
X151714286Y-115121485D01*
X151714286Y-115121485D02*
X152333333Y-115121485D01*
X133161760Y-102688007D02*
X133114141Y-102735627D01*
X133114141Y-102735627D02*
X132971284Y-102783246D01*
X132971284Y-102783246D02*
X132876046Y-102783246D01*
X132876046Y-102783246D02*
X132733189Y-102735627D01*
X132733189Y-102735627D02*
X132637951Y-102640388D01*
X132637951Y-102640388D02*
X132590332Y-102545150D01*
X132590332Y-102545150D02*
X132542713Y-102354674D01*
X132542713Y-102354674D02*
X132542713Y-102211817D01*
X132542713Y-102211817D02*
X132590332Y-102021341D01*
X132590332Y-102021341D02*
X132637951Y-101926103D01*
X132637951Y-101926103D02*
X132733189Y-101830865D01*
X132733189Y-101830865D02*
X132876046Y-101783246D01*
X132876046Y-101783246D02*
X132971284Y-101783246D01*
X132971284Y-101783246D02*
X133114141Y-101830865D01*
X133114141Y-101830865D02*
X133161760Y-101878484D01*
X134114141Y-102783246D02*
X133542713Y-102783246D01*
X133828427Y-102783246D02*
X133828427Y-101783246D01*
X133828427Y-101783246D02*
X133733189Y-101926103D01*
X133733189Y-101926103D02*
X133637951Y-102021341D01*
X133637951Y-102021341D02*
X133542713Y-102068960D01*
X133161760Y-104188007D02*
X133114141Y-104235627D01*
X133114141Y-104235627D02*
X132971284Y-104283246D01*
X132971284Y-104283246D02*
X132876046Y-104283246D01*
X132876046Y-104283246D02*
X132733189Y-104235627D01*
X132733189Y-104235627D02*
X132637951Y-104140388D01*
X132637951Y-104140388D02*
X132590332Y-104045150D01*
X132590332Y-104045150D02*
X132542713Y-103854674D01*
X132542713Y-103854674D02*
X132542713Y-103711817D01*
X132542713Y-103711817D02*
X132590332Y-103521341D01*
X132590332Y-103521341D02*
X132637951Y-103426103D01*
X132637951Y-103426103D02*
X132733189Y-103330865D01*
X132733189Y-103330865D02*
X132876046Y-103283246D01*
X132876046Y-103283246D02*
X132971284Y-103283246D01*
X132971284Y-103283246D02*
X133114141Y-103330865D01*
X133114141Y-103330865D02*
X133161760Y-103378484D01*
X133495094Y-103283246D02*
X134114141Y-103283246D01*
X134114141Y-103283246D02*
X133780808Y-103664198D01*
X133780808Y-103664198D02*
X133923665Y-103664198D01*
X133923665Y-103664198D02*
X134018903Y-103711817D01*
X134018903Y-103711817D02*
X134066522Y-103759436D01*
X134066522Y-103759436D02*
X134114141Y-103854674D01*
X134114141Y-103854674D02*
X134114141Y-104092769D01*
X134114141Y-104092769D02*
X134066522Y-104188007D01*
X134066522Y-104188007D02*
X134018903Y-104235627D01*
X134018903Y-104235627D02*
X133923665Y-104283246D01*
X133923665Y-104283246D02*
X133637951Y-104283246D01*
X133637951Y-104283246D02*
X133542713Y-104235627D01*
X133542713Y-104235627D02*
X133495094Y-104188007D01*
X139333333Y-115954819D02*
X139000000Y-115478628D01*
X138761905Y-115954819D02*
X138761905Y-114954819D01*
X138761905Y-114954819D02*
X139142857Y-114954819D01*
X139142857Y-114954819D02*
X139238095Y-115002438D01*
X139238095Y-115002438D02*
X139285714Y-115050057D01*
X139285714Y-115050057D02*
X139333333Y-115145295D01*
X139333333Y-115145295D02*
X139333333Y-115288152D01*
X139333333Y-115288152D02*
X139285714Y-115383390D01*
X139285714Y-115383390D02*
X139238095Y-115431009D01*
X139238095Y-115431009D02*
X139142857Y-115478628D01*
X139142857Y-115478628D02*
X138761905Y-115478628D01*
X140238095Y-114954819D02*
X139761905Y-114954819D01*
X139761905Y-114954819D02*
X139714286Y-115431009D01*
X139714286Y-115431009D02*
X139761905Y-115383390D01*
X139761905Y-115383390D02*
X139857143Y-115335771D01*
X139857143Y-115335771D02*
X140095238Y-115335771D01*
X140095238Y-115335771D02*
X140190476Y-115383390D01*
X140190476Y-115383390D02*
X140238095Y-115431009D01*
X140238095Y-115431009D02*
X140285714Y-115526247D01*
X140285714Y-115526247D02*
X140285714Y-115764342D01*
X140285714Y-115764342D02*
X140238095Y-115859580D01*
X140238095Y-115859580D02*
X140190476Y-115907200D01*
X140190476Y-115907200D02*
X140095238Y-115954819D01*
X140095238Y-115954819D02*
X139857143Y-115954819D01*
X139857143Y-115954819D02*
X139761905Y-115907200D01*
X139761905Y-115907200D02*
X139714286Y-115859580D01*
D13*
%TO.C,C5*%
X136818427Y-101687847D02*
X136818427Y-101969007D01*
X137838427Y-101687847D02*
X137838427Y-101969007D01*
%TO.C,C9*%
X134640000Y-108392164D02*
X134640000Y-108607836D01*
X135360000Y-108392164D02*
X135360000Y-108607836D01*
D12*
%TO.C,J1*%
X160420000Y-101903427D02*
X160420000Y-102628427D01*
X160420000Y-102628427D02*
X160845000Y-102628427D01*
X160845000Y-99028427D02*
X160845000Y-98028427D01*
X160845000Y-102628427D02*
X160845000Y-103628427D01*
X162595000Y-104978427D02*
X163995000Y-104978427D01*
X163995000Y-96678427D02*
X162595000Y-96678427D01*
X166395000Y-104978427D02*
X166545000Y-104978427D01*
X166545000Y-96678427D02*
X166395000Y-96678427D01*
X166545000Y-96978427D02*
X166545000Y-96678427D01*
X166545000Y-104678427D02*
X166995000Y-104678427D01*
X166545000Y-104978427D02*
X166545000Y-104678427D01*
X166995000Y-96978427D02*
X166545000Y-96978427D01*
D13*
%TO.C,R2*%
X151620000Y-105846359D02*
X151620000Y-106153641D01*
X152380000Y-105846359D02*
X152380000Y-106153641D01*
%TO.C,C7*%
X129968427Y-114936263D02*
X129968427Y-114720591D01*
X130688427Y-114936263D02*
X130688427Y-114720591D01*
%TO.C,C2*%
X135436263Y-100468427D02*
X135220591Y-100468427D01*
X135436263Y-101188427D02*
X135220591Y-101188427D01*
%TO.C,J2*%
X145580000Y-90620000D02*
X145580000Y-93380000D01*
X153310000Y-90620000D02*
X145580000Y-90620000D01*
X153310000Y-90620000D02*
X153310000Y-93380000D01*
X153310000Y-93380000D02*
X145580000Y-93380000D01*
X154580000Y-90620000D02*
X155960000Y-90620000D01*
X155960000Y-90620000D02*
X155960000Y-92000000D01*
%TO.C,U2*%
X157918427Y-108918427D02*
X159178427Y-108918427D01*
X157918427Y-112678427D02*
X157918427Y-108918427D01*
X164738427Y-108918427D02*
X163478427Y-108918427D01*
X164738427Y-112678427D02*
X164738427Y-108918427D01*
X158018427Y-113958427D02*
X157688427Y-114198427D01*
X157688427Y-113718427D01*
X158018427Y-113958427D01*
G36*
X158018427Y-113958427D02*
G01*
X157688427Y-114198427D01*
X157688427Y-113718427D01*
X158018427Y-113958427D01*
G37*
%TO.C,SW1*%
X123600000Y-97978427D02*
X123600000Y-103678427D01*
X124610000Y-104278427D02*
X125400000Y-104278427D01*
X125400000Y-97378427D02*
X124610000Y-97378427D01*
X126450000Y-99228427D02*
X126450000Y-100928427D01*
X126450000Y-102228427D02*
X126450000Y-102428427D01*
D14*
%TO.C,REF\u002A\u002A*%
X153688614Y-101275877D02*
X153712327Y-101290647D01*
X153738978Y-101312227D01*
X153738978Y-101633773D01*
X153738893Y-101727830D01*
X153738529Y-101801932D01*
X153737724Y-101858704D01*
X153736313Y-101900768D01*
X153734133Y-101930748D01*
X153731021Y-101951267D01*
X153726814Y-101964949D01*
X153721348Y-101974416D01*
X153717472Y-101979082D01*
X153686034Y-101999575D01*
X153650233Y-101998739D01*
X153618873Y-101981264D01*
X153592222Y-101959684D01*
X153592222Y-101312227D01*
X153618873Y-101290647D01*
X153644594Y-101274949D01*
X153665600Y-101269067D01*
X153688614Y-101275877D01*
G36*
X153688614Y-101275877D02*
G01*
X153712327Y-101290647D01*
X153738978Y-101312227D01*
X153738978Y-101633773D01*
X153738893Y-101727830D01*
X153738529Y-101801932D01*
X153737724Y-101858704D01*
X153736313Y-101900768D01*
X153734133Y-101930748D01*
X153731021Y-101951267D01*
X153726814Y-101964949D01*
X153721348Y-101974416D01*
X153717472Y-101979082D01*
X153686034Y-101999575D01*
X153650233Y-101998739D01*
X153618873Y-101981264D01*
X153592222Y-101959684D01*
X153592222Y-101312227D01*
X153618873Y-101290647D01*
X153644594Y-101274949D01*
X153665600Y-101269067D01*
X153688614Y-101275877D01*
G37*
X146576178Y-101291645D02*
X146582758Y-101299218D01*
X146587921Y-101308987D01*
X146591836Y-101323571D01*
X146594676Y-101345585D01*
X146596613Y-101377648D01*
X146597817Y-101422375D01*
X146598461Y-101482385D01*
X146598716Y-101560294D01*
X146598755Y-101635956D01*
X146598686Y-101729802D01*
X146598362Y-101803689D01*
X146597614Y-101860232D01*
X146596268Y-101902049D01*
X146594154Y-101931757D01*
X146591100Y-101951973D01*
X146586934Y-101965314D01*
X146581484Y-101974398D01*
X146576178Y-101980267D01*
X146543174Y-101999947D01*
X146508009Y-101998181D01*
X146476545Y-101976717D01*
X146469316Y-101968337D01*
X146463666Y-101958614D01*
X146459401Y-101944861D01*
X146456327Y-101924389D01*
X146454248Y-101894512D01*
X146452970Y-101852541D01*
X146452299Y-101795789D01*
X146452041Y-101721567D01*
X146452000Y-101637537D01*
X146452000Y-101324485D01*
X146479709Y-101296776D01*
X146513863Y-101273463D01*
X146546994Y-101272623D01*
X146576178Y-101291645D01*
G36*
X146576178Y-101291645D02*
G01*
X146582758Y-101299218D01*
X146587921Y-101308987D01*
X146591836Y-101323571D01*
X146594676Y-101345585D01*
X146596613Y-101377648D01*
X146597817Y-101422375D01*
X146598461Y-101482385D01*
X146598716Y-101560294D01*
X146598755Y-101635956D01*
X146598686Y-101729802D01*
X146598362Y-101803689D01*
X146597614Y-101860232D01*
X146596268Y-101902049D01*
X146594154Y-101931757D01*
X146591100Y-101951973D01*
X146586934Y-101965314D01*
X146581484Y-101974398D01*
X146576178Y-101980267D01*
X146543174Y-101999947D01*
X146508009Y-101998181D01*
X146476545Y-101976717D01*
X146469316Y-101968337D01*
X146463666Y-101958614D01*
X146459401Y-101944861D01*
X146456327Y-101924389D01*
X146454248Y-101894512D01*
X146452970Y-101852541D01*
X146452299Y-101795789D01*
X146452041Y-101721567D01*
X146452000Y-101637537D01*
X146452000Y-101324485D01*
X146479709Y-101296776D01*
X146513863Y-101273463D01*
X146546994Y-101272623D01*
X146576178Y-101291645D01*
G37*
X147226957Y-96026571D02*
X147323232Y-96050809D01*
X147409816Y-96093641D01*
X147484627Y-96153419D01*
X147545582Y-96228494D01*
X147590601Y-96317220D01*
X147616864Y-96413530D01*
X147622714Y-96510795D01*
X147607860Y-96604654D01*
X147574160Y-96692511D01*
X147523472Y-96771770D01*
X147457655Y-96839836D01*
X147378566Y-96894112D01*
X147288066Y-96932002D01*
X147236800Y-96944426D01*
X147192302Y-96951947D01*
X147158001Y-96954919D01*
X147125040Y-96953094D01*
X147084566Y-96946225D01*
X147051469Y-96939250D01*
X146958053Y-96907741D01*
X146874381Y-96856617D01*
X146802335Y-96787429D01*
X146743800Y-96701728D01*
X146729852Y-96674489D01*
X146713414Y-96638122D01*
X146703106Y-96607582D01*
X146697540Y-96575450D01*
X146695331Y-96534307D01*
X146695052Y-96488222D01*
X146699139Y-96403865D01*
X146712554Y-96334586D01*
X146737744Y-96273961D01*
X146777154Y-96215567D01*
X146815702Y-96171302D01*
X146887594Y-96105484D01*
X146962687Y-96060053D01*
X147045438Y-96032850D01*
X147123072Y-96022576D01*
X147226957Y-96026571D01*
G36*
X147226957Y-96026571D02*
G01*
X147323232Y-96050809D01*
X147409816Y-96093641D01*
X147484627Y-96153419D01*
X147545582Y-96228494D01*
X147590601Y-96317220D01*
X147616864Y-96413530D01*
X147622714Y-96510795D01*
X147607860Y-96604654D01*
X147574160Y-96692511D01*
X147523472Y-96771770D01*
X147457655Y-96839836D01*
X147378566Y-96894112D01*
X147288066Y-96932002D01*
X147236800Y-96944426D01*
X147192302Y-96951947D01*
X147158001Y-96954919D01*
X147125040Y-96953094D01*
X147084566Y-96946225D01*
X147051469Y-96939250D01*
X146958053Y-96907741D01*
X146874381Y-96856617D01*
X146802335Y-96787429D01*
X146743800Y-96701728D01*
X146729852Y-96674489D01*
X146713414Y-96638122D01*
X146703106Y-96607582D01*
X146697540Y-96575450D01*
X146695331Y-96534307D01*
X146695052Y-96488222D01*
X146699139Y-96403865D01*
X146712554Y-96334586D01*
X146737744Y-96273961D01*
X146777154Y-96215567D01*
X146815702Y-96171302D01*
X146887594Y-96105484D01*
X146962687Y-96060053D01*
X147045438Y-96032850D01*
X147123072Y-96022576D01*
X147226957Y-96026571D01*
G37*
X154463065Y-101269163D02*
X154541772Y-101269542D01*
X154602863Y-101270333D01*
X154648817Y-101271670D01*
X154682114Y-101273683D01*
X154705236Y-101276506D01*
X154720662Y-101280269D01*
X154730871Y-101285105D01*
X154735813Y-101288822D01*
X154761457Y-101321358D01*
X154764559Y-101355138D01*
X154748711Y-101385826D01*
X154738348Y-101398089D01*
X154727196Y-101406450D01*
X154711035Y-101411657D01*
X154685642Y-101414457D01*
X154646798Y-101415596D01*
X154590280Y-101415821D01*
X154579180Y-101415822D01*
X154433244Y-101415822D01*
X154433244Y-101686756D01*
X154433148Y-101772154D01*
X154432711Y-101837864D01*
X154431712Y-101886774D01*
X154429928Y-101921773D01*
X154427137Y-101945749D01*
X154423117Y-101961593D01*
X154417645Y-101972191D01*
X154410666Y-101980267D01*
X154377734Y-102000112D01*
X154343354Y-101998548D01*
X154312176Y-101975906D01*
X154309886Y-101973100D01*
X154302429Y-101962492D01*
X154296747Y-101950081D01*
X154292601Y-101932850D01*
X154289750Y-101907784D01*
X154287954Y-101871867D01*
X154286972Y-101822083D01*
X154286564Y-101755417D01*
X154286489Y-101679589D01*
X154286489Y-101415822D01*
X154147127Y-101415822D01*
X154087322Y-101415418D01*
X154045918Y-101413840D01*
X154018748Y-101410547D01*
X154001646Y-101404992D01*
X153990443Y-101396631D01*
X153989083Y-101395178D01*
X153972725Y-101361939D01*
X153974172Y-101324362D01*
X153992978Y-101291645D01*
X154000250Y-101285298D01*
X154009627Y-101280266D01*
X154023609Y-101276396D01*
X154044696Y-101273537D01*
X154075389Y-101271535D01*
X154118189Y-101270239D01*
X154175595Y-101269498D01*
X154250110Y-101269158D01*
X154344233Y-101269068D01*
X154364260Y-101269067D01*
X154463065Y-101269163D01*
G36*
X154463065Y-101269163D02*
G01*
X154541772Y-101269542D01*
X154602863Y-101270333D01*
X154648817Y-101271670D01*
X154682114Y-101273683D01*
X154705236Y-101276506D01*
X154720662Y-101280269D01*
X154730871Y-101285105D01*
X154735813Y-101288822D01*
X154761457Y-101321358D01*
X154764559Y-101355138D01*
X154748711Y-101385826D01*
X154738348Y-101398089D01*
X154727196Y-101406450D01*
X154711035Y-101411657D01*
X154685642Y-101414457D01*
X154646798Y-101415596D01*
X154590280Y-101415821D01*
X154579180Y-101415822D01*
X154433244Y-101415822D01*
X154433244Y-101686756D01*
X154433148Y-101772154D01*
X154432711Y-101837864D01*
X154431712Y-101886774D01*
X154429928Y-101921773D01*
X154427137Y-101945749D01*
X154423117Y-101961593D01*
X154417645Y-101972191D01*
X154410666Y-101980267D01*
X154377734Y-102000112D01*
X154343354Y-101998548D01*
X154312176Y-101975906D01*
X154309886Y-101973100D01*
X154302429Y-101962492D01*
X154296747Y-101950081D01*
X154292601Y-101932850D01*
X154289750Y-101907784D01*
X154287954Y-101871867D01*
X154286972Y-101822083D01*
X154286564Y-101755417D01*
X154286489Y-101679589D01*
X154286489Y-101415822D01*
X154147127Y-101415822D01*
X154087322Y-101415418D01*
X154045918Y-101413840D01*
X154018748Y-101410547D01*
X154001646Y-101404992D01*
X153990443Y-101396631D01*
X153989083Y-101395178D01*
X153972725Y-101361939D01*
X153974172Y-101324362D01*
X153992978Y-101291645D01*
X154000250Y-101285298D01*
X154009627Y-101280266D01*
X154023609Y-101276396D01*
X154044696Y-101273537D01*
X154075389Y-101271535D01*
X154118189Y-101270239D01*
X154175595Y-101269498D01*
X154250110Y-101269158D01*
X154344233Y-101269068D01*
X154364260Y-101269067D01*
X154463065Y-101269163D01*
G37*
X155728823Y-101274533D02*
X155760202Y-101296776D01*
X155787911Y-101324485D01*
X155787911Y-101633920D01*
X155787838Y-101725799D01*
X155787495Y-101797840D01*
X155786692Y-101852780D01*
X155785241Y-101893360D01*
X155782952Y-101922317D01*
X155779636Y-101942391D01*
X155775105Y-101956321D01*
X155769169Y-101966845D01*
X155764514Y-101973100D01*
X155733783Y-101997673D01*
X155698496Y-102000341D01*
X155666245Y-101985271D01*
X155655588Y-101976374D01*
X155648464Y-101964557D01*
X155644167Y-101945526D01*
X155641991Y-101914992D01*
X155641228Y-101868662D01*
X155641155Y-101832871D01*
X155641155Y-101698045D01*
X155144444Y-101698045D01*
X155144444Y-101820700D01*
X155143931Y-101876787D01*
X155141876Y-101915333D01*
X155137508Y-101941361D01*
X155130056Y-101959897D01*
X155121047Y-101973100D01*
X155090144Y-101997604D01*
X155055196Y-102000506D01*
X155021738Y-101983089D01*
X155012604Y-101973959D01*
X155006152Y-101961855D01*
X155001897Y-101943001D01*
X154999352Y-101913620D01*
X154998029Y-101869937D01*
X154997443Y-101808175D01*
X154997375Y-101794000D01*
X154996891Y-101677631D01*
X154996641Y-101581727D01*
X154996723Y-101504177D01*
X154997231Y-101442869D01*
X154998262Y-101395690D01*
X154999913Y-101360530D01*
X155002279Y-101335276D01*
X155005457Y-101317817D01*
X155009544Y-101306041D01*
X155014634Y-101297835D01*
X155020266Y-101291645D01*
X155052128Y-101271844D01*
X155085357Y-101274533D01*
X155116735Y-101296776D01*
X155129433Y-101311126D01*
X155137526Y-101326978D01*
X155142042Y-101349554D01*
X155144006Y-101384078D01*
X155144444Y-101435776D01*
X155144444Y-101551289D01*
X155641155Y-101551289D01*
X155641155Y-101432756D01*
X155641662Y-101378148D01*
X155643698Y-101341275D01*
X155648035Y-101317307D01*
X155655447Y-101301415D01*
X155663733Y-101291645D01*
X155695594Y-101271844D01*
X155728823Y-101274533D01*
G36*
X155728823Y-101274533D02*
G01*
X155760202Y-101296776D01*
X155787911Y-101324485D01*
X155787911Y-101633920D01*
X155787838Y-101725799D01*
X155787495Y-101797840D01*
X155786692Y-101852780D01*
X155785241Y-101893360D01*
X155782952Y-101922317D01*
X155779636Y-101942391D01*
X155775105Y-101956321D01*
X155769169Y-101966845D01*
X155764514Y-101973100D01*
X155733783Y-101997673D01*
X155698496Y-102000341D01*
X155666245Y-101985271D01*
X155655588Y-101976374D01*
X155648464Y-101964557D01*
X155644167Y-101945526D01*
X155641991Y-101914992D01*
X155641228Y-101868662D01*
X155641155Y-101832871D01*
X155641155Y-101698045D01*
X155144444Y-101698045D01*
X155144444Y-101820700D01*
X155143931Y-101876787D01*
X155141876Y-101915333D01*
X155137508Y-101941361D01*
X155130056Y-101959897D01*
X155121047Y-101973100D01*
X155090144Y-101997604D01*
X155055196Y-102000506D01*
X155021738Y-101983089D01*
X155012604Y-101973959D01*
X155006152Y-101961855D01*
X155001897Y-101943001D01*
X154999352Y-101913620D01*
X154998029Y-101869937D01*
X154997443Y-101808175D01*
X154997375Y-101794000D01*
X154996891Y-101677631D01*
X154996641Y-101581727D01*
X154996723Y-101504177D01*
X154997231Y-101442869D01*
X154998262Y-101395690D01*
X154999913Y-101360530D01*
X155002279Y-101335276D01*
X155005457Y-101317817D01*
X155009544Y-101306041D01*
X155014634Y-101297835D01*
X155020266Y-101291645D01*
X155052128Y-101271844D01*
X155085357Y-101274533D01*
X155116735Y-101296776D01*
X155129433Y-101311126D01*
X155137526Y-101326978D01*
X155142042Y-101349554D01*
X155144006Y-101384078D01*
X155144444Y-101435776D01*
X155144444Y-101551289D01*
X155641155Y-101551289D01*
X155641155Y-101432756D01*
X155641662Y-101378148D01*
X155643698Y-101341275D01*
X155648035Y-101317307D01*
X155655447Y-101301415D01*
X155663733Y-101291645D01*
X155695594Y-101271844D01*
X155728823Y-101274533D01*
G37*
X150518309Y-101269275D02*
X150647288Y-101273636D01*
X150756991Y-101286861D01*
X150849226Y-101309741D01*
X150925802Y-101343070D01*
X150988527Y-101387638D01*
X151039212Y-101444236D01*
X151079663Y-101513658D01*
X151080459Y-101515351D01*
X151104601Y-101577483D01*
X151113203Y-101632509D01*
X151106231Y-101687887D01*
X151083654Y-101751073D01*
X151079372Y-101760689D01*
X151050172Y-101816966D01*
X151017356Y-101860451D01*
X150975002Y-101897417D01*
X150917190Y-101934135D01*
X150913831Y-101936052D01*
X150863504Y-101960227D01*
X150806621Y-101978282D01*
X150739527Y-101990839D01*
X150658565Y-101998522D01*
X150560082Y-102001953D01*
X150525286Y-102002251D01*
X150359594Y-102002845D01*
X150336197Y-101973100D01*
X150329257Y-101963319D01*
X150323842Y-101951897D01*
X150319765Y-101936095D01*
X150316837Y-101913175D01*
X150314867Y-101880396D01*
X150314225Y-101856089D01*
X150313668Y-101835021D01*
X150313050Y-101774311D01*
X150312825Y-101695526D01*
X150312800Y-101633920D01*
X150312800Y-101415822D01*
X150470844Y-101415822D01*
X150470844Y-101856089D01*
X150564726Y-101856089D01*
X150619664Y-101854483D01*
X150676060Y-101850255D01*
X150722345Y-101844292D01*
X150725139Y-101843790D01*
X150807348Y-101821736D01*
X150871114Y-101788600D01*
X150918452Y-101742847D01*
X150951382Y-101682939D01*
X150957108Y-101667061D01*
X150962721Y-101642333D01*
X150960291Y-101617902D01*
X150948467Y-101585400D01*
X150941340Y-101569434D01*
X150918000Y-101527006D01*
X150889880Y-101497240D01*
X150858940Y-101476511D01*
X150796966Y-101449537D01*
X150717651Y-101429998D01*
X150625253Y-101418746D01*
X150558333Y-101416270D01*
X150470844Y-101415822D01*
X150312800Y-101415822D01*
X150312800Y-101324485D01*
X150340509Y-101296776D01*
X150352806Y-101285544D01*
X150366103Y-101277853D01*
X150384672Y-101273040D01*
X150412786Y-101270446D01*
X150454717Y-101269410D01*
X150514737Y-101269270D01*
X150518309Y-101269275D01*
G36*
X150518309Y-101269275D02*
G01*
X150647288Y-101273636D01*
X150756991Y-101286861D01*
X150849226Y-101309741D01*
X150925802Y-101343070D01*
X150988527Y-101387638D01*
X151039212Y-101444236D01*
X151079663Y-101513658D01*
X151080459Y-101515351D01*
X151104601Y-101577483D01*
X151113203Y-101632509D01*
X151106231Y-101687887D01*
X151083654Y-101751073D01*
X151079372Y-101760689D01*
X151050172Y-101816966D01*
X151017356Y-101860451D01*
X150975002Y-101897417D01*
X150917190Y-101934135D01*
X150913831Y-101936052D01*
X150863504Y-101960227D01*
X150806621Y-101978282D01*
X150739527Y-101990839D01*
X150658565Y-101998522D01*
X150560082Y-102001953D01*
X150525286Y-102002251D01*
X150359594Y-102002845D01*
X150336197Y-101973100D01*
X150329257Y-101963319D01*
X150323842Y-101951897D01*
X150319765Y-101936095D01*
X150316837Y-101913175D01*
X150314867Y-101880396D01*
X150314225Y-101856089D01*
X150313668Y-101835021D01*
X150313050Y-101774311D01*
X150312825Y-101695526D01*
X150312800Y-101633920D01*
X150312800Y-101415822D01*
X150470844Y-101415822D01*
X150470844Y-101856089D01*
X150564726Y-101856089D01*
X150619664Y-101854483D01*
X150676060Y-101850255D01*
X150722345Y-101844292D01*
X150725139Y-101843790D01*
X150807348Y-101821736D01*
X150871114Y-101788600D01*
X150918452Y-101742847D01*
X150951382Y-101682939D01*
X150957108Y-101667061D01*
X150962721Y-101642333D01*
X150960291Y-101617902D01*
X150948467Y-101585400D01*
X150941340Y-101569434D01*
X150918000Y-101527006D01*
X150889880Y-101497240D01*
X150858940Y-101476511D01*
X150796966Y-101449537D01*
X150717651Y-101429998D01*
X150625253Y-101418746D01*
X150558333Y-101416270D01*
X150470844Y-101415822D01*
X150312800Y-101415822D01*
X150312800Y-101324485D01*
X150340509Y-101296776D01*
X150352806Y-101285544D01*
X150366103Y-101277853D01*
X150384672Y-101273040D01*
X150412786Y-101270446D01*
X150454717Y-101269410D01*
X150514737Y-101269270D01*
X150518309Y-101269275D01*
G37*
X143378629Y-101269066D02*
X143418111Y-101269467D01*
X143533800Y-101272259D01*
X143630689Y-101280550D01*
X143712081Y-101295232D01*
X143781277Y-101317193D01*
X143841580Y-101347322D01*
X143896292Y-101386510D01*
X143915833Y-101403532D01*
X143948250Y-101443363D01*
X143977480Y-101497413D01*
X144000009Y-101557323D01*
X144012321Y-101614739D01*
X144013600Y-101635956D01*
X144005583Y-101694769D01*
X143984101Y-101759013D01*
X143953001Y-101819821D01*
X143916134Y-101868330D01*
X143910146Y-101874182D01*
X143859421Y-101915321D01*
X143803875Y-101947435D01*
X143740304Y-101971365D01*
X143665506Y-101987953D01*
X143576278Y-101998041D01*
X143469418Y-102002469D01*
X143420472Y-102002845D01*
X143358238Y-102002545D01*
X143314472Y-102001292D01*
X143285069Y-101998554D01*
X143265921Y-101993801D01*
X143252923Y-101986501D01*
X143245955Y-101980267D01*
X143239374Y-101972694D01*
X143234212Y-101962924D01*
X143230297Y-101948340D01*
X143227457Y-101926326D01*
X143225520Y-101894264D01*
X143224492Y-101856089D01*
X143370133Y-101856089D01*
X143463266Y-101856004D01*
X143519307Y-101854396D01*
X143578001Y-101850256D01*
X143626972Y-101844464D01*
X143628462Y-101844226D01*
X143707608Y-101825090D01*
X143768998Y-101795287D01*
X143815695Y-101752878D01*
X143845365Y-101706961D01*
X143863647Y-101656026D01*
X143862229Y-101608200D01*
X143841012Y-101556933D01*
X143799511Y-101503899D01*
X143742002Y-101464600D01*
X143667250Y-101438331D01*
X143617292Y-101429035D01*
X143560584Y-101422507D01*
X143500481Y-101417782D01*
X143449361Y-101415817D01*
X143446333Y-101415808D01*
X143370133Y-101415822D01*
X143370133Y-101856089D01*
X143224492Y-101856089D01*
X143224316Y-101849536D01*
X143223672Y-101789526D01*
X143223417Y-101711617D01*
X143223378Y-101635956D01*
X143223130Y-101535041D01*
X143223183Y-101454427D01*
X143224143Y-101415822D01*
X143224740Y-101391851D01*
X143229002Y-101345055D01*
X143237170Y-101311778D01*
X143250444Y-101289759D01*
X143270026Y-101276739D01*
X143297117Y-101270457D01*
X143332918Y-101268653D01*
X143378629Y-101269066D01*
G36*
X143378629Y-101269066D02*
G01*
X143418111Y-101269467D01*
X143533800Y-101272259D01*
X143630689Y-101280550D01*
X143712081Y-101295232D01*
X143781277Y-101317193D01*
X143841580Y-101347322D01*
X143896292Y-101386510D01*
X143915833Y-101403532D01*
X143948250Y-101443363D01*
X143977480Y-101497413D01*
X144000009Y-101557323D01*
X144012321Y-101614739D01*
X144013600Y-101635956D01*
X144005583Y-101694769D01*
X143984101Y-101759013D01*
X143953001Y-101819821D01*
X143916134Y-101868330D01*
X143910146Y-101874182D01*
X143859421Y-101915321D01*
X143803875Y-101947435D01*
X143740304Y-101971365D01*
X143665506Y-101987953D01*
X143576278Y-101998041D01*
X143469418Y-102002469D01*
X143420472Y-102002845D01*
X143358238Y-102002545D01*
X143314472Y-102001292D01*
X143285069Y-101998554D01*
X143265921Y-101993801D01*
X143252923Y-101986501D01*
X143245955Y-101980267D01*
X143239374Y-101972694D01*
X143234212Y-101962924D01*
X143230297Y-101948340D01*
X143227457Y-101926326D01*
X143225520Y-101894264D01*
X143224492Y-101856089D01*
X143370133Y-101856089D01*
X143463266Y-101856004D01*
X143519307Y-101854396D01*
X143578001Y-101850256D01*
X143626972Y-101844464D01*
X143628462Y-101844226D01*
X143707608Y-101825090D01*
X143768998Y-101795287D01*
X143815695Y-101752878D01*
X143845365Y-101706961D01*
X143863647Y-101656026D01*
X143862229Y-101608200D01*
X143841012Y-101556933D01*
X143799511Y-101503899D01*
X143742002Y-101464600D01*
X143667250Y-101438331D01*
X143617292Y-101429035D01*
X143560584Y-101422507D01*
X143500481Y-101417782D01*
X143449361Y-101415817D01*
X143446333Y-101415808D01*
X143370133Y-101415822D01*
X143370133Y-101856089D01*
X143224492Y-101856089D01*
X143224316Y-101849536D01*
X143223672Y-101789526D01*
X143223417Y-101711617D01*
X143223378Y-101635956D01*
X143223130Y-101535041D01*
X143223183Y-101454427D01*
X143224143Y-101415822D01*
X143224740Y-101391851D01*
X143229002Y-101345055D01*
X143237170Y-101311778D01*
X143250444Y-101289759D01*
X143270026Y-101276739D01*
X143297117Y-101270457D01*
X143332918Y-101268653D01*
X143378629Y-101269066D01*
G37*
X148199886Y-101273448D02*
X148223452Y-101287273D01*
X148254265Y-101309881D01*
X148293922Y-101342338D01*
X148344020Y-101385708D01*
X148406157Y-101441058D01*
X148481928Y-101509451D01*
X148568666Y-101588084D01*
X148749289Y-101751878D01*
X148754933Y-101532029D01*
X148756971Y-101456351D01*
X148758937Y-101399994D01*
X148761266Y-101359706D01*
X148764394Y-101332235D01*
X148768755Y-101314329D01*
X148774784Y-101302737D01*
X148782916Y-101294208D01*
X148787228Y-101290623D01*
X148821759Y-101271670D01*
X148854617Y-101274441D01*
X148880682Y-101290633D01*
X148907333Y-101312199D01*
X148910648Y-101627151D01*
X148911565Y-101719779D01*
X148912032Y-101792544D01*
X148911887Y-101848161D01*
X148910968Y-101889342D01*
X148909113Y-101918803D01*
X148906161Y-101939255D01*
X148901950Y-101953413D01*
X148896318Y-101963991D01*
X148890073Y-101972474D01*
X148876561Y-101988207D01*
X148863117Y-101998636D01*
X148847876Y-102002639D01*
X148828974Y-101999094D01*
X148804545Y-101986879D01*
X148772727Y-101964871D01*
X148731652Y-101931949D01*
X148679458Y-101886991D01*
X148614278Y-101828875D01*
X148540444Y-101762099D01*
X148275155Y-101521458D01*
X148269511Y-101740589D01*
X148267469Y-101816128D01*
X148265498Y-101872354D01*
X148263161Y-101912524D01*
X148260019Y-101939896D01*
X148255636Y-101957728D01*
X148249576Y-101969279D01*
X148241400Y-101977807D01*
X148237216Y-101981282D01*
X148200235Y-102000372D01*
X148165292Y-101997493D01*
X148134864Y-101973100D01*
X148127903Y-101963286D01*
X148122477Y-101951826D01*
X148118397Y-101935968D01*
X148115471Y-101912963D01*
X148113508Y-101880062D01*
X148112317Y-101834516D01*
X148111708Y-101773573D01*
X148111489Y-101694486D01*
X148111466Y-101635956D01*
X148111540Y-101544407D01*
X148111887Y-101472687D01*
X148112699Y-101418045D01*
X148114167Y-101377732D01*
X148116481Y-101348998D01*
X148119833Y-101329093D01*
X148124412Y-101315268D01*
X148130411Y-101304772D01*
X148134864Y-101298811D01*
X148146150Y-101284691D01*
X148156699Y-101274029D01*
X148168107Y-101267892D01*
X148181970Y-101267343D01*
X148199886Y-101273448D01*
G36*
X148199886Y-101273448D02*
G01*
X148223452Y-101287273D01*
X148254265Y-101309881D01*
X148293922Y-101342338D01*
X148344020Y-101385708D01*
X148406157Y-101441058D01*
X148481928Y-101509451D01*
X148568666Y-101588084D01*
X148749289Y-101751878D01*
X148754933Y-101532029D01*
X148756971Y-101456351D01*
X148758937Y-101399994D01*
X148761266Y-101359706D01*
X148764394Y-101332235D01*
X148768755Y-101314329D01*
X148774784Y-101302737D01*
X148782916Y-101294208D01*
X148787228Y-101290623D01*
X148821759Y-101271670D01*
X148854617Y-101274441D01*
X148880682Y-101290633D01*
X148907333Y-101312199D01*
X148910648Y-101627151D01*
X148911565Y-101719779D01*
X148912032Y-101792544D01*
X148911887Y-101848161D01*
X148910968Y-101889342D01*
X148909113Y-101918803D01*
X148906161Y-101939255D01*
X148901950Y-101953413D01*
X148896318Y-101963991D01*
X148890073Y-101972474D01*
X148876561Y-101988207D01*
X148863117Y-101998636D01*
X148847876Y-102002639D01*
X148828974Y-101999094D01*
X148804545Y-101986879D01*
X148772727Y-101964871D01*
X148731652Y-101931949D01*
X148679458Y-101886991D01*
X148614278Y-101828875D01*
X148540444Y-101762099D01*
X148275155Y-101521458D01*
X148269511Y-101740589D01*
X148267469Y-101816128D01*
X148265498Y-101872354D01*
X148263161Y-101912524D01*
X148260019Y-101939896D01*
X148255636Y-101957728D01*
X148249576Y-101969279D01*
X148241400Y-101977807D01*
X148237216Y-101981282D01*
X148200235Y-102000372D01*
X148165292Y-101997493D01*
X148134864Y-101973100D01*
X148127903Y-101963286D01*
X148122477Y-101951826D01*
X148118397Y-101935968D01*
X148115471Y-101912963D01*
X148113508Y-101880062D01*
X148112317Y-101834516D01*
X148111708Y-101773573D01*
X148111489Y-101694486D01*
X148111466Y-101635956D01*
X148111540Y-101544407D01*
X148111887Y-101472687D01*
X148112699Y-101418045D01*
X148114167Y-101377732D01*
X148116481Y-101348998D01*
X148119833Y-101329093D01*
X148124412Y-101315268D01*
X148130411Y-101304772D01*
X148134864Y-101298811D01*
X148146150Y-101284691D01*
X148156699Y-101274029D01*
X148168107Y-101267892D01*
X148181970Y-101267343D01*
X148199886Y-101273448D01*
G37*
X147549919Y-101274599D02*
X147618435Y-101286095D01*
X147671057Y-101303967D01*
X147705292Y-101327499D01*
X147714621Y-101340924D01*
X147724107Y-101372148D01*
X147717723Y-101400395D01*
X147697570Y-101427182D01*
X147666255Y-101439713D01*
X147620817Y-101438696D01*
X147585674Y-101431906D01*
X147507581Y-101418971D01*
X147427774Y-101417742D01*
X147338445Y-101428241D01*
X147313771Y-101432690D01*
X147230709Y-101456108D01*
X147165727Y-101490945D01*
X147119539Y-101536604D01*
X147092855Y-101592494D01*
X147087337Y-101621388D01*
X147090949Y-101680012D01*
X147114271Y-101731879D01*
X147155176Y-101775978D01*
X147211541Y-101811299D01*
X147281240Y-101836829D01*
X147362148Y-101851559D01*
X147452140Y-101854478D01*
X147549090Y-101844575D01*
X147554564Y-101843641D01*
X147593125Y-101836459D01*
X147614506Y-101829521D01*
X147623773Y-101819227D01*
X147625994Y-101801976D01*
X147626044Y-101792841D01*
X147626044Y-101754489D01*
X147557569Y-101754489D01*
X147497100Y-101750347D01*
X147455835Y-101737147D01*
X147431825Y-101713730D01*
X147423123Y-101678936D01*
X147423017Y-101674394D01*
X147428108Y-101644654D01*
X147445567Y-101623419D01*
X147478061Y-101609366D01*
X147528257Y-101601173D01*
X147576877Y-101598161D01*
X147647544Y-101596433D01*
X147698802Y-101599070D01*
X147733761Y-101608800D01*
X147755530Y-101628353D01*
X147767220Y-101660456D01*
X147771940Y-101707838D01*
X147772800Y-101770071D01*
X147771391Y-101839535D01*
X147767152Y-101886786D01*
X147760064Y-101912012D01*
X147758689Y-101913988D01*
X147719772Y-101945508D01*
X147662714Y-101970470D01*
X147591131Y-101988340D01*
X147508642Y-101998586D01*
X147418861Y-102000673D01*
X147325408Y-101994068D01*
X147270444Y-101985956D01*
X147184234Y-101961554D01*
X147104108Y-101921662D01*
X147037023Y-101869887D01*
X147026827Y-101859539D01*
X146993698Y-101816035D01*
X146963806Y-101762118D01*
X146940643Y-101705592D01*
X146927702Y-101654259D01*
X146926142Y-101634544D01*
X146932782Y-101593419D01*
X146950432Y-101542252D01*
X146975703Y-101488394D01*
X147005211Y-101439195D01*
X147031281Y-101406334D01*
X147092235Y-101357452D01*
X147171031Y-101318545D01*
X147264843Y-101290494D01*
X147370850Y-101274179D01*
X147468000Y-101270192D01*
X147549919Y-101274599D01*
G36*
X147549919Y-101274599D02*
G01*
X147618435Y-101286095D01*
X147671057Y-101303967D01*
X147705292Y-101327499D01*
X147714621Y-101340924D01*
X147724107Y-101372148D01*
X147717723Y-101400395D01*
X147697570Y-101427182D01*
X147666255Y-101439713D01*
X147620817Y-101438696D01*
X147585674Y-101431906D01*
X147507581Y-101418971D01*
X147427774Y-101417742D01*
X147338445Y-101428241D01*
X147313771Y-101432690D01*
X147230709Y-101456108D01*
X147165727Y-101490945D01*
X147119539Y-101536604D01*
X147092855Y-101592494D01*
X147087337Y-101621388D01*
X147090949Y-101680012D01*
X147114271Y-101731879D01*
X147155176Y-101775978D01*
X147211541Y-101811299D01*
X147281240Y-101836829D01*
X147362148Y-101851559D01*
X147452140Y-101854478D01*
X147549090Y-101844575D01*
X147554564Y-101843641D01*
X147593125Y-101836459D01*
X147614506Y-101829521D01*
X147623773Y-101819227D01*
X147625994Y-101801976D01*
X147626044Y-101792841D01*
X147626044Y-101754489D01*
X147557569Y-101754489D01*
X147497100Y-101750347D01*
X147455835Y-101737147D01*
X147431825Y-101713730D01*
X147423123Y-101678936D01*
X147423017Y-101674394D01*
X147428108Y-101644654D01*
X147445567Y-101623419D01*
X147478061Y-101609366D01*
X147528257Y-101601173D01*
X147576877Y-101598161D01*
X147647544Y-101596433D01*
X147698802Y-101599070D01*
X147733761Y-101608800D01*
X147755530Y-101628353D01*
X147767220Y-101660456D01*
X147771940Y-101707838D01*
X147772800Y-101770071D01*
X147771391Y-101839535D01*
X147767152Y-101886786D01*
X147760064Y-101912012D01*
X147758689Y-101913988D01*
X147719772Y-101945508D01*
X147662714Y-101970470D01*
X147591131Y-101988340D01*
X147508642Y-101998586D01*
X147418861Y-102000673D01*
X147325408Y-101994068D01*
X147270444Y-101985956D01*
X147184234Y-101961554D01*
X147104108Y-101921662D01*
X147037023Y-101869887D01*
X147026827Y-101859539D01*
X146993698Y-101816035D01*
X146963806Y-101762118D01*
X146940643Y-101705592D01*
X146927702Y-101654259D01*
X146926142Y-101634544D01*
X146932782Y-101593419D01*
X146950432Y-101542252D01*
X146975703Y-101488394D01*
X147005211Y-101439195D01*
X147031281Y-101406334D01*
X147092235Y-101357452D01*
X147171031Y-101318545D01*
X147264843Y-101290494D01*
X147370850Y-101274179D01*
X147468000Y-101270192D01*
X147549919Y-101274599D01*
G37*
X149730343Y-101269260D02*
X149806701Y-101270174D01*
X149865217Y-101272311D01*
X149908255Y-101276175D01*
X149938183Y-101282267D01*
X149957368Y-101291090D01*
X149968176Y-101303146D01*
X149972973Y-101318939D01*
X149974127Y-101338970D01*
X149974133Y-101341335D01*
X149973131Y-101363992D01*
X149968396Y-101381503D01*
X149957333Y-101394574D01*
X149937348Y-101403913D01*
X149905846Y-101410227D01*
X149860232Y-101414222D01*
X149797913Y-101416606D01*
X149716293Y-101418086D01*
X149691277Y-101418414D01*
X149449200Y-101421467D01*
X149445814Y-101486378D01*
X149442429Y-101551289D01*
X149610576Y-101551289D01*
X149676266Y-101551531D01*
X149723172Y-101552556D01*
X149755083Y-101554811D01*
X149775791Y-101558742D01*
X149789084Y-101564798D01*
X149798755Y-101573424D01*
X149798817Y-101573493D01*
X149816356Y-101607112D01*
X149815722Y-101643448D01*
X149797314Y-101674423D01*
X149793671Y-101677607D01*
X149780741Y-101685812D01*
X149763024Y-101691521D01*
X149736570Y-101695162D01*
X149697432Y-101697167D01*
X149641662Y-101697964D01*
X149605994Y-101698045D01*
X149443555Y-101698045D01*
X149443555Y-101856089D01*
X149690161Y-101856089D01*
X149771580Y-101856231D01*
X149833410Y-101856814D01*
X149878637Y-101858068D01*
X149910248Y-101860227D01*
X149931231Y-101863523D01*
X149944573Y-101868189D01*
X149953261Y-101874457D01*
X149955450Y-101876733D01*
X149971614Y-101908280D01*
X149972797Y-101944168D01*
X149959536Y-101975285D01*
X149949043Y-101985271D01*
X149938129Y-101990769D01*
X149921217Y-101995022D01*
X149895633Y-101998180D01*
X149858701Y-102000392D01*
X149807746Y-102001806D01*
X149740094Y-102002572D01*
X149653069Y-102002838D01*
X149633394Y-102002845D01*
X149544911Y-102002787D01*
X149476227Y-102002467D01*
X149424564Y-102001667D01*
X149387145Y-102000167D01*
X149361190Y-101997749D01*
X149343922Y-101994194D01*
X149332562Y-101989282D01*
X149324332Y-101982795D01*
X149319817Y-101978138D01*
X149313021Y-101969889D01*
X149307712Y-101959669D01*
X149303706Y-101944800D01*
X149300821Y-101922602D01*
X149298874Y-101890393D01*
X149297681Y-101845496D01*
X149297061Y-101785228D01*
X149296829Y-101706911D01*
X149296800Y-101640994D01*
X149296871Y-101548628D01*
X149297208Y-101476117D01*
X149297998Y-101420737D01*
X149299426Y-101379765D01*
X149301679Y-101350478D01*
X149304943Y-101330153D01*
X149309404Y-101316066D01*
X149315248Y-101305495D01*
X149320197Y-101298811D01*
X149343594Y-101269067D01*
X149633774Y-101269067D01*
X149730343Y-101269260D01*
G36*
X149730343Y-101269260D02*
G01*
X149806701Y-101270174D01*
X149865217Y-101272311D01*
X149908255Y-101276175D01*
X149938183Y-101282267D01*
X149957368Y-101291090D01*
X149968176Y-101303146D01*
X149972973Y-101318939D01*
X149974127Y-101338970D01*
X149974133Y-101341335D01*
X149973131Y-101363992D01*
X149968396Y-101381503D01*
X149957333Y-101394574D01*
X149937348Y-101403913D01*
X149905846Y-101410227D01*
X149860232Y-101414222D01*
X149797913Y-101416606D01*
X149716293Y-101418086D01*
X149691277Y-101418414D01*
X149449200Y-101421467D01*
X149445814Y-101486378D01*
X149442429Y-101551289D01*
X149610576Y-101551289D01*
X149676266Y-101551531D01*
X149723172Y-101552556D01*
X149755083Y-101554811D01*
X149775791Y-101558742D01*
X149789084Y-101564798D01*
X149798755Y-101573424D01*
X149798817Y-101573493D01*
X149816356Y-101607112D01*
X149815722Y-101643448D01*
X149797314Y-101674423D01*
X149793671Y-101677607D01*
X149780741Y-101685812D01*
X149763024Y-101691521D01*
X149736570Y-101695162D01*
X149697432Y-101697167D01*
X149641662Y-101697964D01*
X149605994Y-101698045D01*
X149443555Y-101698045D01*
X149443555Y-101856089D01*
X149690161Y-101856089D01*
X149771580Y-101856231D01*
X149833410Y-101856814D01*
X149878637Y-101858068D01*
X149910248Y-101860227D01*
X149931231Y-101863523D01*
X149944573Y-101868189D01*
X149953261Y-101874457D01*
X149955450Y-101876733D01*
X149971614Y-101908280D01*
X149972797Y-101944168D01*
X149959536Y-101975285D01*
X149949043Y-101985271D01*
X149938129Y-101990769D01*
X149921217Y-101995022D01*
X149895633Y-101998180D01*
X149858701Y-102000392D01*
X149807746Y-102001806D01*
X149740094Y-102002572D01*
X149653069Y-102002838D01*
X149633394Y-102002845D01*
X149544911Y-102002787D01*
X149476227Y-102002467D01*
X149424564Y-102001667D01*
X149387145Y-102000167D01*
X149361190Y-101997749D01*
X149343922Y-101994194D01*
X149332562Y-101989282D01*
X149324332Y-101982795D01*
X149319817Y-101978138D01*
X149313021Y-101969889D01*
X149307712Y-101959669D01*
X149303706Y-101944800D01*
X149300821Y-101922602D01*
X149298874Y-101890393D01*
X149297681Y-101845496D01*
X149297061Y-101785228D01*
X149296829Y-101706911D01*
X149296800Y-101640994D01*
X149296871Y-101548628D01*
X149297208Y-101476117D01*
X149297998Y-101420737D01*
X149299426Y-101379765D01*
X149301679Y-101350478D01*
X149304943Y-101330153D01*
X149309404Y-101316066D01*
X149315248Y-101305495D01*
X149320197Y-101298811D01*
X149343594Y-101269067D01*
X149633774Y-101269067D01*
X149730343Y-101269260D01*
G37*
X144787206Y-101269146D02*
X144856614Y-101269518D01*
X144909003Y-101270385D01*
X144947153Y-101271946D01*
X144973841Y-101274403D01*
X144991847Y-101277957D01*
X145003951Y-101282810D01*
X145012931Y-101289161D01*
X145016182Y-101292084D01*
X145035957Y-101323142D01*
X145039518Y-101358828D01*
X145026509Y-101390510D01*
X145020494Y-101396913D01*
X145010765Y-101403121D01*
X144995099Y-101407910D01*
X144970592Y-101411514D01*
X144934339Y-101414164D01*
X144883435Y-101416095D01*
X144814974Y-101417539D01*
X144752383Y-101418418D01*
X144504666Y-101421467D01*
X144501281Y-101486378D01*
X144497895Y-101551289D01*
X144666042Y-101551289D01*
X144739041Y-101551919D01*
X144792483Y-101554553D01*
X144829372Y-101560309D01*
X144852712Y-101570304D01*
X144865506Y-101585656D01*
X144870758Y-101607482D01*
X144871555Y-101627738D01*
X144869077Y-101652592D01*
X144859723Y-101670906D01*
X144840617Y-101683637D01*
X144808882Y-101691741D01*
X144761641Y-101696176D01*
X144696017Y-101697899D01*
X144660199Y-101698045D01*
X144499022Y-101698045D01*
X144499022Y-101856089D01*
X144747378Y-101856089D01*
X144828787Y-101856202D01*
X144890658Y-101856712D01*
X144936032Y-101857870D01*
X144967946Y-101859930D01*
X144989441Y-101863146D01*
X145003557Y-101867772D01*
X145013332Y-101874059D01*
X145018311Y-101878667D01*
X145035390Y-101905560D01*
X145040889Y-101929467D01*
X145033037Y-101958667D01*
X145018311Y-101980267D01*
X145010454Y-101987066D01*
X145000312Y-101992346D01*
X144985156Y-101996298D01*
X144962259Y-101999113D01*
X144928891Y-102000982D01*
X144882325Y-102002098D01*
X144819833Y-102002651D01*
X144738686Y-102002833D01*
X144696578Y-102002845D01*
X144606402Y-102002765D01*
X144536076Y-102002398D01*
X144482871Y-102001552D01*
X144444060Y-102000036D01*
X144416913Y-101997659D01*
X144398702Y-101994229D01*
X144386700Y-101989554D01*
X144378178Y-101983444D01*
X144374844Y-101980267D01*
X144368245Y-101972670D01*
X144363073Y-101962870D01*
X144359154Y-101948239D01*
X144356316Y-101926152D01*
X144354385Y-101893982D01*
X144353188Y-101849103D01*
X144352552Y-101788889D01*
X144352303Y-101710713D01*
X144352266Y-101637923D01*
X144352300Y-101544707D01*
X144352535Y-101471431D01*
X144353170Y-101415458D01*
X144354406Y-101374151D01*
X144356444Y-101344872D01*
X144359483Y-101324984D01*
X144363723Y-101311850D01*
X144369365Y-101302832D01*
X144376609Y-101295293D01*
X144378394Y-101293612D01*
X144387055Y-101286172D01*
X144397118Y-101280409D01*
X144411375Y-101276112D01*
X144432617Y-101273064D01*
X144463636Y-101271051D01*
X144507223Y-101269860D01*
X144566169Y-101269275D01*
X144643266Y-101269083D01*
X144697999Y-101269067D01*
X144787206Y-101269146D01*
G36*
X144787206Y-101269146D02*
G01*
X144856614Y-101269518D01*
X144909003Y-101270385D01*
X144947153Y-101271946D01*
X144973841Y-101274403D01*
X144991847Y-101277957D01*
X145003951Y-101282810D01*
X145012931Y-101289161D01*
X145016182Y-101292084D01*
X145035957Y-101323142D01*
X145039518Y-101358828D01*
X145026509Y-101390510D01*
X145020494Y-101396913D01*
X145010765Y-101403121D01*
X144995099Y-101407910D01*
X144970592Y-101411514D01*
X144934339Y-101414164D01*
X144883435Y-101416095D01*
X144814974Y-101417539D01*
X144752383Y-101418418D01*
X144504666Y-101421467D01*
X144501281Y-101486378D01*
X144497895Y-101551289D01*
X144666042Y-101551289D01*
X144739041Y-101551919D01*
X144792483Y-101554553D01*
X144829372Y-101560309D01*
X144852712Y-101570304D01*
X144865506Y-101585656D01*
X144870758Y-101607482D01*
X144871555Y-101627738D01*
X144869077Y-101652592D01*
X144859723Y-101670906D01*
X144840617Y-101683637D01*
X144808882Y-101691741D01*
X144761641Y-101696176D01*
X144696017Y-101697899D01*
X144660199Y-101698045D01*
X144499022Y-101698045D01*
X144499022Y-101856089D01*
X144747378Y-101856089D01*
X144828787Y-101856202D01*
X144890658Y-101856712D01*
X144936032Y-101857870D01*
X144967946Y-101859930D01*
X144989441Y-101863146D01*
X145003557Y-101867772D01*
X145013332Y-101874059D01*
X145018311Y-101878667D01*
X145035390Y-101905560D01*
X145040889Y-101929467D01*
X145033037Y-101958667D01*
X145018311Y-101980267D01*
X145010454Y-101987066D01*
X145000312Y-101992346D01*
X144985156Y-101996298D01*
X144962259Y-101999113D01*
X144928891Y-102000982D01*
X144882325Y-102002098D01*
X144819833Y-102002651D01*
X144738686Y-102002833D01*
X144696578Y-102002845D01*
X144606402Y-102002765D01*
X144536076Y-102002398D01*
X144482871Y-102001552D01*
X144444060Y-102000036D01*
X144416913Y-101997659D01*
X144398702Y-101994229D01*
X144386700Y-101989554D01*
X144378178Y-101983444D01*
X144374844Y-101980267D01*
X144368245Y-101972670D01*
X144363073Y-101962870D01*
X144359154Y-101948239D01*
X144356316Y-101926152D01*
X144354385Y-101893982D01*
X144353188Y-101849103D01*
X144352552Y-101788889D01*
X144352303Y-101710713D01*
X144352266Y-101637923D01*
X144352300Y-101544707D01*
X144352535Y-101471431D01*
X144353170Y-101415458D01*
X144354406Y-101374151D01*
X144356444Y-101344872D01*
X144359483Y-101324984D01*
X144363723Y-101311850D01*
X144369365Y-101302832D01*
X144376609Y-101295293D01*
X144378394Y-101293612D01*
X144387055Y-101286172D01*
X144397118Y-101280409D01*
X144411375Y-101276112D01*
X144432617Y-101273064D01*
X144463636Y-101271051D01*
X144507223Y-101269860D01*
X144566169Y-101269275D01*
X144643266Y-101269083D01*
X144697999Y-101269067D01*
X144787206Y-101269146D01*
G37*
X153244665Y-101271034D02*
X153264255Y-101278035D01*
X153265010Y-101278377D01*
X153291613Y-101298678D01*
X153306270Y-101319561D01*
X153309138Y-101329352D01*
X153308996Y-101342361D01*
X153304961Y-101360895D01*
X153296146Y-101387257D01*
X153281669Y-101423752D01*
X153260645Y-101472687D01*
X153232188Y-101536365D01*
X153195415Y-101617093D01*
X153175175Y-101661216D01*
X153138625Y-101739985D01*
X153104315Y-101812423D01*
X153073552Y-101875880D01*
X153047648Y-101927708D01*
X153027910Y-101965259D01*
X153015650Y-101985884D01*
X153013224Y-101988733D01*
X152982183Y-102001302D01*
X152947121Y-101999619D01*
X152919000Y-101984332D01*
X152917854Y-101983089D01*
X152906668Y-101966154D01*
X152887904Y-101933170D01*
X152863875Y-101888380D01*
X152836897Y-101836032D01*
X152827201Y-101816742D01*
X152754014Y-101670150D01*
X152674240Y-101829393D01*
X152645767Y-101884415D01*
X152619350Y-101932132D01*
X152597148Y-101968893D01*
X152581319Y-101991044D01*
X152575954Y-101995741D01*
X152534257Y-102002102D01*
X152499849Y-101988733D01*
X152489728Y-101974446D01*
X152472214Y-101942692D01*
X152448735Y-101896597D01*
X152420720Y-101839285D01*
X152389599Y-101773880D01*
X152356799Y-101703507D01*
X152323750Y-101631291D01*
X152291881Y-101560355D01*
X152262619Y-101493825D01*
X152237395Y-101434826D01*
X152217636Y-101386481D01*
X152204772Y-101351915D01*
X152200231Y-101334253D01*
X152200277Y-101333613D01*
X152211326Y-101311388D01*
X152233410Y-101288753D01*
X152234710Y-101287768D01*
X152261853Y-101272425D01*
X152286958Y-101272574D01*
X152296368Y-101275466D01*
X152307834Y-101281718D01*
X152320010Y-101294014D01*
X152334357Y-101314908D01*
X152352336Y-101346949D01*
X152375407Y-101392688D01*
X152405030Y-101454677D01*
X152431745Y-101511898D01*
X152462480Y-101578226D01*
X152490021Y-101637874D01*
X152512938Y-101687725D01*
X152529798Y-101724664D01*
X152539173Y-101745573D01*
X152540540Y-101748845D01*
X152546689Y-101743497D01*
X152560822Y-101721109D01*
X152581057Y-101684946D01*
X152605515Y-101638277D01*
X152615248Y-101619022D01*
X152648217Y-101554004D01*
X152673643Y-101506654D01*
X152693612Y-101474219D01*
X152710210Y-101453946D01*
X152725524Y-101443082D01*
X152741640Y-101438875D01*
X152752143Y-101438400D01*
X152770670Y-101440042D01*
X152786904Y-101446831D01*
X152803035Y-101461566D01*
X152821251Y-101487044D01*
X152843739Y-101526061D01*
X152872689Y-101581414D01*
X152888662Y-101612903D01*
X152914570Y-101663087D01*
X152937167Y-101704704D01*
X152954458Y-101734242D01*
X152964450Y-101748189D01*
X152965809Y-101748770D01*
X152972261Y-101737793D01*
X152986708Y-101709290D01*
X153007703Y-101666244D01*
X153033797Y-101611638D01*
X153063546Y-101548454D01*
X153078180Y-101517071D01*
X153116250Y-101436078D01*
X153146905Y-101373756D01*
X153171737Y-101328071D01*
X153192337Y-101296989D01*
X153210298Y-101278478D01*
X153227210Y-101270504D01*
X153244665Y-101271034D01*
G36*
X153244665Y-101271034D02*
G01*
X153264255Y-101278035D01*
X153265010Y-101278377D01*
X153291613Y-101298678D01*
X153306270Y-101319561D01*
X153309138Y-101329352D01*
X153308996Y-101342361D01*
X153304961Y-101360895D01*
X153296146Y-101387257D01*
X153281669Y-101423752D01*
X153260645Y-101472687D01*
X153232188Y-101536365D01*
X153195415Y-101617093D01*
X153175175Y-101661216D01*
X153138625Y-101739985D01*
X153104315Y-101812423D01*
X153073552Y-101875880D01*
X153047648Y-101927708D01*
X153027910Y-101965259D01*
X153015650Y-101985884D01*
X153013224Y-101988733D01*
X152982183Y-102001302D01*
X152947121Y-101999619D01*
X152919000Y-101984332D01*
X152917854Y-101983089D01*
X152906668Y-101966154D01*
X152887904Y-101933170D01*
X152863875Y-101888380D01*
X152836897Y-101836032D01*
X152827201Y-101816742D01*
X152754014Y-101670150D01*
X152674240Y-101829393D01*
X152645767Y-101884415D01*
X152619350Y-101932132D01*
X152597148Y-101968893D01*
X152581319Y-101991044D01*
X152575954Y-101995741D01*
X152534257Y-102002102D01*
X152499849Y-101988733D01*
X152489728Y-101974446D01*
X152472214Y-101942692D01*
X152448735Y-101896597D01*
X152420720Y-101839285D01*
X152389599Y-101773880D01*
X152356799Y-101703507D01*
X152323750Y-101631291D01*
X152291881Y-101560355D01*
X152262619Y-101493825D01*
X152237395Y-101434826D01*
X152217636Y-101386481D01*
X152204772Y-101351915D01*
X152200231Y-101334253D01*
X152200277Y-101333613D01*
X152211326Y-101311388D01*
X152233410Y-101288753D01*
X152234710Y-101287768D01*
X152261853Y-101272425D01*
X152286958Y-101272574D01*
X152296368Y-101275466D01*
X152307834Y-101281718D01*
X152320010Y-101294014D01*
X152334357Y-101314908D01*
X152352336Y-101346949D01*
X152375407Y-101392688D01*
X152405030Y-101454677D01*
X152431745Y-101511898D01*
X152462480Y-101578226D01*
X152490021Y-101637874D01*
X152512938Y-101687725D01*
X152529798Y-101724664D01*
X152539173Y-101745573D01*
X152540540Y-101748845D01*
X152546689Y-101743497D01*
X152560822Y-101721109D01*
X152581057Y-101684946D01*
X152605515Y-101638277D01*
X152615248Y-101619022D01*
X152648217Y-101554004D01*
X152673643Y-101506654D01*
X152693612Y-101474219D01*
X152710210Y-101453946D01*
X152725524Y-101443082D01*
X152741640Y-101438875D01*
X152752143Y-101438400D01*
X152770670Y-101440042D01*
X152786904Y-101446831D01*
X152803035Y-101461566D01*
X152821251Y-101487044D01*
X152843739Y-101526061D01*
X152872689Y-101581414D01*
X152888662Y-101612903D01*
X152914570Y-101663087D01*
X152937167Y-101704704D01*
X152954458Y-101734242D01*
X152964450Y-101748189D01*
X152965809Y-101748770D01*
X152972261Y-101737793D01*
X152986708Y-101709290D01*
X153007703Y-101666244D01*
X153033797Y-101611638D01*
X153063546Y-101548454D01*
X153078180Y-101517071D01*
X153116250Y-101436078D01*
X153146905Y-101373756D01*
X153171737Y-101328071D01*
X153192337Y-101296989D01*
X153210298Y-101278478D01*
X153227210Y-101270504D01*
X153244665Y-101271034D01*
G37*
X145808297Y-101270351D02*
X145883112Y-101275581D01*
X145952694Y-101283750D01*
X146012998Y-101294550D01*
X146059980Y-101307673D01*
X146089594Y-101322813D01*
X146094140Y-101327269D01*
X146109946Y-101361850D01*
X146105153Y-101397351D01*
X146080636Y-101427725D01*
X146079466Y-101428596D01*
X146065046Y-101437954D01*
X146049992Y-101442876D01*
X146028995Y-101443473D01*
X145996743Y-101439861D01*
X145947927Y-101432154D01*
X145944000Y-101431505D01*
X145871261Y-101422569D01*
X145792783Y-101418161D01*
X145714073Y-101418119D01*
X145640639Y-101422279D01*
X145577989Y-101430479D01*
X145531630Y-101442557D01*
X145528584Y-101443771D01*
X145494952Y-101462615D01*
X145483136Y-101481685D01*
X145492386Y-101500439D01*
X145521953Y-101518337D01*
X145571089Y-101534837D01*
X145639043Y-101549396D01*
X145684355Y-101556406D01*
X145778544Y-101569889D01*
X145853456Y-101582214D01*
X145912283Y-101594449D01*
X145958215Y-101607661D01*
X145994445Y-101622917D01*
X146024162Y-101641285D01*
X146050558Y-101663831D01*
X146071770Y-101685971D01*
X146096935Y-101716819D01*
X146109319Y-101743345D01*
X146113192Y-101776026D01*
X146113333Y-101787995D01*
X146110424Y-101827712D01*
X146098798Y-101857259D01*
X146078677Y-101883486D01*
X146037784Y-101923576D01*
X145992183Y-101954149D01*
X145938487Y-101976203D01*
X145873308Y-101990735D01*
X145793256Y-101998741D01*
X145694943Y-102001218D01*
X145678711Y-102001177D01*
X145613151Y-101999818D01*
X145548134Y-101996730D01*
X145490748Y-101992356D01*
X145448078Y-101987140D01*
X145444628Y-101986541D01*
X145402204Y-101976491D01*
X145366220Y-101963796D01*
X145345850Y-101952190D01*
X145326893Y-101921572D01*
X145325573Y-101885918D01*
X145341915Y-101854144D01*
X145345571Y-101850551D01*
X145360685Y-101839876D01*
X145379585Y-101835276D01*
X145408838Y-101836059D01*
X145444349Y-101840127D01*
X145484030Y-101843762D01*
X145539655Y-101846828D01*
X145604594Y-101849053D01*
X145672215Y-101850164D01*
X145690000Y-101850237D01*
X145757872Y-101849964D01*
X145807546Y-101848646D01*
X145843390Y-101845827D01*
X145869776Y-101841050D01*
X145891074Y-101833857D01*
X145903874Y-101827867D01*
X145932000Y-101811233D01*
X145949932Y-101796168D01*
X145952553Y-101791897D01*
X145947024Y-101774263D01*
X145920740Y-101757192D01*
X145875522Y-101741458D01*
X145813192Y-101727838D01*
X145794829Y-101724804D01*
X145698910Y-101709738D01*
X145622359Y-101697146D01*
X145562220Y-101686111D01*
X145515540Y-101675720D01*
X145479363Y-101665056D01*
X145450735Y-101653205D01*
X145426702Y-101639251D01*
X145404308Y-101622281D01*
X145380598Y-101601378D01*
X145372620Y-101594049D01*
X145344647Y-101566699D01*
X145329840Y-101545029D01*
X145324048Y-101520232D01*
X145323111Y-101488983D01*
X145333425Y-101427705D01*
X145364248Y-101375640D01*
X145415405Y-101332958D01*
X145486717Y-101299825D01*
X145537600Y-101284964D01*
X145592900Y-101275366D01*
X145659147Y-101269936D01*
X145732294Y-101268367D01*
X145808297Y-101270351D01*
G36*
X145808297Y-101270351D02*
G01*
X145883112Y-101275581D01*
X145952694Y-101283750D01*
X146012998Y-101294550D01*
X146059980Y-101307673D01*
X146089594Y-101322813D01*
X146094140Y-101327269D01*
X146109946Y-101361850D01*
X146105153Y-101397351D01*
X146080636Y-101427725D01*
X146079466Y-101428596D01*
X146065046Y-101437954D01*
X146049992Y-101442876D01*
X146028995Y-101443473D01*
X145996743Y-101439861D01*
X145947927Y-101432154D01*
X145944000Y-101431505D01*
X145871261Y-101422569D01*
X145792783Y-101418161D01*
X145714073Y-101418119D01*
X145640639Y-101422279D01*
X145577989Y-101430479D01*
X145531630Y-101442557D01*
X145528584Y-101443771D01*
X145494952Y-101462615D01*
X145483136Y-101481685D01*
X145492386Y-101500439D01*
X145521953Y-101518337D01*
X145571089Y-101534837D01*
X145639043Y-101549396D01*
X145684355Y-101556406D01*
X145778544Y-101569889D01*
X145853456Y-101582214D01*
X145912283Y-101594449D01*
X145958215Y-101607661D01*
X145994445Y-101622917D01*
X146024162Y-101641285D01*
X146050558Y-101663831D01*
X146071770Y-101685971D01*
X146096935Y-101716819D01*
X146109319Y-101743345D01*
X146113192Y-101776026D01*
X146113333Y-101787995D01*
X146110424Y-101827712D01*
X146098798Y-101857259D01*
X146078677Y-101883486D01*
X146037784Y-101923576D01*
X145992183Y-101954149D01*
X145938487Y-101976203D01*
X145873308Y-101990735D01*
X145793256Y-101998741D01*
X145694943Y-102001218D01*
X145678711Y-102001177D01*
X145613151Y-101999818D01*
X145548134Y-101996730D01*
X145490748Y-101992356D01*
X145448078Y-101987140D01*
X145444628Y-101986541D01*
X145402204Y-101976491D01*
X145366220Y-101963796D01*
X145345850Y-101952190D01*
X145326893Y-101921572D01*
X145325573Y-101885918D01*
X145341915Y-101854144D01*
X145345571Y-101850551D01*
X145360685Y-101839876D01*
X145379585Y-101835276D01*
X145408838Y-101836059D01*
X145444349Y-101840127D01*
X145484030Y-101843762D01*
X145539655Y-101846828D01*
X145604594Y-101849053D01*
X145672215Y-101850164D01*
X145690000Y-101850237D01*
X145757872Y-101849964D01*
X145807546Y-101848646D01*
X145843390Y-101845827D01*
X145869776Y-101841050D01*
X145891074Y-101833857D01*
X145903874Y-101827867D01*
X145932000Y-101811233D01*
X145949932Y-101796168D01*
X145952553Y-101791897D01*
X145947024Y-101774263D01*
X145920740Y-101757192D01*
X145875522Y-101741458D01*
X145813192Y-101727838D01*
X145794829Y-101724804D01*
X145698910Y-101709738D01*
X145622359Y-101697146D01*
X145562220Y-101686111D01*
X145515540Y-101675720D01*
X145479363Y-101665056D01*
X145450735Y-101653205D01*
X145426702Y-101639251D01*
X145404308Y-101622281D01*
X145380598Y-101601378D01*
X145372620Y-101594049D01*
X145344647Y-101566699D01*
X145329840Y-101545029D01*
X145324048Y-101520232D01*
X145323111Y-101488983D01*
X145333425Y-101427705D01*
X145364248Y-101375640D01*
X145415405Y-101332958D01*
X145486717Y-101299825D01*
X145537600Y-101284964D01*
X145592900Y-101275366D01*
X145659147Y-101269936D01*
X145732294Y-101268367D01*
X145808297Y-101270351D01*
G37*
X149828429Y-96949071D02*
X149988570Y-96970245D01*
X150152510Y-97010385D01*
X150322313Y-97069889D01*
X150500043Y-97149154D01*
X150511310Y-97154699D01*
X150569005Y-97182725D01*
X150620552Y-97206802D01*
X150662191Y-97225249D01*
X150690162Y-97236386D01*
X150699733Y-97238933D01*
X150718950Y-97243941D01*
X150723561Y-97248147D01*
X150718458Y-97258580D01*
X150702418Y-97284868D01*
X150677288Y-97324257D01*
X150644914Y-97373991D01*
X150607143Y-97431315D01*
X150565822Y-97493476D01*
X150522798Y-97557718D01*
X150479917Y-97621285D01*
X150439026Y-97681425D01*
X150401971Y-97735380D01*
X150370600Y-97780397D01*
X150346759Y-97813721D01*
X150332294Y-97832597D01*
X150330309Y-97834787D01*
X150320191Y-97830138D01*
X150297850Y-97812962D01*
X150267280Y-97786440D01*
X150251536Y-97771964D01*
X150155047Y-97696682D01*
X150048336Y-97641241D01*
X149932832Y-97606141D01*
X149809962Y-97591880D01*
X149740561Y-97593051D01*
X149619423Y-97610212D01*
X149510205Y-97646094D01*
X149412582Y-97700959D01*
X149326228Y-97775070D01*
X149250815Y-97868688D01*
X149186018Y-97982076D01*
X149148601Y-98068667D01*
X149104748Y-98204366D01*
X149072428Y-98351850D01*
X149051557Y-98507314D01*
X149042051Y-98666956D01*
X149043827Y-98826973D01*
X149056803Y-98983561D01*
X149080894Y-99132918D01*
X149116018Y-99271240D01*
X149162092Y-99394724D01*
X149178373Y-99428978D01*
X149246620Y-99543064D01*
X149327079Y-99639557D01*
X149418570Y-99717670D01*
X149519911Y-99776617D01*
X149629920Y-99815612D01*
X149747415Y-99833868D01*
X149788883Y-99835211D01*
X149910441Y-99824290D01*
X150030878Y-99791474D01*
X150148666Y-99737439D01*
X150262277Y-99662865D01*
X150353685Y-99584539D01*
X150400215Y-99540008D01*
X150581483Y-99837271D01*
X150626580Y-99911433D01*
X150667819Y-99979646D01*
X150703735Y-100039459D01*
X150732866Y-100088420D01*
X150753750Y-100124079D01*
X150764924Y-100143984D01*
X150766375Y-100147079D01*
X150758146Y-100156718D01*
X150732567Y-100173999D01*
X150692873Y-100197283D01*
X150642297Y-100224934D01*
X150584074Y-100255315D01*
X150521437Y-100286790D01*
X150457621Y-100317722D01*
X150395860Y-100346473D01*
X150339388Y-100371408D01*
X150291438Y-100390889D01*
X150267986Y-100399318D01*
X150134221Y-100437133D01*
X149996327Y-100462136D01*
X149848622Y-100475140D01*
X149721833Y-100477468D01*
X149653878Y-100476373D01*
X149588277Y-100474275D01*
X149530847Y-100471434D01*
X149487403Y-100468106D01*
X149473298Y-100466422D01*
X149334284Y-100437587D01*
X149192757Y-100392468D01*
X149055275Y-100333750D01*
X148928394Y-100264120D01*
X148850889Y-100211441D01*
X148723481Y-100103239D01*
X148605178Y-99976671D01*
X148498172Y-99834866D01*
X148404652Y-99680951D01*
X148326810Y-99518053D01*
X148282956Y-99400756D01*
X148232708Y-99217128D01*
X148199209Y-99022581D01*
X148182449Y-98821325D01*
X148182416Y-98617568D01*
X148199101Y-98415521D01*
X148232493Y-98219392D01*
X148282580Y-98033391D01*
X148286397Y-98021803D01*
X148349281Y-97859750D01*
X148426028Y-97711832D01*
X148519242Y-97573865D01*
X148631527Y-97441661D01*
X148675392Y-97396399D01*
X148811534Y-97272457D01*
X148951491Y-97169915D01*
X149097411Y-97087656D01*
X149251442Y-97024564D01*
X149415732Y-96979523D01*
X149511289Y-96962033D01*
X149670023Y-96946466D01*
X149828429Y-96949071D01*
G36*
X149828429Y-96949071D02*
G01*
X149988570Y-96970245D01*
X150152510Y-97010385D01*
X150322313Y-97069889D01*
X150500043Y-97149154D01*
X150511310Y-97154699D01*
X150569005Y-97182725D01*
X150620552Y-97206802D01*
X150662191Y-97225249D01*
X150690162Y-97236386D01*
X150699733Y-97238933D01*
X150718950Y-97243941D01*
X150723561Y-97248147D01*
X150718458Y-97258580D01*
X150702418Y-97284868D01*
X150677288Y-97324257D01*
X150644914Y-97373991D01*
X150607143Y-97431315D01*
X150565822Y-97493476D01*
X150522798Y-97557718D01*
X150479917Y-97621285D01*
X150439026Y-97681425D01*
X150401971Y-97735380D01*
X150370600Y-97780397D01*
X150346759Y-97813721D01*
X150332294Y-97832597D01*
X150330309Y-97834787D01*
X150320191Y-97830138D01*
X150297850Y-97812962D01*
X150267280Y-97786440D01*
X150251536Y-97771964D01*
X150155047Y-97696682D01*
X150048336Y-97641241D01*
X149932832Y-97606141D01*
X149809962Y-97591880D01*
X149740561Y-97593051D01*
X149619423Y-97610212D01*
X149510205Y-97646094D01*
X149412582Y-97700959D01*
X149326228Y-97775070D01*
X149250815Y-97868688D01*
X149186018Y-97982076D01*
X149148601Y-98068667D01*
X149104748Y-98204366D01*
X149072428Y-98351850D01*
X149051557Y-98507314D01*
X149042051Y-98666956D01*
X149043827Y-98826973D01*
X149056803Y-98983561D01*
X149080894Y-99132918D01*
X149116018Y-99271240D01*
X149162092Y-99394724D01*
X149178373Y-99428978D01*
X149246620Y-99543064D01*
X149327079Y-99639557D01*
X149418570Y-99717670D01*
X149519911Y-99776617D01*
X149629920Y-99815612D01*
X149747415Y-99833868D01*
X149788883Y-99835211D01*
X149910441Y-99824290D01*
X150030878Y-99791474D01*
X150148666Y-99737439D01*
X150262277Y-99662865D01*
X150353685Y-99584539D01*
X150400215Y-99540008D01*
X150581483Y-99837271D01*
X150626580Y-99911433D01*
X150667819Y-99979646D01*
X150703735Y-100039459D01*
X150732866Y-100088420D01*
X150753750Y-100124079D01*
X150764924Y-100143984D01*
X150766375Y-100147079D01*
X150758146Y-100156718D01*
X150732567Y-100173999D01*
X150692873Y-100197283D01*
X150642297Y-100224934D01*
X150584074Y-100255315D01*
X150521437Y-100286790D01*
X150457621Y-100317722D01*
X150395860Y-100346473D01*
X150339388Y-100371408D01*
X150291438Y-100390889D01*
X150267986Y-100399318D01*
X150134221Y-100437133D01*
X149996327Y-100462136D01*
X149848622Y-100475140D01*
X149721833Y-100477468D01*
X149653878Y-100476373D01*
X149588277Y-100474275D01*
X149530847Y-100471434D01*
X149487403Y-100468106D01*
X149473298Y-100466422D01*
X149334284Y-100437587D01*
X149192757Y-100392468D01*
X149055275Y-100333750D01*
X148928394Y-100264120D01*
X148850889Y-100211441D01*
X148723481Y-100103239D01*
X148605178Y-99976671D01*
X148498172Y-99834866D01*
X148404652Y-99680951D01*
X148326810Y-99518053D01*
X148282956Y-99400756D01*
X148232708Y-99217128D01*
X148199209Y-99022581D01*
X148182449Y-98821325D01*
X148182416Y-98617568D01*
X148199101Y-98415521D01*
X148232493Y-98219392D01*
X148282580Y-98033391D01*
X148286397Y-98021803D01*
X148349281Y-97859750D01*
X148426028Y-97711832D01*
X148519242Y-97573865D01*
X148631527Y-97441661D01*
X148675392Y-97396399D01*
X148811534Y-97272457D01*
X148951491Y-97169915D01*
X149097411Y-97087656D01*
X149251442Y-97024564D01*
X149415732Y-96979523D01*
X149511289Y-96962033D01*
X149670023Y-96946466D01*
X149828429Y-96949071D01*
G37*
X155686507Y-98472245D02*
X155686526Y-98706662D01*
X155686552Y-98919603D01*
X155686625Y-99112168D01*
X155686782Y-99285459D01*
X155687064Y-99440576D01*
X155687509Y-99578620D01*
X155688156Y-99700692D01*
X155689045Y-99807894D01*
X155690213Y-99901326D01*
X155691701Y-99982090D01*
X155693546Y-100051286D01*
X155695789Y-100110015D01*
X155698469Y-100159379D01*
X155701623Y-100200478D01*
X155705292Y-100234413D01*
X155709513Y-100262286D01*
X155714327Y-100285198D01*
X155719773Y-100304249D01*
X155725888Y-100320540D01*
X155732712Y-100335173D01*
X155740285Y-100349249D01*
X155748645Y-100363868D01*
X155753839Y-100372974D01*
X155788104Y-100433689D01*
X154929955Y-100433689D01*
X154929955Y-100337733D01*
X154929224Y-100294370D01*
X154927272Y-100261205D01*
X154924463Y-100243424D01*
X154923221Y-100241778D01*
X154911799Y-100248662D01*
X154889084Y-100266505D01*
X154866385Y-100285879D01*
X154811800Y-100326614D01*
X154742321Y-100367617D01*
X154665270Y-100405123D01*
X154587965Y-100435364D01*
X154557113Y-100445012D01*
X154488616Y-100459578D01*
X154405764Y-100469539D01*
X154316371Y-100474583D01*
X154228248Y-100474396D01*
X154149207Y-100468666D01*
X154111511Y-100462858D01*
X153973414Y-100424797D01*
X153846113Y-100367073D01*
X153730292Y-100290211D01*
X153626637Y-100194739D01*
X153535833Y-100081179D01*
X153469031Y-99970381D01*
X153414164Y-99853625D01*
X153372163Y-99734276D01*
X153342167Y-99608283D01*
X153323311Y-99471594D01*
X153314732Y-99320158D01*
X153314006Y-99242711D01*
X153316100Y-99185934D01*
X154145217Y-99185934D01*
X154145424Y-99279002D01*
X154148337Y-99366692D01*
X154154000Y-99443772D01*
X154162455Y-99505009D01*
X154165038Y-99517350D01*
X154196840Y-99624633D01*
X154238498Y-99711658D01*
X154290363Y-99778642D01*
X154352781Y-99825805D01*
X154426100Y-99853365D01*
X154510669Y-99861541D01*
X154606835Y-99850551D01*
X154670311Y-99834829D01*
X154719454Y-99816639D01*
X154773583Y-99790791D01*
X154814244Y-99767089D01*
X154884800Y-99720721D01*
X154884800Y-98570530D01*
X154817392Y-98526962D01*
X154738867Y-98486040D01*
X154654681Y-98459389D01*
X154569557Y-98447465D01*
X154488216Y-98450722D01*
X154415380Y-98469615D01*
X154383426Y-98485184D01*
X154325501Y-98528181D01*
X154276544Y-98584953D01*
X154235390Y-98657575D01*
X154200874Y-98748121D01*
X154171833Y-98858666D01*
X154170552Y-98864533D01*
X154160381Y-98926788D01*
X154152739Y-99004594D01*
X154147670Y-99092720D01*
X154145217Y-99185934D01*
X153316100Y-99185934D01*
X153321857Y-99029895D01*
X153343802Y-98834059D01*
X153379786Y-98655332D01*
X153429759Y-98493845D01*
X153493668Y-98349726D01*
X153571462Y-98223106D01*
X153663089Y-98114115D01*
X153768497Y-98022883D01*
X153813662Y-97991932D01*
X153914611Y-97935785D01*
X154017901Y-97896174D01*
X154127989Y-97872014D01*
X154249330Y-97862219D01*
X154341836Y-97863265D01*
X154471490Y-97874231D01*
X154584084Y-97896046D01*
X154682875Y-97929714D01*
X154771121Y-97976236D01*
X154819986Y-98010448D01*
X154849353Y-98032362D01*
X154871043Y-98047333D01*
X154879253Y-98051733D01*
X154880868Y-98040904D01*
X154882159Y-98010251D01*
X154883138Y-97962526D01*
X154883817Y-97900479D01*
X154884210Y-97826862D01*
X154884330Y-97744427D01*
X154884188Y-97655925D01*
X154883797Y-97564107D01*
X154883171Y-97471724D01*
X154882320Y-97381528D01*
X154881260Y-97296271D01*
X154880001Y-97218703D01*
X154878556Y-97151576D01*
X154876938Y-97097641D01*
X154875161Y-97059650D01*
X154874669Y-97052667D01*
X154867092Y-96982251D01*
X154855531Y-96927102D01*
X154837792Y-96879981D01*
X154811682Y-96833647D01*
X154805415Y-96824067D01*
X154780983Y-96787378D01*
X155686311Y-96787378D01*
X155686507Y-98472245D01*
G36*
X155686507Y-98472245D02*
G01*
X155686526Y-98706662D01*
X155686552Y-98919603D01*
X155686625Y-99112168D01*
X155686782Y-99285459D01*
X155687064Y-99440576D01*
X155687509Y-99578620D01*
X155688156Y-99700692D01*
X155689045Y-99807894D01*
X155690213Y-99901326D01*
X155691701Y-99982090D01*
X155693546Y-100051286D01*
X155695789Y-100110015D01*
X155698469Y-100159379D01*
X155701623Y-100200478D01*
X155705292Y-100234413D01*
X155709513Y-100262286D01*
X155714327Y-100285198D01*
X155719773Y-100304249D01*
X155725888Y-100320540D01*
X155732712Y-100335173D01*
X155740285Y-100349249D01*
X155748645Y-100363868D01*
X155753839Y-100372974D01*
X155788104Y-100433689D01*
X154929955Y-100433689D01*
X154929955Y-100337733D01*
X154929224Y-100294370D01*
X154927272Y-100261205D01*
X154924463Y-100243424D01*
X154923221Y-100241778D01*
X154911799Y-100248662D01*
X154889084Y-100266505D01*
X154866385Y-100285879D01*
X154811800Y-100326614D01*
X154742321Y-100367617D01*
X154665270Y-100405123D01*
X154587965Y-100435364D01*
X154557113Y-100445012D01*
X154488616Y-100459578D01*
X154405764Y-100469539D01*
X154316371Y-100474583D01*
X154228248Y-100474396D01*
X154149207Y-100468666D01*
X154111511Y-100462858D01*
X153973414Y-100424797D01*
X153846113Y-100367073D01*
X153730292Y-100290211D01*
X153626637Y-100194739D01*
X153535833Y-100081179D01*
X153469031Y-99970381D01*
X153414164Y-99853625D01*
X153372163Y-99734276D01*
X153342167Y-99608283D01*
X153323311Y-99471594D01*
X153314732Y-99320158D01*
X153314006Y-99242711D01*
X153316100Y-99185934D01*
X154145217Y-99185934D01*
X154145424Y-99279002D01*
X154148337Y-99366692D01*
X154154000Y-99443772D01*
X154162455Y-99505009D01*
X154165038Y-99517350D01*
X154196840Y-99624633D01*
X154238498Y-99711658D01*
X154290363Y-99778642D01*
X154352781Y-99825805D01*
X154426100Y-99853365D01*
X154510669Y-99861541D01*
X154606835Y-99850551D01*
X154670311Y-99834829D01*
X154719454Y-99816639D01*
X154773583Y-99790791D01*
X154814244Y-99767089D01*
X154884800Y-99720721D01*
X154884800Y-98570530D01*
X154817392Y-98526962D01*
X154738867Y-98486040D01*
X154654681Y-98459389D01*
X154569557Y-98447465D01*
X154488216Y-98450722D01*
X154415380Y-98469615D01*
X154383426Y-98485184D01*
X154325501Y-98528181D01*
X154276544Y-98584953D01*
X154235390Y-98657575D01*
X154200874Y-98748121D01*
X154171833Y-98858666D01*
X154170552Y-98864533D01*
X154160381Y-98926788D01*
X154152739Y-99004594D01*
X154147670Y-99092720D01*
X154145217Y-99185934D01*
X153316100Y-99185934D01*
X153321857Y-99029895D01*
X153343802Y-98834059D01*
X153379786Y-98655332D01*
X153429759Y-98493845D01*
X153493668Y-98349726D01*
X153571462Y-98223106D01*
X153663089Y-98114115D01*
X153768497Y-98022883D01*
X153813662Y-97991932D01*
X153914611Y-97935785D01*
X154017901Y-97896174D01*
X154127989Y-97872014D01*
X154249330Y-97862219D01*
X154341836Y-97863265D01*
X154471490Y-97874231D01*
X154584084Y-97896046D01*
X154682875Y-97929714D01*
X154771121Y-97976236D01*
X154819986Y-98010448D01*
X154849353Y-98032362D01*
X154871043Y-98047333D01*
X154879253Y-98051733D01*
X154880868Y-98040904D01*
X154882159Y-98010251D01*
X154883138Y-97962526D01*
X154883817Y-97900479D01*
X154884210Y-97826862D01*
X154884330Y-97744427D01*
X154884188Y-97655925D01*
X154883797Y-97564107D01*
X154883171Y-97471724D01*
X154882320Y-97381528D01*
X154881260Y-97296271D01*
X154880001Y-97218703D01*
X154878556Y-97151576D01*
X154876938Y-97097641D01*
X154875161Y-97059650D01*
X154874669Y-97052667D01*
X154867092Y-96982251D01*
X154855531Y-96927102D01*
X154837792Y-96879981D01*
X154811682Y-96833647D01*
X154805415Y-96824067D01*
X154780983Y-96787378D01*
X155686311Y-96787378D01*
X155686507Y-98472245D01*
G37*
X152173574Y-97866552D02*
X152325492Y-97886567D01*
X152460756Y-97920202D01*
X152580239Y-97967725D01*
X152684815Y-98029405D01*
X152762424Y-98092965D01*
X152831265Y-98167099D01*
X152885006Y-98246871D01*
X152927910Y-98339091D01*
X152943384Y-98382161D01*
X152956244Y-98421142D01*
X152967446Y-98457289D01*
X152977120Y-98492434D01*
X152985396Y-98528410D01*
X152992403Y-98567050D01*
X152998272Y-98610185D01*
X153003131Y-98659649D01*
X153007110Y-98717273D01*
X153010340Y-98784891D01*
X153012949Y-98864334D01*
X153015067Y-98957436D01*
X153016824Y-99066027D01*
X153018349Y-99191942D01*
X153019772Y-99337012D01*
X153021025Y-99479778D01*
X153022351Y-99635968D01*
X153023556Y-99771239D01*
X153024766Y-99887246D01*
X153026106Y-99985645D01*
X153027700Y-100068093D01*
X153029675Y-100136246D01*
X153032156Y-100191760D01*
X153035269Y-100236292D01*
X153039138Y-100271498D01*
X153043889Y-100299034D01*
X153049648Y-100320556D01*
X153056539Y-100337722D01*
X153064689Y-100352186D01*
X153074223Y-100365606D01*
X153085266Y-100379638D01*
X153089566Y-100385071D01*
X153105386Y-100407910D01*
X153112422Y-100423463D01*
X153112444Y-100423922D01*
X153101567Y-100426121D01*
X153070582Y-100428147D01*
X153021957Y-100429942D01*
X152958163Y-100431451D01*
X152881669Y-100432616D01*
X152794944Y-100433380D01*
X152700457Y-100433686D01*
X152689550Y-100433689D01*
X152266657Y-100433689D01*
X152263395Y-100337622D01*
X152260133Y-100241556D01*
X152198044Y-100292543D01*
X152100714Y-100360057D01*
X151990813Y-100414749D01*
X151904349Y-100444978D01*
X151835278Y-100459666D01*
X151751925Y-100469659D01*
X151662159Y-100474646D01*
X151573845Y-100474313D01*
X151494851Y-100468351D01*
X151458622Y-100462638D01*
X151318603Y-100424776D01*
X151192178Y-100369932D01*
X151080260Y-100298924D01*
X150983762Y-100212568D01*
X150903600Y-100111679D01*
X150840687Y-99997076D01*
X150796312Y-99870984D01*
X150783978Y-99814401D01*
X150776368Y-99752202D01*
X150772739Y-99677363D01*
X150772245Y-99643467D01*
X150772310Y-99640282D01*
X151532248Y-99640282D01*
X151541541Y-99715333D01*
X151569728Y-99779160D01*
X151618197Y-99834798D01*
X151623254Y-99839211D01*
X151671548Y-99874037D01*
X151723257Y-99896620D01*
X151783989Y-99908540D01*
X151859352Y-99911383D01*
X151877459Y-99910978D01*
X151931278Y-99908325D01*
X151971308Y-99902909D01*
X152006324Y-99892745D01*
X152045103Y-99875850D01*
X152055745Y-99870672D01*
X152116396Y-99834844D01*
X152163215Y-99792212D01*
X152175952Y-99776973D01*
X152220622Y-99720462D01*
X152220622Y-99524586D01*
X152220086Y-99445939D01*
X152218396Y-99387988D01*
X152215428Y-99348875D01*
X152211057Y-99326741D01*
X152206972Y-99320274D01*
X152191047Y-99317111D01*
X152157264Y-99314488D01*
X152110340Y-99312655D01*
X152054993Y-99311857D01*
X152046106Y-99311842D01*
X151925330Y-99317096D01*
X151822660Y-99333263D01*
X151736106Y-99360961D01*
X151663681Y-99400808D01*
X151608751Y-99447758D01*
X151564204Y-99505645D01*
X151539480Y-99568693D01*
X151532248Y-99640282D01*
X150772310Y-99640282D01*
X150774178Y-99549712D01*
X150782522Y-99470812D01*
X150798768Y-99399590D01*
X150824405Y-99328864D01*
X150848401Y-99276493D01*
X150907020Y-99181196D01*
X150985117Y-99093170D01*
X151080315Y-99014017D01*
X151190238Y-98945340D01*
X151312510Y-98888741D01*
X151444755Y-98845821D01*
X151509422Y-98830882D01*
X151645604Y-98808777D01*
X151794049Y-98794194D01*
X151945505Y-98787813D01*
X152072064Y-98789445D01*
X152233950Y-98796224D01*
X152226530Y-98737245D01*
X152207238Y-98638092D01*
X152176104Y-98557372D01*
X152132269Y-98494466D01*
X152074871Y-98448756D01*
X152003048Y-98419622D01*
X151915941Y-98406447D01*
X151812686Y-98408611D01*
X151774711Y-98412612D01*
X151633520Y-98437780D01*
X151496707Y-98478814D01*
X151402178Y-98516815D01*
X151357018Y-98536190D01*
X151318585Y-98551760D01*
X151292234Y-98561405D01*
X151284546Y-98563452D01*
X151274802Y-98554374D01*
X151258083Y-98525405D01*
X151234232Y-98476217D01*
X151203093Y-98406484D01*
X151164507Y-98315879D01*
X151157910Y-98300089D01*
X151127853Y-98227772D01*
X151100874Y-98162425D01*
X151078136Y-98106906D01*
X151060806Y-98064072D01*
X151050048Y-98036781D01*
X151046941Y-98027942D01*
X151056940Y-98023187D01*
X151083217Y-98017910D01*
X151111489Y-98014231D01*
X151141646Y-98009474D01*
X151189433Y-98000028D01*
X151250612Y-97986820D01*
X151320946Y-97970776D01*
X151396194Y-97952820D01*
X151424755Y-97945797D01*
X151529816Y-97920209D01*
X151617480Y-97900147D01*
X151692068Y-97884969D01*
X151757903Y-97874035D01*
X151819307Y-97866704D01*
X151880602Y-97862335D01*
X151946110Y-97860287D01*
X152004128Y-97859889D01*
X152173574Y-97866552D01*
G36*
X152173574Y-97866552D02*
G01*
X152325492Y-97886567D01*
X152460756Y-97920202D01*
X152580239Y-97967725D01*
X152684815Y-98029405D01*
X152762424Y-98092965D01*
X152831265Y-98167099D01*
X152885006Y-98246871D01*
X152927910Y-98339091D01*
X152943384Y-98382161D01*
X152956244Y-98421142D01*
X152967446Y-98457289D01*
X152977120Y-98492434D01*
X152985396Y-98528410D01*
X152992403Y-98567050D01*
X152998272Y-98610185D01*
X153003131Y-98659649D01*
X153007110Y-98717273D01*
X153010340Y-98784891D01*
X153012949Y-98864334D01*
X153015067Y-98957436D01*
X153016824Y-99066027D01*
X153018349Y-99191942D01*
X153019772Y-99337012D01*
X153021025Y-99479778D01*
X153022351Y-99635968D01*
X153023556Y-99771239D01*
X153024766Y-99887246D01*
X153026106Y-99985645D01*
X153027700Y-100068093D01*
X153029675Y-100136246D01*
X153032156Y-100191760D01*
X153035269Y-100236292D01*
X153039138Y-100271498D01*
X153043889Y-100299034D01*
X153049648Y-100320556D01*
X153056539Y-100337722D01*
X153064689Y-100352186D01*
X153074223Y-100365606D01*
X153085266Y-100379638D01*
X153089566Y-100385071D01*
X153105386Y-100407910D01*
X153112422Y-100423463D01*
X153112444Y-100423922D01*
X153101567Y-100426121D01*
X153070582Y-100428147D01*
X153021957Y-100429942D01*
X152958163Y-100431451D01*
X152881669Y-100432616D01*
X152794944Y-100433380D01*
X152700457Y-100433686D01*
X152689550Y-100433689D01*
X152266657Y-100433689D01*
X152263395Y-100337622D01*
X152260133Y-100241556D01*
X152198044Y-100292543D01*
X152100714Y-100360057D01*
X151990813Y-100414749D01*
X151904349Y-100444978D01*
X151835278Y-100459666D01*
X151751925Y-100469659D01*
X151662159Y-100474646D01*
X151573845Y-100474313D01*
X151494851Y-100468351D01*
X151458622Y-100462638D01*
X151318603Y-100424776D01*
X151192178Y-100369932D01*
X151080260Y-100298924D01*
X150983762Y-100212568D01*
X150903600Y-100111679D01*
X150840687Y-99997076D01*
X150796312Y-99870984D01*
X150783978Y-99814401D01*
X150776368Y-99752202D01*
X150772739Y-99677363D01*
X150772245Y-99643467D01*
X150772310Y-99640282D01*
X151532248Y-99640282D01*
X151541541Y-99715333D01*
X151569728Y-99779160D01*
X151618197Y-99834798D01*
X151623254Y-99839211D01*
X151671548Y-99874037D01*
X151723257Y-99896620D01*
X151783989Y-99908540D01*
X151859352Y-99911383D01*
X151877459Y-99910978D01*
X151931278Y-99908325D01*
X151971308Y-99902909D01*
X152006324Y-99892745D01*
X152045103Y-99875850D01*
X152055745Y-99870672D01*
X152116396Y-99834844D01*
X152163215Y-99792212D01*
X152175952Y-99776973D01*
X152220622Y-99720462D01*
X152220622Y-99524586D01*
X152220086Y-99445939D01*
X152218396Y-99387988D01*
X152215428Y-99348875D01*
X152211057Y-99326741D01*
X152206972Y-99320274D01*
X152191047Y-99317111D01*
X152157264Y-99314488D01*
X152110340Y-99312655D01*
X152054993Y-99311857D01*
X152046106Y-99311842D01*
X151925330Y-99317096D01*
X151822660Y-99333263D01*
X151736106Y-99360961D01*
X151663681Y-99400808D01*
X151608751Y-99447758D01*
X151564204Y-99505645D01*
X151539480Y-99568693D01*
X151532248Y-99640282D01*
X150772310Y-99640282D01*
X150774178Y-99549712D01*
X150782522Y-99470812D01*
X150798768Y-99399590D01*
X150824405Y-99328864D01*
X150848401Y-99276493D01*
X150907020Y-99181196D01*
X150985117Y-99093170D01*
X151080315Y-99014017D01*
X151190238Y-98945340D01*
X151312510Y-98888741D01*
X151444755Y-98845821D01*
X151509422Y-98830882D01*
X151645604Y-98808777D01*
X151794049Y-98794194D01*
X151945505Y-98787813D01*
X152072064Y-98789445D01*
X152233950Y-98796224D01*
X152226530Y-98737245D01*
X152207238Y-98638092D01*
X152176104Y-98557372D01*
X152132269Y-98494466D01*
X152074871Y-98448756D01*
X152003048Y-98419622D01*
X151915941Y-98406447D01*
X151812686Y-98408611D01*
X151774711Y-98412612D01*
X151633520Y-98437780D01*
X151496707Y-98478814D01*
X151402178Y-98516815D01*
X151357018Y-98536190D01*
X151318585Y-98551760D01*
X151292234Y-98561405D01*
X151284546Y-98563452D01*
X151274802Y-98554374D01*
X151258083Y-98525405D01*
X151234232Y-98476217D01*
X151203093Y-98406484D01*
X151164507Y-98315879D01*
X151157910Y-98300089D01*
X151127853Y-98227772D01*
X151100874Y-98162425D01*
X151078136Y-98106906D01*
X151060806Y-98064072D01*
X151050048Y-98036781D01*
X151046941Y-98027942D01*
X151056940Y-98023187D01*
X151083217Y-98017910D01*
X151111489Y-98014231D01*
X151141646Y-98009474D01*
X151189433Y-98000028D01*
X151250612Y-97986820D01*
X151320946Y-97970776D01*
X151396194Y-97952820D01*
X151424755Y-97945797D01*
X151529816Y-97920209D01*
X151617480Y-97900147D01*
X151692068Y-97884969D01*
X151757903Y-97874035D01*
X151819307Y-97866704D01*
X151880602Y-97862335D01*
X151946110Y-97860287D01*
X152004128Y-97859889D01*
X152173574Y-97866552D01*
G37*
X146553600Y-96489054D02*
X146564465Y-96602993D01*
X146596082Y-96710616D01*
X146646985Y-96809615D01*
X146715707Y-96897684D01*
X146800781Y-96972516D01*
X146897768Y-97030384D01*
X147004036Y-97070005D01*
X147111050Y-97088573D01*
X147216700Y-97087434D01*
X147318875Y-97067930D01*
X147415466Y-97031406D01*
X147504362Y-96979205D01*
X147583454Y-96912673D01*
X147650631Y-96833152D01*
X147703783Y-96741987D01*
X147740801Y-96640523D01*
X147759573Y-96530102D01*
X147761511Y-96480206D01*
X147761511Y-96392267D01*
X147813440Y-96392267D01*
X147849747Y-96395111D01*
X147876645Y-96406911D01*
X147903751Y-96430649D01*
X147942133Y-96469031D01*
X147942133Y-98660602D01*
X147942124Y-98922739D01*
X147942092Y-99163241D01*
X147942028Y-99383048D01*
X147941924Y-99583101D01*
X147941773Y-99764344D01*
X147941566Y-99927716D01*
X147941294Y-100074160D01*
X147940950Y-100204617D01*
X147940526Y-100320029D01*
X147940013Y-100421338D01*
X147939403Y-100509484D01*
X147938688Y-100585410D01*
X147937860Y-100650057D01*
X147936911Y-100704367D01*
X147935833Y-100749280D01*
X147934617Y-100785740D01*
X147933255Y-100814687D01*
X147931739Y-100837063D01*
X147930062Y-100853809D01*
X147928214Y-100865868D01*
X147926187Y-100874180D01*
X147923975Y-100879687D01*
X147922892Y-100881537D01*
X147918729Y-100888549D01*
X147915195Y-100894996D01*
X147911365Y-100900900D01*
X147906318Y-100906286D01*
X147899129Y-100911178D01*
X147888877Y-100915598D01*
X147874636Y-100919572D01*
X147855486Y-100923121D01*
X147830501Y-100926270D01*
X147798760Y-100929042D01*
X147759338Y-100931461D01*
X147711314Y-100933551D01*
X147653763Y-100935335D01*
X147585763Y-100936837D01*
X147506390Y-100938080D01*
X147414721Y-100939089D01*
X147309834Y-100939885D01*
X147190804Y-100940494D01*
X147056710Y-100940939D01*
X146906627Y-100941243D01*
X146739633Y-100941430D01*
X146554804Y-100941524D01*
X146351217Y-100941548D01*
X146127950Y-100941525D01*
X145884078Y-100941480D01*
X145618679Y-100941437D01*
X145580296Y-100941432D01*
X145313318Y-100941389D01*
X145067998Y-100941318D01*
X144843417Y-100941213D01*
X144638655Y-100941066D01*
X144452794Y-100940869D01*
X144284912Y-100940616D01*
X144134092Y-100940300D01*
X143999413Y-100939913D01*
X143879956Y-100939447D01*
X143774801Y-100938897D01*
X143683029Y-100938253D01*
X143603721Y-100937511D01*
X143535957Y-100936661D01*
X143478818Y-100935697D01*
X143431383Y-100934611D01*
X143392734Y-100933397D01*
X143361951Y-100932047D01*
X143338115Y-100930555D01*
X143320306Y-100928911D01*
X143307605Y-100927111D01*
X143299092Y-100925145D01*
X143294734Y-100923477D01*
X143286272Y-100919906D01*
X143278503Y-100917270D01*
X143271398Y-100914634D01*
X143264927Y-100911062D01*
X143259061Y-100905621D01*
X143253771Y-100897375D01*
X143249026Y-100885390D01*
X143244798Y-100868731D01*
X143241057Y-100846463D01*
X143237773Y-100817652D01*
X143234917Y-100781363D01*
X143232460Y-100736661D01*
X143230371Y-100682611D01*
X143228622Y-100618279D01*
X143227183Y-100542730D01*
X143226024Y-100455030D01*
X143225117Y-100354243D01*
X143224431Y-100239434D01*
X143223937Y-100109670D01*
X143223605Y-99964015D01*
X143223407Y-99801535D01*
X143223313Y-99621295D01*
X143223292Y-99422360D01*
X143223315Y-99203796D01*
X143223354Y-98964668D01*
X143223378Y-98704040D01*
X143223378Y-98661889D01*
X143223364Y-98398992D01*
X143223339Y-98157732D01*
X143223329Y-97937165D01*
X143223358Y-97736352D01*
X143223452Y-97554349D01*
X143223638Y-97390216D01*
X143223941Y-97243011D01*
X143224386Y-97111792D01*
X143224966Y-97001867D01*
X143527803Y-97001867D01*
X143567593Y-97059711D01*
X143578764Y-97075479D01*
X143588834Y-97089441D01*
X143597862Y-97102784D01*
X143605903Y-97116693D01*
X143613014Y-97132356D01*
X143619253Y-97150958D01*
X143624675Y-97173686D01*
X143629338Y-97201727D01*
X143633299Y-97236267D01*
X143636615Y-97278492D01*
X143639341Y-97329589D01*
X143641536Y-97390744D01*
X143643255Y-97463144D01*
X143644556Y-97547975D01*
X143645495Y-97646422D01*
X143646130Y-97759674D01*
X143646516Y-97888916D01*
X143646712Y-98035334D01*
X143646773Y-98200116D01*
X143646757Y-98384447D01*
X143646720Y-98589513D01*
X143646711Y-98712133D01*
X143646735Y-98929082D01*
X143646769Y-99124642D01*
X143646757Y-99299999D01*
X143646642Y-99456341D01*
X143646370Y-99594857D01*
X143645882Y-99716734D01*
X143645124Y-99823160D01*
X143644038Y-99915322D01*
X143642569Y-99994409D01*
X143640660Y-100061608D01*
X143638256Y-100118107D01*
X143635299Y-100165093D01*
X143631734Y-100203755D01*
X143627505Y-100235280D01*
X143622554Y-100260855D01*
X143616827Y-100281670D01*
X143610267Y-100298911D01*
X143602817Y-100313765D01*
X143594421Y-100327422D01*
X143585024Y-100341069D01*
X143574568Y-100355893D01*
X143568477Y-100364783D01*
X143529704Y-100422400D01*
X144061268Y-100422400D01*
X144184517Y-100422365D01*
X144287013Y-100422215D01*
X144370580Y-100421878D01*
X144437044Y-100421286D01*
X144488229Y-100420367D01*
X144525959Y-100419051D01*
X144552060Y-100417269D01*
X144568356Y-100414951D01*
X144576672Y-100412026D01*
X144578832Y-100408424D01*
X144576661Y-100404075D01*
X144575465Y-100402645D01*
X144550315Y-100365573D01*
X144524417Y-100312772D01*
X144500808Y-100250770D01*
X144492539Y-100224357D01*
X144487922Y-100206416D01*
X144484021Y-100185355D01*
X144480752Y-100159089D01*
X144478034Y-100125532D01*
X144475785Y-100082599D01*
X144473923Y-100028204D01*
X144472364Y-99960262D01*
X144471028Y-99876688D01*
X144469831Y-99775395D01*
X144468692Y-99654300D01*
X144468315Y-99609600D01*
X144467298Y-99484449D01*
X144466540Y-99380082D01*
X144466097Y-99294707D01*
X144466030Y-99226533D01*
X144466395Y-99173765D01*
X144467252Y-99134614D01*
X144468659Y-99107285D01*
X144470675Y-99089986D01*
X144473357Y-99080926D01*
X144476764Y-99078312D01*
X144480956Y-99080351D01*
X144485429Y-99084667D01*
X144495784Y-99097602D01*
X144517842Y-99126676D01*
X144550043Y-99169759D01*
X144590826Y-99224718D01*
X144638630Y-99289423D01*
X144691895Y-99361742D01*
X144749060Y-99439544D01*
X144808563Y-99520698D01*
X144868845Y-99603072D01*
X144928345Y-99684536D01*
X144985502Y-99762957D01*
X145038755Y-99836204D01*
X145086543Y-99902147D01*
X145127307Y-99958654D01*
X145159484Y-100003593D01*
X145181515Y-100034834D01*
X145186083Y-100041466D01*
X145209004Y-100078369D01*
X145235812Y-100126359D01*
X145261211Y-100175897D01*
X145264432Y-100182577D01*
X145286110Y-100230772D01*
X145298696Y-100268334D01*
X145304426Y-100304160D01*
X145305544Y-100346200D01*
X145304910Y-100422400D01*
X146459349Y-100422400D01*
X146454347Y-100417257D01*
X146666489Y-100417257D01*
X146677396Y-100418334D01*
X146708589Y-100419335D01*
X146757777Y-100420235D01*
X146822667Y-100421010D01*
X146900970Y-100421637D01*
X146990393Y-100422091D01*
X147088644Y-100422349D01*
X147157555Y-100422400D01*
X147262548Y-100422180D01*
X147359390Y-100421548D01*
X147445893Y-100420549D01*
X147519868Y-100419227D01*
X147579126Y-100417626D01*
X147621480Y-100415791D01*
X147644740Y-100413765D01*
X147648622Y-100412493D01*
X147640924Y-100397591D01*
X147632926Y-100389560D01*
X147619754Y-100372434D01*
X147602515Y-100342183D01*
X147590593Y-100317622D01*
X147563955Y-100258711D01*
X147560880Y-99081845D01*
X147557805Y-97904978D01*
X147112147Y-97904978D01*
X147014330Y-97905142D01*
X146923936Y-97905611D01*
X146843370Y-97906347D01*
X146775038Y-97907316D01*
X146721344Y-97908480D01*
X146684695Y-97909803D01*
X146667496Y-97911249D01*
X146666489Y-97911702D01*
X146672398Y-97924659D01*
X146686728Y-97946908D01*
X146687775Y-97948391D01*
X146706562Y-97978544D01*
X146726209Y-98015375D01*
X146730108Y-98023511D01*
X146733644Y-98031940D01*
X146736770Y-98042059D01*
X146739514Y-98055260D01*
X146741908Y-98072938D01*
X146743981Y-98096484D01*
X146745765Y-98127293D01*
X146747288Y-98166757D01*
X146748581Y-98216269D01*
X146749674Y-98277223D01*
X146750597Y-98351011D01*
X146751381Y-98439028D01*
X146752055Y-98542665D01*
X146752650Y-98663316D01*
X146753195Y-98802374D01*
X146753721Y-98961232D01*
X146754255Y-99140089D01*
X146754794Y-99325207D01*
X146755228Y-99489145D01*
X146755491Y-99633303D01*
X146755516Y-99759079D01*
X146755235Y-99867871D01*
X146754581Y-99961077D01*
X146753486Y-100040097D01*
X146751882Y-100106328D01*
X146749703Y-100161170D01*
X146746881Y-100206021D01*
X146743349Y-100242278D01*
X146739039Y-100271341D01*
X146733883Y-100294609D01*
X146727815Y-100313479D01*
X146720767Y-100329351D01*
X146712671Y-100343622D01*
X146703460Y-100357691D01*
X146694960Y-100370158D01*
X146677824Y-100396452D01*
X146667678Y-100414037D01*
X146666489Y-100417257D01*
X146454347Y-100417257D01*
X146368185Y-100328669D01*
X146321388Y-100278775D01*
X146271101Y-100222295D01*
X146225056Y-100168026D01*
X146204631Y-100142673D01*
X146174193Y-100103128D01*
X146134138Y-100049916D01*
X146085639Y-99984667D01*
X146029865Y-99909011D01*
X145967989Y-99824577D01*
X145901181Y-99732994D01*
X145830613Y-99635892D01*
X145757455Y-99534901D01*
X145682879Y-99431650D01*
X145608056Y-99327768D01*
X145534157Y-99224885D01*
X145462354Y-99124631D01*
X145393816Y-99028636D01*
X145329716Y-98938527D01*
X145271225Y-98855936D01*
X145219514Y-98782492D01*
X145175753Y-98719824D01*
X145141115Y-98669561D01*
X145116770Y-98633334D01*
X145103889Y-98612771D01*
X145102131Y-98608668D01*
X145110090Y-98597342D01*
X145130885Y-98570162D01*
X145163153Y-98528829D01*
X145205530Y-98475044D01*
X145256653Y-98410506D01*
X145315159Y-98336918D01*
X145379686Y-98255978D01*
X145448869Y-98169388D01*
X145521347Y-98078848D01*
X145595754Y-97986060D01*
X145655483Y-97911702D01*
X145670730Y-97892722D01*
X145744910Y-97800537D01*
X145816931Y-97711204D01*
X145885431Y-97626424D01*
X145949045Y-97547898D01*
X146006412Y-97477326D01*
X146056167Y-97416409D01*
X146096948Y-97366847D01*
X146114112Y-97346178D01*
X146200404Y-97245516D01*
X146277003Y-97162259D01*
X146345817Y-97094438D01*
X146408752Y-97040089D01*
X146418133Y-97032722D01*
X146457644Y-97002117D01*
X145325884Y-97001867D01*
X145331173Y-97049844D01*
X145327870Y-97107188D01*
X145306339Y-97175463D01*
X145266365Y-97255212D01*
X145221057Y-97327495D01*
X145204839Y-97350140D01*
X145176786Y-97387696D01*
X145138570Y-97438021D01*
X145091863Y-97498973D01*
X145038339Y-97568411D01*
X144979669Y-97644194D01*
X144917525Y-97724180D01*
X144853579Y-97806228D01*
X144789505Y-97888196D01*
X144726973Y-97967943D01*
X144667657Y-98043327D01*
X144613229Y-98112207D01*
X144565361Y-98172442D01*
X144525725Y-98221889D01*
X144495994Y-98258408D01*
X144477839Y-98279858D01*
X144474780Y-98283156D01*
X144471921Y-98275149D01*
X144469707Y-98244855D01*
X144468143Y-98192556D01*
X144467233Y-98118531D01*
X144466980Y-98023063D01*
X144467387Y-97906434D01*
X144468296Y-97786445D01*
X144469618Y-97654333D01*
X144471143Y-97542594D01*
X144473119Y-97449025D01*
X144475794Y-97371419D01*
X144479418Y-97307574D01*
X144484239Y-97255283D01*
X144490506Y-97212344D01*
X144498468Y-97176551D01*
X144508373Y-97145700D01*
X144520469Y-97117586D01*
X144535007Y-97090005D01*
X144549689Y-97064966D01*
X144587686Y-97001867D01*
X143527803Y-97001867D01*
X143224966Y-97001867D01*
X143224999Y-96995617D01*
X143225805Y-96893544D01*
X143226830Y-96804633D01*
X143228100Y-96727941D01*
X143229640Y-96662527D01*
X143231476Y-96607449D01*
X143233633Y-96561765D01*
X143236137Y-96524534D01*
X143239013Y-96494813D01*
X143242287Y-96471662D01*
X143245985Y-96454139D01*
X143250131Y-96441301D01*
X143254753Y-96432208D01*
X143259874Y-96425918D01*
X143265522Y-96421488D01*
X143271721Y-96417978D01*
X143278496Y-96414445D01*
X143284492Y-96410876D01*
X143289725Y-96408300D01*
X143297901Y-96405972D01*
X143310114Y-96403878D01*
X143327459Y-96402007D01*
X143351031Y-96400347D01*
X143381923Y-96398884D01*
X143421232Y-96397608D01*
X143470050Y-96396504D01*
X143529473Y-96395561D01*
X143600596Y-96394767D01*
X143684512Y-96394109D01*
X143782317Y-96393575D01*
X143895106Y-96393153D01*
X144023971Y-96392829D01*
X144170009Y-96392592D01*
X144334314Y-96392430D01*
X144517980Y-96392330D01*
X144722103Y-96392280D01*
X144933247Y-96392267D01*
X146553600Y-96392267D01*
X146553600Y-96489054D01*
G36*
X146553600Y-96489054D02*
G01*
X146564465Y-96602993D01*
X146596082Y-96710616D01*
X146646985Y-96809615D01*
X146715707Y-96897684D01*
X146800781Y-96972516D01*
X146897768Y-97030384D01*
X147004036Y-97070005D01*
X147111050Y-97088573D01*
X147216700Y-97087434D01*
X147318875Y-97067930D01*
X147415466Y-97031406D01*
X147504362Y-96979205D01*
X147583454Y-96912673D01*
X147650631Y-96833152D01*
X147703783Y-96741987D01*
X147740801Y-96640523D01*
X147759573Y-96530102D01*
X147761511Y-96480206D01*
X147761511Y-96392267D01*
X147813440Y-96392267D01*
X147849747Y-96395111D01*
X147876645Y-96406911D01*
X147903751Y-96430649D01*
X147942133Y-96469031D01*
X147942133Y-98660602D01*
X147942124Y-98922739D01*
X147942092Y-99163241D01*
X147942028Y-99383048D01*
X147941924Y-99583101D01*
X147941773Y-99764344D01*
X147941566Y-99927716D01*
X147941294Y-100074160D01*
X147940950Y-100204617D01*
X147940526Y-100320029D01*
X147940013Y-100421338D01*
X147939403Y-100509484D01*
X147938688Y-100585410D01*
X147937860Y-100650057D01*
X147936911Y-100704367D01*
X147935833Y-100749280D01*
X147934617Y-100785740D01*
X147933255Y-100814687D01*
X147931739Y-100837063D01*
X147930062Y-100853809D01*
X147928214Y-100865868D01*
X147926187Y-100874180D01*
X147923975Y-100879687D01*
X147922892Y-100881537D01*
X147918729Y-100888549D01*
X147915195Y-100894996D01*
X147911365Y-100900900D01*
X147906318Y-100906286D01*
X147899129Y-100911178D01*
X147888877Y-100915598D01*
X147874636Y-100919572D01*
X147855486Y-100923121D01*
X147830501Y-100926270D01*
X147798760Y-100929042D01*
X147759338Y-100931461D01*
X147711314Y-100933551D01*
X147653763Y-100935335D01*
X147585763Y-100936837D01*
X147506390Y-100938080D01*
X147414721Y-100939089D01*
X147309834Y-100939885D01*
X147190804Y-100940494D01*
X147056710Y-100940939D01*
X146906627Y-100941243D01*
X146739633Y-100941430D01*
X146554804Y-100941524D01*
X146351217Y-100941548D01*
X146127950Y-100941525D01*
X145884078Y-100941480D01*
X145618679Y-100941437D01*
X145580296Y-100941432D01*
X145313318Y-100941389D01*
X145067998Y-100941318D01*
X144843417Y-100941213D01*
X144638655Y-100941066D01*
X144452794Y-100940869D01*
X144284912Y-100940616D01*
X144134092Y-100940300D01*
X143999413Y-100939913D01*
X143879956Y-100939447D01*
X143774801Y-100938897D01*
X143683029Y-100938253D01*
X143603721Y-100937511D01*
X143535957Y-100936661D01*
X143478818Y-100935697D01*
X143431383Y-100934611D01*
X143392734Y-100933397D01*
X143361951Y-100932047D01*
X143338115Y-100930555D01*
X143320306Y-100928911D01*
X143307605Y-100927111D01*
X143299092Y-100925145D01*
X143294734Y-100923477D01*
X143286272Y-100919906D01*
X143278503Y-100917270D01*
X143271398Y-100914634D01*
X143264927Y-100911062D01*
X143259061Y-100905621D01*
X143253771Y-100897375D01*
X143249026Y-100885390D01*
X143244798Y-100868731D01*
X143241057Y-100846463D01*
X143237773Y-100817652D01*
X143234917Y-100781363D01*
X143232460Y-100736661D01*
X143230371Y-100682611D01*
X143228622Y-100618279D01*
X143227183Y-100542730D01*
X143226024Y-100455030D01*
X143225117Y-100354243D01*
X143224431Y-100239434D01*
X143223937Y-100109670D01*
X143223605Y-99964015D01*
X143223407Y-99801535D01*
X143223313Y-99621295D01*
X143223292Y-99422360D01*
X143223315Y-99203796D01*
X143223354Y-98964668D01*
X143223378Y-98704040D01*
X143223378Y-98661889D01*
X143223364Y-98398992D01*
X143223339Y-98157732D01*
X143223329Y-97937165D01*
X143223358Y-97736352D01*
X143223452Y-97554349D01*
X143223638Y-97390216D01*
X143223941Y-97243011D01*
X143224386Y-97111792D01*
X143224966Y-97001867D01*
X143527803Y-97001867D01*
X143567593Y-97059711D01*
X143578764Y-97075479D01*
X143588834Y-97089441D01*
X143597862Y-97102784D01*
X143605903Y-97116693D01*
X143613014Y-97132356D01*
X143619253Y-97150958D01*
X143624675Y-97173686D01*
X143629338Y-97201727D01*
X143633299Y-97236267D01*
X143636615Y-97278492D01*
X143639341Y-97329589D01*
X143641536Y-97390744D01*
X143643255Y-97463144D01*
X143644556Y-97547975D01*
X143645495Y-97646422D01*
X143646130Y-97759674D01*
X143646516Y-97888916D01*
X143646712Y-98035334D01*
X143646773Y-98200116D01*
X143646757Y-98384447D01*
X143646720Y-98589513D01*
X143646711Y-98712133D01*
X143646735Y-98929082D01*
X143646769Y-99124642D01*
X143646757Y-99299999D01*
X143646642Y-99456341D01*
X143646370Y-99594857D01*
X143645882Y-99716734D01*
X143645124Y-99823160D01*
X143644038Y-99915322D01*
X143642569Y-99994409D01*
X143640660Y-100061608D01*
X143638256Y-100118107D01*
X143635299Y-100165093D01*
X143631734Y-100203755D01*
X143627505Y-100235280D01*
X143622554Y-100260855D01*
X143616827Y-100281670D01*
X143610267Y-100298911D01*
X143602817Y-100313765D01*
X143594421Y-100327422D01*
X143585024Y-100341069D01*
X143574568Y-100355893D01*
X143568477Y-100364783D01*
X143529704Y-100422400D01*
X144061268Y-100422400D01*
X144184517Y-100422365D01*
X144287013Y-100422215D01*
X144370580Y-100421878D01*
X144437044Y-100421286D01*
X144488229Y-100420367D01*
X144525959Y-100419051D01*
X144552060Y-100417269D01*
X144568356Y-100414951D01*
X144576672Y-100412026D01*
X144578832Y-100408424D01*
X144576661Y-100404075D01*
X144575465Y-100402645D01*
X144550315Y-100365573D01*
X144524417Y-100312772D01*
X144500808Y-100250770D01*
X144492539Y-100224357D01*
X144487922Y-100206416D01*
X144484021Y-100185355D01*
X144480752Y-100159089D01*
X144478034Y-100125532D01*
X144475785Y-100082599D01*
X144473923Y-100028204D01*
X144472364Y-99960262D01*
X144471028Y-99876688D01*
X144469831Y-99775395D01*
X144468692Y-99654300D01*
X144468315Y-99609600D01*
X144467298Y-99484449D01*
X144466540Y-99380082D01*
X144466097Y-99294707D01*
X144466030Y-99226533D01*
X144466395Y-99173765D01*
X144467252Y-99134614D01*
X144468659Y-99107285D01*
X144470675Y-99089986D01*
X144473357Y-99080926D01*
X144476764Y-99078312D01*
X144480956Y-99080351D01*
X144485429Y-99084667D01*
X144495784Y-99097602D01*
X144517842Y-99126676D01*
X144550043Y-99169759D01*
X144590826Y-99224718D01*
X144638630Y-99289423D01*
X144691895Y-99361742D01*
X144749060Y-99439544D01*
X144808563Y-99520698D01*
X144868845Y-99603072D01*
X144928345Y-99684536D01*
X144985502Y-99762957D01*
X145038755Y-99836204D01*
X145086543Y-99902147D01*
X145127307Y-99958654D01*
X145159484Y-100003593D01*
X145181515Y-100034834D01*
X145186083Y-100041466D01*
X145209004Y-100078369D01*
X145235812Y-100126359D01*
X145261211Y-100175897D01*
X145264432Y-100182577D01*
X145286110Y-100230772D01*
X145298696Y-100268334D01*
X145304426Y-100304160D01*
X145305544Y-100346200D01*
X145304910Y-100422400D01*
X146459349Y-100422400D01*
X146454347Y-100417257D01*
X146666489Y-100417257D01*
X146677396Y-100418334D01*
X146708589Y-100419335D01*
X146757777Y-100420235D01*
X146822667Y-100421010D01*
X146900970Y-100421637D01*
X146990393Y-100422091D01*
X147088644Y-100422349D01*
X147157555Y-100422400D01*
X147262548Y-100422180D01*
X147359390Y-100421548D01*
X147445893Y-100420549D01*
X147519868Y-100419227D01*
X147579126Y-100417626D01*
X147621480Y-100415791D01*
X147644740Y-100413765D01*
X147648622Y-100412493D01*
X147640924Y-100397591D01*
X147632926Y-100389560D01*
X147619754Y-100372434D01*
X147602515Y-100342183D01*
X147590593Y-100317622D01*
X147563955Y-100258711D01*
X147560880Y-99081845D01*
X147557805Y-97904978D01*
X147112147Y-97904978D01*
X147014330Y-97905142D01*
X146923936Y-97905611D01*
X146843370Y-97906347D01*
X146775038Y-97907316D01*
X146721344Y-97908480D01*
X146684695Y-97909803D01*
X146667496Y-97911249D01*
X146666489Y-97911702D01*
X146672398Y-97924659D01*
X146686728Y-97946908D01*
X146687775Y-97948391D01*
X146706562Y-97978544D01*
X146726209Y-98015375D01*
X146730108Y-98023511D01*
X146733644Y-98031940D01*
X146736770Y-98042059D01*
X146739514Y-98055260D01*
X146741908Y-98072938D01*
X146743981Y-98096484D01*
X146745765Y-98127293D01*
X146747288Y-98166757D01*
X146748581Y-98216269D01*
X146749674Y-98277223D01*
X146750597Y-98351011D01*
X146751381Y-98439028D01*
X146752055Y-98542665D01*
X146752650Y-98663316D01*
X146753195Y-98802374D01*
X146753721Y-98961232D01*
X146754255Y-99140089D01*
X146754794Y-99325207D01*
X146755228Y-99489145D01*
X146755491Y-99633303D01*
X146755516Y-99759079D01*
X146755235Y-99867871D01*
X146754581Y-99961077D01*
X146753486Y-100040097D01*
X146751882Y-100106328D01*
X146749703Y-100161170D01*
X146746881Y-100206021D01*
X146743349Y-100242278D01*
X146739039Y-100271341D01*
X146733883Y-100294609D01*
X146727815Y-100313479D01*
X146720767Y-100329351D01*
X146712671Y-100343622D01*
X146703460Y-100357691D01*
X146694960Y-100370158D01*
X146677824Y-100396452D01*
X146667678Y-100414037D01*
X146666489Y-100417257D01*
X146454347Y-100417257D01*
X146368185Y-100328669D01*
X146321388Y-100278775D01*
X146271101Y-100222295D01*
X146225056Y-100168026D01*
X146204631Y-100142673D01*
X146174193Y-100103128D01*
X146134138Y-100049916D01*
X146085639Y-99984667D01*
X146029865Y-99909011D01*
X145967989Y-99824577D01*
X145901181Y-99732994D01*
X145830613Y-99635892D01*
X145757455Y-99534901D01*
X145682879Y-99431650D01*
X145608056Y-99327768D01*
X145534157Y-99224885D01*
X145462354Y-99124631D01*
X145393816Y-99028636D01*
X145329716Y-98938527D01*
X145271225Y-98855936D01*
X145219514Y-98782492D01*
X145175753Y-98719824D01*
X145141115Y-98669561D01*
X145116770Y-98633334D01*
X145103889Y-98612771D01*
X145102131Y-98608668D01*
X145110090Y-98597342D01*
X145130885Y-98570162D01*
X145163153Y-98528829D01*
X145205530Y-98475044D01*
X145256653Y-98410506D01*
X145315159Y-98336918D01*
X145379686Y-98255978D01*
X145448869Y-98169388D01*
X145521347Y-98078848D01*
X145595754Y-97986060D01*
X145655483Y-97911702D01*
X145670730Y-97892722D01*
X145744910Y-97800537D01*
X145816931Y-97711204D01*
X145885431Y-97626424D01*
X145949045Y-97547898D01*
X146006412Y-97477326D01*
X146056167Y-97416409D01*
X146096948Y-97366847D01*
X146114112Y-97346178D01*
X146200404Y-97245516D01*
X146277003Y-97162259D01*
X146345817Y-97094438D01*
X146408752Y-97040089D01*
X146418133Y-97032722D01*
X146457644Y-97002117D01*
X145325884Y-97001867D01*
X145331173Y-97049844D01*
X145327870Y-97107188D01*
X145306339Y-97175463D01*
X145266365Y-97255212D01*
X145221057Y-97327495D01*
X145204839Y-97350140D01*
X145176786Y-97387696D01*
X145138570Y-97438021D01*
X145091863Y-97498973D01*
X145038339Y-97568411D01*
X144979669Y-97644194D01*
X144917525Y-97724180D01*
X144853579Y-97806228D01*
X144789505Y-97888196D01*
X144726973Y-97967943D01*
X144667657Y-98043327D01*
X144613229Y-98112207D01*
X144565361Y-98172442D01*
X144525725Y-98221889D01*
X144495994Y-98258408D01*
X144477839Y-98279858D01*
X144474780Y-98283156D01*
X144471921Y-98275149D01*
X144469707Y-98244855D01*
X144468143Y-98192556D01*
X144467233Y-98118531D01*
X144466980Y-98023063D01*
X144467387Y-97906434D01*
X144468296Y-97786445D01*
X144469618Y-97654333D01*
X144471143Y-97542594D01*
X144473119Y-97449025D01*
X144475794Y-97371419D01*
X144479418Y-97307574D01*
X144484239Y-97255283D01*
X144490506Y-97212344D01*
X144498468Y-97176551D01*
X144508373Y-97145700D01*
X144520469Y-97117586D01*
X144535007Y-97090005D01*
X144549689Y-97064966D01*
X144587686Y-97001867D01*
X143527803Y-97001867D01*
X143224966Y-97001867D01*
X143224999Y-96995617D01*
X143225805Y-96893544D01*
X143226830Y-96804633D01*
X143228100Y-96727941D01*
X143229640Y-96662527D01*
X143231476Y-96607449D01*
X143233633Y-96561765D01*
X143236137Y-96524534D01*
X143239013Y-96494813D01*
X143242287Y-96471662D01*
X143245985Y-96454139D01*
X143250131Y-96441301D01*
X143254753Y-96432208D01*
X143259874Y-96425918D01*
X143265522Y-96421488D01*
X143271721Y-96417978D01*
X143278496Y-96414445D01*
X143284492Y-96410876D01*
X143289725Y-96408300D01*
X143297901Y-96405972D01*
X143310114Y-96403878D01*
X143327459Y-96402007D01*
X143351031Y-96400347D01*
X143381923Y-96398884D01*
X143421232Y-96397608D01*
X143470050Y-96396504D01*
X143529473Y-96395561D01*
X143600596Y-96394767D01*
X143684512Y-96394109D01*
X143782317Y-96393575D01*
X143895106Y-96393153D01*
X144023971Y-96392829D01*
X144170009Y-96392592D01*
X144334314Y-96392430D01*
X144517980Y-96392330D01*
X144722103Y-96392280D01*
X144933247Y-96392267D01*
X146553600Y-96392267D01*
X146553600Y-96489054D01*
G37*
D13*
%TO.C,J4*%
X131810000Y-90620000D02*
X131810000Y-93380000D01*
X139540000Y-90620000D02*
X131810000Y-90620000D01*
X139540000Y-90620000D02*
X139540000Y-93380000D01*
X139540000Y-93380000D02*
X131810000Y-93380000D01*
X140810000Y-90620000D02*
X142190000Y-90620000D01*
X142190000Y-90620000D02*
X142190000Y-92000000D01*
%TO.C,C6*%
X134968427Y-111720591D02*
X134968427Y-111936263D01*
X135688427Y-111720591D02*
X135688427Y-111936263D01*
%TO.C,Y1*%
X129790000Y-106368427D02*
X129790000Y-110488427D01*
X133210000Y-106368427D02*
X129790000Y-106368427D01*
%TO.C,D1*%
X149093427Y-110843427D02*
X149093427Y-113128427D01*
X150563427Y-110843427D02*
X149093427Y-110843427D01*
X150563427Y-113128427D02*
X150563427Y-110843427D01*
%TO.C,R3*%
X153674786Y-110948427D02*
X153982068Y-110948427D01*
X153674786Y-111708427D02*
X153982068Y-111708427D01*
%TO.C,C8*%
X146107836Y-115140000D02*
X145892164Y-115140000D01*
X146107836Y-115860000D02*
X145892164Y-115860000D01*
%TO.C,C10*%
X130220591Y-110968427D02*
X130436263Y-110968427D01*
X130220591Y-111688427D02*
X130436263Y-111688427D01*
%TO.C,C4*%
X135436263Y-104968427D02*
X135220591Y-104968427D01*
X135436263Y-105688427D02*
X135220591Y-105688427D01*
%TO.C,FB1*%
X136337221Y-113818427D02*
X136662779Y-113818427D01*
X136337221Y-114838427D02*
X136662779Y-114838427D01*
%TO.C,R1*%
X132674786Y-98948427D02*
X132982068Y-98948427D01*
X132674786Y-99708427D02*
X132982068Y-99708427D01*
%TO.C,J3*%
X138620000Y-119880000D02*
X138620000Y-118500000D01*
X140000000Y-119880000D02*
X138620000Y-119880000D01*
X141270000Y-117120000D02*
X149000000Y-117120000D01*
X141270000Y-119880000D02*
X141270000Y-117120000D01*
X141270000Y-119880000D02*
X149000000Y-119880000D01*
X149000000Y-119880000D02*
X149000000Y-117120000D01*
%TO.C,C12*%
X157089679Y-116093427D02*
X156567175Y-116093427D01*
X157089679Y-117563427D02*
X156567175Y-117563427D01*
%TO.C,C13*%
X155089679Y-113593427D02*
X154567175Y-113593427D01*
X155089679Y-115063427D02*
X154567175Y-115063427D01*
%TO.C,U1*%
X138218427Y-104218427D02*
X138668427Y-104218427D01*
X138218427Y-104668427D02*
X138218427Y-104218427D01*
X138218427Y-111438427D02*
X138218427Y-110988427D01*
X138668427Y-111438427D02*
X138218427Y-111438427D01*
X144988427Y-104218427D02*
X145438427Y-104218427D01*
X145438427Y-104218427D02*
X145438427Y-104668427D01*
X145438427Y-110988427D02*
X145438427Y-111438427D01*
X145438427Y-111438427D02*
X144988427Y-111438427D01*
X137578427Y-104668427D02*
X137238427Y-104198427D01*
X137918427Y-104198427D01*
X137578427Y-104668427D01*
G36*
X137578427Y-104668427D02*
G01*
X137238427Y-104198427D01*
X137918427Y-104198427D01*
X137578427Y-104668427D01*
G37*
%TO.C,C11*%
X132956263Y-110968427D02*
X132740591Y-110968427D01*
X132956263Y-111688427D02*
X132740591Y-111688427D01*
%TO.C,R4*%
X149653641Y-114620000D02*
X149346359Y-114620000D01*
X149653641Y-115380000D02*
X149346359Y-115380000D01*
%TO.C,C1*%
X135436263Y-101968427D02*
X135220591Y-101968427D01*
X135436263Y-102688427D02*
X135220591Y-102688427D01*
%TO.C,C3*%
X135436263Y-103468427D02*
X135220591Y-103468427D01*
X135436263Y-104188427D02*
X135220591Y-104188427D01*
%TO.C,R5*%
X139346359Y-113620000D02*
X139653641Y-113620000D01*
X139346359Y-114380000D02*
X139653641Y-114380000D01*
%TD*%
M02*
