%TF.GenerationSoftware,KiCad,Pcbnew,9.0.7*%
%TF.CreationDate,2026-03-11T09:04:36+03:00*%
%TF.ProjectId,STM 32 DESIGN,53544d20-3332-4204-9445-5349474e2e6b,rev?*%
%TF.SameCoordinates,Original*%
%TF.FileFunction,Legend,Bot*%
%TF.FilePolarity,Positive*%
%FSLAX46Y46*%
G04 Gerber Fmt 4.6, Leading zero omitted, Abs format (unit mm)*
G04 Created by KiCad (PCBNEW 9.0.7) date 2026-03-11 09:04:36*
%MOMM*%
%LPD*%
G01*
G04 APERTURE LIST*
%ADD10C,0.100000*%
%ADD11C,0.240000*%
G04 APERTURE END LIST*
D10*
X153000000Y-99000000D02*
G75*
G02*
X143000000Y-99000000I-5000000J0D01*
G01*
X143000000Y-99000000D02*
G75*
G02*
X153000000Y-99000000I5000000J0D01*
G01*
D11*
X139113534Y-110919654D02*
X138942106Y-110976796D01*
X138942106Y-110976796D02*
X138656391Y-110976796D01*
X138656391Y-110976796D02*
X138542106Y-110919654D01*
X138542106Y-110919654D02*
X138484963Y-110862511D01*
X138484963Y-110862511D02*
X138427820Y-110748225D01*
X138427820Y-110748225D02*
X138427820Y-110633939D01*
X138427820Y-110633939D02*
X138484963Y-110519654D01*
X138484963Y-110519654D02*
X138542106Y-110462511D01*
X138542106Y-110462511D02*
X138656391Y-110405368D01*
X138656391Y-110405368D02*
X138884963Y-110348225D01*
X138884963Y-110348225D02*
X138999248Y-110291082D01*
X138999248Y-110291082D02*
X139056391Y-110233939D01*
X139056391Y-110233939D02*
X139113534Y-110119654D01*
X139113534Y-110119654D02*
X139113534Y-110005368D01*
X139113534Y-110005368D02*
X139056391Y-109891082D01*
X139056391Y-109891082D02*
X138999248Y-109833939D01*
X138999248Y-109833939D02*
X138884963Y-109776796D01*
X138884963Y-109776796D02*
X138599248Y-109776796D01*
X138599248Y-109776796D02*
X138427820Y-109833939D01*
X138084963Y-109776796D02*
X137399249Y-109776796D01*
X137742106Y-110976796D02*
X137742106Y-109776796D01*
X136999248Y-110976796D02*
X136999248Y-109776796D01*
X136999248Y-109776796D02*
X136599248Y-110633939D01*
X136599248Y-110633939D02*
X136199248Y-109776796D01*
X136199248Y-109776796D02*
X136199248Y-110976796D01*
X134827819Y-109776796D02*
X134084962Y-109776796D01*
X134084962Y-109776796D02*
X134484962Y-110233939D01*
X134484962Y-110233939D02*
X134313533Y-110233939D01*
X134313533Y-110233939D02*
X134199248Y-110291082D01*
X134199248Y-110291082D02*
X134142105Y-110348225D01*
X134142105Y-110348225D02*
X134084962Y-110462511D01*
X134084962Y-110462511D02*
X134084962Y-110748225D01*
X134084962Y-110748225D02*
X134142105Y-110862511D01*
X134142105Y-110862511D02*
X134199248Y-110919654D01*
X134199248Y-110919654D02*
X134313533Y-110976796D01*
X134313533Y-110976796D02*
X134656390Y-110976796D01*
X134656390Y-110976796D02*
X134770676Y-110919654D01*
X134770676Y-110919654D02*
X134827819Y-110862511D01*
X133627819Y-109891082D02*
X133570676Y-109833939D01*
X133570676Y-109833939D02*
X133456391Y-109776796D01*
X133456391Y-109776796D02*
X133170676Y-109776796D01*
X133170676Y-109776796D02*
X133056391Y-109833939D01*
X133056391Y-109833939D02*
X132999248Y-109891082D01*
X132999248Y-109891082D02*
X132942105Y-110005368D01*
X132942105Y-110005368D02*
X132942105Y-110119654D01*
X132942105Y-110119654D02*
X132999248Y-110291082D01*
X132999248Y-110291082D02*
X133684962Y-110976796D01*
X133684962Y-110976796D02*
X132942105Y-110976796D01*
X131513533Y-110976796D02*
X131513533Y-109776796D01*
X131513533Y-109776796D02*
X131227819Y-109776796D01*
X131227819Y-109776796D02*
X131056390Y-109833939D01*
X131056390Y-109833939D02*
X130942105Y-109948225D01*
X130942105Y-109948225D02*
X130884962Y-110062511D01*
X130884962Y-110062511D02*
X130827819Y-110291082D01*
X130827819Y-110291082D02*
X130827819Y-110462511D01*
X130827819Y-110462511D02*
X130884962Y-110691082D01*
X130884962Y-110691082D02*
X130942105Y-110805368D01*
X130942105Y-110805368D02*
X131056390Y-110919654D01*
X131056390Y-110919654D02*
X131227819Y-110976796D01*
X131227819Y-110976796D02*
X131513533Y-110976796D01*
X130313533Y-110348225D02*
X129913533Y-110348225D01*
X129742105Y-110976796D02*
X130313533Y-110976796D01*
X130313533Y-110976796D02*
X130313533Y-109776796D01*
X130313533Y-109776796D02*
X129742105Y-109776796D01*
X129227819Y-110976796D02*
X129227819Y-109776796D01*
X129227819Y-109776796D02*
X128827819Y-110633939D01*
X128827819Y-110633939D02*
X128427819Y-109776796D01*
X128427819Y-109776796D02*
X128427819Y-110976796D01*
X127627819Y-109776796D02*
X127399247Y-109776796D01*
X127399247Y-109776796D02*
X127284962Y-109833939D01*
X127284962Y-109833939D02*
X127170676Y-109948225D01*
X127170676Y-109948225D02*
X127113533Y-110176796D01*
X127113533Y-110176796D02*
X127113533Y-110576796D01*
X127113533Y-110576796D02*
X127170676Y-110805368D01*
X127170676Y-110805368D02*
X127284962Y-110919654D01*
X127284962Y-110919654D02*
X127399247Y-110976796D01*
X127399247Y-110976796D02*
X127627819Y-110976796D01*
X127627819Y-110976796D02*
X127742105Y-110919654D01*
X127742105Y-110919654D02*
X127856390Y-110805368D01*
X127856390Y-110805368D02*
X127913533Y-110576796D01*
X127913533Y-110576796D02*
X127913533Y-110176796D01*
X127913533Y-110176796D02*
X127856390Y-109948225D01*
X127856390Y-109948225D02*
X127742105Y-109833939D01*
X127742105Y-109833939D02*
X127627819Y-109776796D01*
X139113534Y-112851587D02*
X138942106Y-112908729D01*
X138942106Y-112908729D02*
X138656391Y-112908729D01*
X138656391Y-112908729D02*
X138542106Y-112851587D01*
X138542106Y-112851587D02*
X138484963Y-112794444D01*
X138484963Y-112794444D02*
X138427820Y-112680158D01*
X138427820Y-112680158D02*
X138427820Y-112565872D01*
X138427820Y-112565872D02*
X138484963Y-112451587D01*
X138484963Y-112451587D02*
X138542106Y-112394444D01*
X138542106Y-112394444D02*
X138656391Y-112337301D01*
X138656391Y-112337301D02*
X138884963Y-112280158D01*
X138884963Y-112280158D02*
X138999248Y-112223015D01*
X138999248Y-112223015D02*
X139056391Y-112165872D01*
X139056391Y-112165872D02*
X139113534Y-112051587D01*
X139113534Y-112051587D02*
X139113534Y-111937301D01*
X139113534Y-111937301D02*
X139056391Y-111823015D01*
X139056391Y-111823015D02*
X138999248Y-111765872D01*
X138999248Y-111765872D02*
X138884963Y-111708729D01*
X138884963Y-111708729D02*
X138599248Y-111708729D01*
X138599248Y-111708729D02*
X138427820Y-111765872D01*
X138084963Y-111708729D02*
X137399249Y-111708729D01*
X137742106Y-112908729D02*
X137742106Y-111708729D01*
X136999248Y-112908729D02*
X136999248Y-111708729D01*
X136999248Y-111708729D02*
X136599248Y-112565872D01*
X136599248Y-112565872D02*
X136199248Y-111708729D01*
X136199248Y-111708729D02*
X136199248Y-112908729D01*
X135742105Y-111708729D02*
X134999248Y-111708729D01*
X134999248Y-111708729D02*
X135399248Y-112165872D01*
X135399248Y-112165872D02*
X135227819Y-112165872D01*
X135227819Y-112165872D02*
X135113534Y-112223015D01*
X135113534Y-112223015D02*
X135056391Y-112280158D01*
X135056391Y-112280158D02*
X134999248Y-112394444D01*
X134999248Y-112394444D02*
X134999248Y-112680158D01*
X134999248Y-112680158D02*
X135056391Y-112794444D01*
X135056391Y-112794444D02*
X135113534Y-112851587D01*
X135113534Y-112851587D02*
X135227819Y-112908729D01*
X135227819Y-112908729D02*
X135570676Y-112908729D01*
X135570676Y-112908729D02*
X135684962Y-112851587D01*
X135684962Y-112851587D02*
X135742105Y-112794444D01*
X134542105Y-111823015D02*
X134484962Y-111765872D01*
X134484962Y-111765872D02*
X134370677Y-111708729D01*
X134370677Y-111708729D02*
X134084962Y-111708729D01*
X134084962Y-111708729D02*
X133970677Y-111765872D01*
X133970677Y-111765872D02*
X133913534Y-111823015D01*
X133913534Y-111823015D02*
X133856391Y-111937301D01*
X133856391Y-111937301D02*
X133856391Y-112051587D01*
X133856391Y-112051587D02*
X133913534Y-112223015D01*
X133913534Y-112223015D02*
X134599248Y-112908729D01*
X134599248Y-112908729D02*
X133856391Y-112908729D01*
X132942105Y-112280158D02*
X133342105Y-112280158D01*
X133342105Y-112908729D02*
X133342105Y-111708729D01*
X133342105Y-111708729D02*
X132770677Y-111708729D01*
X131684963Y-112908729D02*
X132370677Y-112908729D01*
X132027820Y-112908729D02*
X132027820Y-111708729D01*
X132027820Y-111708729D02*
X132142106Y-111880158D01*
X132142106Y-111880158D02*
X132256391Y-111994444D01*
X132256391Y-111994444D02*
X132370677Y-112051587D01*
X130942106Y-111708729D02*
X130827820Y-111708729D01*
X130827820Y-111708729D02*
X130713534Y-111765872D01*
X130713534Y-111765872D02*
X130656392Y-111823015D01*
X130656392Y-111823015D02*
X130599249Y-111937301D01*
X130599249Y-111937301D02*
X130542106Y-112165872D01*
X130542106Y-112165872D02*
X130542106Y-112451587D01*
X130542106Y-112451587D02*
X130599249Y-112680158D01*
X130599249Y-112680158D02*
X130656392Y-112794444D01*
X130656392Y-112794444D02*
X130713534Y-112851587D01*
X130713534Y-112851587D02*
X130827820Y-112908729D01*
X130827820Y-112908729D02*
X130942106Y-112908729D01*
X130942106Y-112908729D02*
X131056392Y-112851587D01*
X131056392Y-112851587D02*
X131113534Y-112794444D01*
X131113534Y-112794444D02*
X131170677Y-112680158D01*
X131170677Y-112680158D02*
X131227820Y-112451587D01*
X131227820Y-112451587D02*
X131227820Y-112165872D01*
X131227820Y-112165872D02*
X131170677Y-111937301D01*
X131170677Y-111937301D02*
X131113534Y-111823015D01*
X131113534Y-111823015D02*
X131056392Y-111765872D01*
X131056392Y-111765872D02*
X130942106Y-111708729D01*
X130142106Y-111708729D02*
X129399249Y-111708729D01*
X129399249Y-111708729D02*
X129799249Y-112165872D01*
X129799249Y-112165872D02*
X129627820Y-112165872D01*
X129627820Y-112165872D02*
X129513535Y-112223015D01*
X129513535Y-112223015D02*
X129456392Y-112280158D01*
X129456392Y-112280158D02*
X129399249Y-112394444D01*
X129399249Y-112394444D02*
X129399249Y-112680158D01*
X129399249Y-112680158D02*
X129456392Y-112794444D01*
X129456392Y-112794444D02*
X129513535Y-112851587D01*
X129513535Y-112851587D02*
X129627820Y-112908729D01*
X129627820Y-112908729D02*
X129970677Y-112908729D01*
X129970677Y-112908729D02*
X130084963Y-112851587D01*
X130084963Y-112851587D02*
X130142106Y-112794444D01*
X128199249Y-112794444D02*
X128256392Y-112851587D01*
X128256392Y-112851587D02*
X128427820Y-112908729D01*
X128427820Y-112908729D02*
X128542106Y-112908729D01*
X128542106Y-112908729D02*
X128713535Y-112851587D01*
X128713535Y-112851587D02*
X128827820Y-112737301D01*
X128827820Y-112737301D02*
X128884963Y-112623015D01*
X128884963Y-112623015D02*
X128942106Y-112394444D01*
X128942106Y-112394444D02*
X128942106Y-112223015D01*
X128942106Y-112223015D02*
X128884963Y-111994444D01*
X128884963Y-111994444D02*
X128827820Y-111880158D01*
X128827820Y-111880158D02*
X128713535Y-111765872D01*
X128713535Y-111765872D02*
X128542106Y-111708729D01*
X128542106Y-111708729D02*
X128427820Y-111708729D01*
X128427820Y-111708729D02*
X128256392Y-111765872D01*
X128256392Y-111765872D02*
X128199249Y-111823015D01*
X127513535Y-112223015D02*
X127627820Y-112165872D01*
X127627820Y-112165872D02*
X127684963Y-112108729D01*
X127684963Y-112108729D02*
X127742106Y-111994444D01*
X127742106Y-111994444D02*
X127742106Y-111937301D01*
X127742106Y-111937301D02*
X127684963Y-111823015D01*
X127684963Y-111823015D02*
X127627820Y-111765872D01*
X127627820Y-111765872D02*
X127513535Y-111708729D01*
X127513535Y-111708729D02*
X127284963Y-111708729D01*
X127284963Y-111708729D02*
X127170678Y-111765872D01*
X127170678Y-111765872D02*
X127113535Y-111823015D01*
X127113535Y-111823015D02*
X127056392Y-111937301D01*
X127056392Y-111937301D02*
X127056392Y-111994444D01*
X127056392Y-111994444D02*
X127113535Y-112108729D01*
X127113535Y-112108729D02*
X127170678Y-112165872D01*
X127170678Y-112165872D02*
X127284963Y-112223015D01*
X127284963Y-112223015D02*
X127513535Y-112223015D01*
X127513535Y-112223015D02*
X127627820Y-112280158D01*
X127627820Y-112280158D02*
X127684963Y-112337301D01*
X127684963Y-112337301D02*
X127742106Y-112451587D01*
X127742106Y-112451587D02*
X127742106Y-112680158D01*
X127742106Y-112680158D02*
X127684963Y-112794444D01*
X127684963Y-112794444D02*
X127627820Y-112851587D01*
X127627820Y-112851587D02*
X127513535Y-112908729D01*
X127513535Y-112908729D02*
X127284963Y-112908729D01*
X127284963Y-112908729D02*
X127170678Y-112851587D01*
X127170678Y-112851587D02*
X127113535Y-112794444D01*
X127113535Y-112794444D02*
X127056392Y-112680158D01*
X127056392Y-112680158D02*
X127056392Y-112451587D01*
X127056392Y-112451587D02*
X127113535Y-112337301D01*
X127113535Y-112337301D02*
X127170678Y-112280158D01*
X127170678Y-112280158D02*
X127284963Y-112223015D01*
X126713535Y-111708729D02*
X126027821Y-111708729D01*
X126370678Y-112908729D02*
X126370678Y-111708729D01*
X125742106Y-112908729D02*
X125113535Y-112108729D01*
X125742106Y-112108729D02*
X125113535Y-112908729D01*
X138370677Y-114726377D02*
X138427820Y-114783520D01*
X138427820Y-114783520D02*
X138599248Y-114840662D01*
X138599248Y-114840662D02*
X138713534Y-114840662D01*
X138713534Y-114840662D02*
X138884963Y-114783520D01*
X138884963Y-114783520D02*
X138999248Y-114669234D01*
X138999248Y-114669234D02*
X139056391Y-114554948D01*
X139056391Y-114554948D02*
X139113534Y-114326377D01*
X139113534Y-114326377D02*
X139113534Y-114154948D01*
X139113534Y-114154948D02*
X139056391Y-113926377D01*
X139056391Y-113926377D02*
X138999248Y-113812091D01*
X138999248Y-113812091D02*
X138884963Y-113697805D01*
X138884963Y-113697805D02*
X138713534Y-113640662D01*
X138713534Y-113640662D02*
X138599248Y-113640662D01*
X138599248Y-113640662D02*
X138427820Y-113697805D01*
X138427820Y-113697805D02*
X138370677Y-113754948D01*
X137856391Y-114726377D02*
X137799248Y-114783520D01*
X137799248Y-114783520D02*
X137856391Y-114840662D01*
X137856391Y-114840662D02*
X137913534Y-114783520D01*
X137913534Y-114783520D02*
X137856391Y-114726377D01*
X137856391Y-114726377D02*
X137856391Y-114840662D01*
X137284962Y-114840662D02*
X137284962Y-113640662D01*
X136713533Y-114726377D02*
X136656390Y-114783520D01*
X136656390Y-114783520D02*
X136713533Y-114840662D01*
X136713533Y-114840662D02*
X136770676Y-114783520D01*
X136770676Y-114783520D02*
X136713533Y-114726377D01*
X136713533Y-114726377D02*
X136713533Y-114840662D01*
X136199247Y-114783520D02*
X136027819Y-114840662D01*
X136027819Y-114840662D02*
X135742104Y-114840662D01*
X135742104Y-114840662D02*
X135627819Y-114783520D01*
X135627819Y-114783520D02*
X135570676Y-114726377D01*
X135570676Y-114726377D02*
X135513533Y-114612091D01*
X135513533Y-114612091D02*
X135513533Y-114497805D01*
X135513533Y-114497805D02*
X135570676Y-114383520D01*
X135570676Y-114383520D02*
X135627819Y-114326377D01*
X135627819Y-114326377D02*
X135742104Y-114269234D01*
X135742104Y-114269234D02*
X135970676Y-114212091D01*
X135970676Y-114212091D02*
X136084961Y-114154948D01*
X136084961Y-114154948D02*
X136142104Y-114097805D01*
X136142104Y-114097805D02*
X136199247Y-113983520D01*
X136199247Y-113983520D02*
X136199247Y-113869234D01*
X136199247Y-113869234D02*
X136142104Y-113754948D01*
X136142104Y-113754948D02*
X136084961Y-113697805D01*
X136084961Y-113697805D02*
X135970676Y-113640662D01*
X135970676Y-113640662D02*
X135684961Y-113640662D01*
X135684961Y-113640662D02*
X135513533Y-113697805D01*
X134999247Y-114726377D02*
X134942104Y-114783520D01*
X134942104Y-114783520D02*
X134999247Y-114840662D01*
X134999247Y-114840662D02*
X135056390Y-114783520D01*
X135056390Y-114783520D02*
X134999247Y-114726377D01*
X134999247Y-114726377D02*
X134999247Y-114840662D01*
X134427818Y-114840662D02*
X134427818Y-113640662D01*
X134427818Y-113640662D02*
X134027818Y-114497805D01*
X134027818Y-114497805D02*
X133627818Y-113640662D01*
X133627818Y-113640662D02*
X133627818Y-114840662D01*
X133056389Y-114726377D02*
X132999246Y-114783520D01*
X132999246Y-114783520D02*
X133056389Y-114840662D01*
X133056389Y-114840662D02*
X133113532Y-114783520D01*
X133113532Y-114783520D02*
X133056389Y-114726377D01*
X133056389Y-114726377D02*
X133056389Y-114840662D01*
X132484960Y-114840662D02*
X132484960Y-113640662D01*
X131913531Y-114726377D02*
X131856388Y-114783520D01*
X131856388Y-114783520D02*
X131913531Y-114840662D01*
X131913531Y-114840662D02*
X131970674Y-114783520D01*
X131970674Y-114783520D02*
X131913531Y-114726377D01*
X131913531Y-114726377D02*
X131913531Y-114840662D01*
X130656388Y-114726377D02*
X130713531Y-114783520D01*
X130713531Y-114783520D02*
X130884959Y-114840662D01*
X130884959Y-114840662D02*
X130999245Y-114840662D01*
X130999245Y-114840662D02*
X131170674Y-114783520D01*
X131170674Y-114783520D02*
X131284959Y-114669234D01*
X131284959Y-114669234D02*
X131342102Y-114554948D01*
X131342102Y-114554948D02*
X131399245Y-114326377D01*
X131399245Y-114326377D02*
X131399245Y-114154948D01*
X131399245Y-114154948D02*
X131342102Y-113926377D01*
X131342102Y-113926377D02*
X131284959Y-113812091D01*
X131284959Y-113812091D02*
X131170674Y-113697805D01*
X131170674Y-113697805D02*
X130999245Y-113640662D01*
X130999245Y-113640662D02*
X130884959Y-113640662D01*
X130884959Y-113640662D02*
X130713531Y-113697805D01*
X130713531Y-113697805D02*
X130656388Y-113754948D01*
D10*
X149904761Y-97262475D02*
X149571428Y-98262475D01*
X149571428Y-98262475D02*
X149238095Y-97262475D01*
X147619047Y-98262475D02*
X148190475Y-98262475D01*
X147904761Y-98262475D02*
X147904761Y-97262475D01*
X147904761Y-97262475D02*
X147999999Y-97405332D01*
X147999999Y-97405332D02*
X148095237Y-97500570D01*
X148095237Y-97500570D02*
X148190475Y-97548189D01*
X147190475Y-98167236D02*
X147142856Y-98214856D01*
X147142856Y-98214856D02*
X147190475Y-98262475D01*
X147190475Y-98262475D02*
X147238094Y-98214856D01*
X147238094Y-98214856D02*
X147190475Y-98167236D01*
X147190475Y-98167236D02*
X147190475Y-98262475D01*
X146523809Y-97262475D02*
X146428571Y-97262475D01*
X146428571Y-97262475D02*
X146333333Y-97310094D01*
X146333333Y-97310094D02*
X146285714Y-97357713D01*
X146285714Y-97357713D02*
X146238095Y-97452951D01*
X146238095Y-97452951D02*
X146190476Y-97643427D01*
X146190476Y-97643427D02*
X146190476Y-97881522D01*
X146190476Y-97881522D02*
X146238095Y-98071998D01*
X146238095Y-98071998D02*
X146285714Y-98167236D01*
X146285714Y-98167236D02*
X146333333Y-98214856D01*
X146333333Y-98214856D02*
X146428571Y-98262475D01*
X146428571Y-98262475D02*
X146523809Y-98262475D01*
X146523809Y-98262475D02*
X146619047Y-98214856D01*
X146619047Y-98214856D02*
X146666666Y-98167236D01*
X146666666Y-98167236D02*
X146714285Y-98071998D01*
X146714285Y-98071998D02*
X146761904Y-97881522D01*
X146761904Y-97881522D02*
X146761904Y-97643427D01*
X146761904Y-97643427D02*
X146714285Y-97452951D01*
X146714285Y-97452951D02*
X146666666Y-97357713D01*
X146666666Y-97357713D02*
X146619047Y-97310094D01*
X146619047Y-97310094D02*
X146523809Y-97262475D01*
X152095238Y-99872419D02*
X152666666Y-99872419D01*
X152380952Y-99872419D02*
X152380952Y-98872419D01*
X152380952Y-98872419D02*
X152476190Y-99015276D01*
X152476190Y-99015276D02*
X152571428Y-99110514D01*
X152571428Y-99110514D02*
X152666666Y-99158133D01*
X151476190Y-98872419D02*
X151380952Y-98872419D01*
X151380952Y-98872419D02*
X151285714Y-98920038D01*
X151285714Y-98920038D02*
X151238095Y-98967657D01*
X151238095Y-98967657D02*
X151190476Y-99062895D01*
X151190476Y-99062895D02*
X151142857Y-99253371D01*
X151142857Y-99253371D02*
X151142857Y-99491466D01*
X151142857Y-99491466D02*
X151190476Y-99681942D01*
X151190476Y-99681942D02*
X151238095Y-99777180D01*
X151238095Y-99777180D02*
X151285714Y-99824800D01*
X151285714Y-99824800D02*
X151380952Y-99872419D01*
X151380952Y-99872419D02*
X151476190Y-99872419D01*
X151476190Y-99872419D02*
X151571428Y-99824800D01*
X151571428Y-99824800D02*
X151619047Y-99777180D01*
X151619047Y-99777180D02*
X151666666Y-99681942D01*
X151666666Y-99681942D02*
X151714285Y-99491466D01*
X151714285Y-99491466D02*
X151714285Y-99253371D01*
X151714285Y-99253371D02*
X151666666Y-99062895D01*
X151666666Y-99062895D02*
X151619047Y-98967657D01*
X151619047Y-98967657D02*
X151571428Y-98920038D01*
X151571428Y-98920038D02*
X151476190Y-98872419D01*
X150000000Y-98824800D02*
X150857142Y-100110514D01*
X149476190Y-98872419D02*
X149380952Y-98872419D01*
X149380952Y-98872419D02*
X149285714Y-98920038D01*
X149285714Y-98920038D02*
X149238095Y-98967657D01*
X149238095Y-98967657D02*
X149190476Y-99062895D01*
X149190476Y-99062895D02*
X149142857Y-99253371D01*
X149142857Y-99253371D02*
X149142857Y-99491466D01*
X149142857Y-99491466D02*
X149190476Y-99681942D01*
X149190476Y-99681942D02*
X149238095Y-99777180D01*
X149238095Y-99777180D02*
X149285714Y-99824800D01*
X149285714Y-99824800D02*
X149380952Y-99872419D01*
X149380952Y-99872419D02*
X149476190Y-99872419D01*
X149476190Y-99872419D02*
X149571428Y-99824800D01*
X149571428Y-99824800D02*
X149619047Y-99777180D01*
X149619047Y-99777180D02*
X149666666Y-99681942D01*
X149666666Y-99681942D02*
X149714285Y-99491466D01*
X149714285Y-99491466D02*
X149714285Y-99253371D01*
X149714285Y-99253371D02*
X149666666Y-99062895D01*
X149666666Y-99062895D02*
X149619047Y-98967657D01*
X149619047Y-98967657D02*
X149571428Y-98920038D01*
X149571428Y-98920038D02*
X149476190Y-98872419D01*
X148809523Y-98872419D02*
X148190476Y-98872419D01*
X148190476Y-98872419D02*
X148523809Y-99253371D01*
X148523809Y-99253371D02*
X148380952Y-99253371D01*
X148380952Y-99253371D02*
X148285714Y-99300990D01*
X148285714Y-99300990D02*
X148238095Y-99348609D01*
X148238095Y-99348609D02*
X148190476Y-99443847D01*
X148190476Y-99443847D02*
X148190476Y-99681942D01*
X148190476Y-99681942D02*
X148238095Y-99777180D01*
X148238095Y-99777180D02*
X148285714Y-99824800D01*
X148285714Y-99824800D02*
X148380952Y-99872419D01*
X148380952Y-99872419D02*
X148666666Y-99872419D01*
X148666666Y-99872419D02*
X148761904Y-99824800D01*
X148761904Y-99824800D02*
X148809523Y-99777180D01*
X147047619Y-98824800D02*
X147904761Y-100110514D01*
X146761904Y-98967657D02*
X146714285Y-98920038D01*
X146714285Y-98920038D02*
X146619047Y-98872419D01*
X146619047Y-98872419D02*
X146380952Y-98872419D01*
X146380952Y-98872419D02*
X146285714Y-98920038D01*
X146285714Y-98920038D02*
X146238095Y-98967657D01*
X146238095Y-98967657D02*
X146190476Y-99062895D01*
X146190476Y-99062895D02*
X146190476Y-99158133D01*
X146190476Y-99158133D02*
X146238095Y-99300990D01*
X146238095Y-99300990D02*
X146809523Y-99872419D01*
X146809523Y-99872419D02*
X146190476Y-99872419D01*
X145571428Y-98872419D02*
X145476190Y-98872419D01*
X145476190Y-98872419D02*
X145380952Y-98920038D01*
X145380952Y-98920038D02*
X145333333Y-98967657D01*
X145333333Y-98967657D02*
X145285714Y-99062895D01*
X145285714Y-99062895D02*
X145238095Y-99253371D01*
X145238095Y-99253371D02*
X145238095Y-99491466D01*
X145238095Y-99491466D02*
X145285714Y-99681942D01*
X145285714Y-99681942D02*
X145333333Y-99777180D01*
X145333333Y-99777180D02*
X145380952Y-99824800D01*
X145380952Y-99824800D02*
X145476190Y-99872419D01*
X145476190Y-99872419D02*
X145571428Y-99872419D01*
X145571428Y-99872419D02*
X145666666Y-99824800D01*
X145666666Y-99824800D02*
X145714285Y-99777180D01*
X145714285Y-99777180D02*
X145761904Y-99681942D01*
X145761904Y-99681942D02*
X145809523Y-99491466D01*
X145809523Y-99491466D02*
X145809523Y-99253371D01*
X145809523Y-99253371D02*
X145761904Y-99062895D01*
X145761904Y-99062895D02*
X145714285Y-98967657D01*
X145714285Y-98967657D02*
X145666666Y-98920038D01*
X145666666Y-98920038D02*
X145571428Y-98872419D01*
X144857142Y-98967657D02*
X144809523Y-98920038D01*
X144809523Y-98920038D02*
X144714285Y-98872419D01*
X144714285Y-98872419D02*
X144476190Y-98872419D01*
X144476190Y-98872419D02*
X144380952Y-98920038D01*
X144380952Y-98920038D02*
X144333333Y-98967657D01*
X144333333Y-98967657D02*
X144285714Y-99062895D01*
X144285714Y-99062895D02*
X144285714Y-99158133D01*
X144285714Y-99158133D02*
X144333333Y-99300990D01*
X144333333Y-99300990D02*
X144904761Y-99872419D01*
X144904761Y-99872419D02*
X144285714Y-99872419D01*
X143428571Y-98872419D02*
X143619047Y-98872419D01*
X143619047Y-98872419D02*
X143714285Y-98920038D01*
X143714285Y-98920038D02*
X143761904Y-98967657D01*
X143761904Y-98967657D02*
X143857142Y-99110514D01*
X143857142Y-99110514D02*
X143904761Y-99300990D01*
X143904761Y-99300990D02*
X143904761Y-99681942D01*
X143904761Y-99681942D02*
X143857142Y-99777180D01*
X143857142Y-99777180D02*
X143809523Y-99824800D01*
X143809523Y-99824800D02*
X143714285Y-99872419D01*
X143714285Y-99872419D02*
X143523809Y-99872419D01*
X143523809Y-99872419D02*
X143428571Y-99824800D01*
X143428571Y-99824800D02*
X143380952Y-99777180D01*
X143380952Y-99777180D02*
X143333333Y-99681942D01*
X143333333Y-99681942D02*
X143333333Y-99443847D01*
X143333333Y-99443847D02*
X143380952Y-99348609D01*
X143380952Y-99348609D02*
X143428571Y-99300990D01*
X143428571Y-99300990D02*
X143523809Y-99253371D01*
X143523809Y-99253371D02*
X143714285Y-99253371D01*
X143714285Y-99253371D02*
X143809523Y-99300990D01*
X143809523Y-99300990D02*
X143857142Y-99348609D01*
X143857142Y-99348609D02*
X143904761Y-99443847D01*
M02*
